<?xml version="1.0" encoding="UTF-8" standalone="no"?>
<svg width="118px" height="45px" viewBox="0 0 118 45" version="1.1" xmlns="http://www.w3.org/2000/svg" xmlns:xlink="http://www.w3.org/1999/xlink">
    <!-- Generator: Sketch 3.7.1 (28215) - http://www.bohemiancoding.com/sketch -->
    <title>babel</title>
    <desc>Created with Sketch.</desc>
    <defs></defs>
    <g id="Main" stroke="none" stroke-width="1" fill="none" fill-rule="evenodd">
        <g id="Desktop-HD" transform="translate(-673.000000, -5130.000000)" fill="#FFFFFF">
            <g id="section-5" transform="translate(0.000000, 4320.000000)">
                <g id="logos" transform="translate(538.000000, 810.000000)">
                    <g id="babel" transform="translate(135.000000, 0.000000)">
                        <path d="M104.554396,1.03858949 C104.244411,2.44710579 103.740686,3.48902196 103.062593,4.18363273 L102.578241,3.87491683 C103.101341,2.54357951 103.353204,1.77178975 103.33383,1.57884232 L103.198212,1.36660013 C103.023845,1.38589488 102.791356,1.84896873 102.500745,2.77511643 L102.248882,2.79441118 C102.229508,2.62075848 102.19076,2.48569528 102.113264,2.35063207 L101.997019,2.36992681 C99.7108793,8.71789754 98.6840537,11.6699933 96.5722802,16.5515635 C96.1847988,17.8057219 95.8554396,18.5003327 95.5648286,18.6353959 C95.5842027,18.7704591 95.661699,18.8476381 95.8166915,18.8283433 C95.8748137,19.4457751 95.7198212,20.0439122 95.390462,20.6420492 C94.4023845,23.4397871 93.7630402,24.9833666 93.4336811,25.253493 L93.6467958,26.5848303 C93.6661699,26.7198935 93.5886736,26.8163673 93.4336811,26.8163673 L93.2011923,26.835662 C93.1624441,26.4690619 93.0268256,26.2954092 92.7943368,26.3147039 L92.6780924,26.3339987 C92.3874814,26.7970725 92.1549925,27.3373253 92,27.9547572 L92.2324888,27.9354624 C92.5424739,27.742515 92.6780924,27.510978 92.6587183,27.2215569 L93.123696,27.1829674 L93.3755589,27.2794411 C93.1624441,27.6074518 93.0655738,27.8775782 93.0849478,28.0705256 L93.2011923,28.2827678 L92.9105812,28.9773786 L92.9299553,29.093147 C93.2011923,29.0738523 93.4918033,29.1510313 93.8017884,29.3439787 C94.0149031,29.324684 94.247392,29.2282102 94.4992548,29.0738523 C94.7704918,29.0545576 95.7391952,29.0352628 97.4441133,29.0352628 L98.2965723,28.7458417 C99.342772,28.7265469 99.4977645,28.7651364 100.408346,28.6879574 L100.776453,28.6493679 L100.970194,28.5143047 L100.989568,28.6300732 C101.919523,28.5528942 101.997019,28.6107784 102.733234,28.7072522 L102.752608,28.8230206 L102.229508,28.8616101 L102.248882,29.0738523 C102.403875,29.0545576 102.539493,29.0159681 102.655738,28.9194943 C102.791356,28.9001996 102.868852,28.9773786 102.888227,29.1317365 C102.675112,29.1510313 102.442623,29.2089155 102.171386,29.2860945 L101.938897,29.2089155 C101.57079,29.3053892 101.648286,29.324684 101.415797,29.3439787 L101.04769,29.2667997 C101.04769,29.324684 101.028316,29.3632735 100.970194,29.3825682 C100.989568,29.5176314 101.04769,29.5948104 101.183308,29.5755156 L101.628912,29.5369261 L101.435171,29.4597472 C101.435171,29.5176314 101.47392,29.5562209 101.551416,29.5562209 L103.469449,29.3825682 L104.205663,29.2282102 C104.205663,29.2860945 104.244411,29.324684 104.302534,29.324684 L104.651267,29.1896208 L105.309985,29.1317365 C105.833085,29.093147 105.813711,29.0545576 106.918033,28.8809049 C106.918033,28.8230206 106.937407,28.7844311 106.995529,28.7844311 L106.995529,28.8809049 C109.107303,28.5335995 108.913562,28.5528942 109.359165,28.3985363 L109.262295,28.1669993 C108.661699,28.3020625 108.681073,28.2248836 108.371088,28.2634731 L106.76304,28.340652 L106.743666,28.2248836 L107.634873,28.1091151 L107.964232,28.0898204 L108.138599,27.9547572 L108.157973,28.0705256 C109.417288,27.9547572 109.862891,28.2827678 115.733234,27.0479042 C116.043219,27.0286094 116.023845,26.758483 116.217586,26.2182302 C116.101341,26.2182302 116.004471,26.1989355 115.907601,26.1410512 C115.423249,26.3339987 115.171386,26.237525 114.241431,26.3918829 C114.163934,26.3918829 114.105812,26.3339987 114.067064,26.1796407 L114.067064,26.083167 L114.958271,26.1217565 C115.113264,26.1024617 115.461997,26.083167 115.926975,25.8130406 C116.023845,25.8709248 115.849478,25.928809 115.946349,25.9095143 L116.101341,25.8902196 C116.198212,25.8902196 116.23696,25.8130406 116.23696,25.6586826 L116.140089,25.4464405 C115.539493,25.5043247 115.248882,25.5236194 114.764531,25.7937458 L114.745156,25.6779774 L114.008942,25.7551564 C113.989568,25.5236194 113.931446,25.4271457 113.834575,25.4271457 L113.447094,25.4657352 C113.00149,25.5043247 112.788376,25.4850299 112.575261,25.6586826 C112.575261,25.5815037 112.536513,25.5429142 112.497765,25.5429142 L112.071535,25.5815037 L111.819672,25.7165669 C111.819672,25.6393879 111.780924,25.6007984 111.742176,25.6007984 L111.587183,25.7358616 L111.567809,25.6200931 L110.986587,25.5815037 L110.850969,25.6007984 L110.870343,25.8130406 L111.180328,25.8902196 L111.451565,25.8709248 C111.548435,25.928809 111.66468,25.9481038 111.780924,25.9481038 L112.032787,25.8323353 L112.032787,25.928809 C110.657228,26.2761144 110.657228,26.1989355 109.707899,26.3725882 C109.591654,26.2954092 109.514158,26.2761144 109.47541,26.2761144 C109.378539,26.3725882 109.591654,26.2954092 109.533532,26.2954092 C109.378539,26.3147039 109.301043,26.237525 109.281669,26.1024617 L109.766021,26.0445775 C109.804769,26.0445775 109.824143,26.083167 110.09538,26.1410512 C110.482861,25.9481038 110.502235,25.8709248 110.71535,25.8516301 L110.695976,25.6393879 C109.339791,25.9095143 109.882265,25.7358616 108.177347,25.8709248 L108.099851,25.8709248 L108.080477,25.6586826 C110.269747,25.3885562 109.533532,25.5429142 110.269747,25.330672 C110.269747,25.407851 110.308495,25.4464405 110.347243,25.4464405 C110.424739,25.3692615 110.540984,25.3113772 110.657228,25.3113772 L110.812221,25.2920825 C111.567809,25.2341983 111.839046,25.3885562 113.350224,24.9640719 L113.350224,25.0605456 L113.602086,24.9447771 L113.834575,24.9254824 C113.815201,24.6939454 114.163934,24.6746507 114.260805,24.655356 L114.241431,24.423819 C111.587183,24.9640719 110.889717,24.8097139 110.153502,25.0219561 L110.153502,24.9254824 C109.456036,25.0605456 109.436662,24.9833666 109.262295,25.0026613 C109.204173,25.0026613 109.126677,25.0605456 109.04918,25.1377246 C109.04918,25.0605456 109.010432,25.0219561 108.95231,25.0219561 C108.836066,25.0219561 108.894188,25.0605456 108.797317,25.1570193 L108.95231,25.0219561 L106.646796,25.3885562 C106.646796,25.330672 106.608048,25.2920825 106.549925,25.2920825 C105.387481,25.5429142 105.697466,25.5815037 104.128167,25.7165669 C104.050671,25.7165669 103.9538,25.7551564 103.837556,25.8323353 C103.837556,25.7744511 103.798808,25.7358616 103.721311,25.7358616 L102.752608,25.8130406 L102.113264,25.9673985 C102.113264,25.9095143 102.074516,25.8709248 101.997019,25.8709248 C101.628912,25.9673985 101.318927,26.0252828 101.067064,26.0445775 L101.04769,26.0445775 C100.892697,26.0638723 101.125186,26.005988 101.008942,25.9481038 L100.815201,26.0638723 C100.52459,26.083167 100.679583,26.0445775 99.7108793,26.0638723 C98.0059613,26.2761144 98.1997019,26.2954092 98.0059613,26.3147039 L97.366617,26.2761144 C97.366617,26.3339987 97.3472429,26.3725882 97.2697466,26.3918829 C96.5529061,26.2954092 96.1847988,26.1796407 96.1654247,26.0445775 C96.2622951,25.3692615 96.4172876,25.0219561 96.6691505,24.9833666 L96.7853949,24.9640719 L96.6691505,25.1956088 L96.7853949,25.176314 C97.0178838,25.0605456 97.1147541,24.9447771 97.1147541,24.8290086 L97.09538,24.5974717 L96.8628912,24.6167665 L96.8435171,24.4045243 C96.8241431,24.2308716 96.8435171,24.0958084 96.9016393,23.9607452 L97.4247392,23.1310712 L97.4441133,23.3433134 L97.6959762,23.3240186 L97.6766021,23.1117764 L97.5409836,22.8995343 C97.7153502,22.7451763 97.8703428,22.6487026 97.9865872,22.6487026 L97.9672131,22.5329341 L97.6378539,22.5522289 L97.6184799,22.2242182 C98.2771982,20.8349967 98.6065574,20.0246174 98.5871833,19.8123752 L98.8196721,19.908849 C98.9746647,19.8895542 99.052161,19.8123752 99.0327869,19.6580173 L98.8002981,19.677312 L98.8002981,19.5808383 C98.780924,19.4071856 98.8196721,19.2528277 98.8777943,19.1177645 C99.2459016,18.7511643 99.4008942,18.3652695 99.3621461,17.9600798 C99.4396423,17.9600798 99.4783905,17.9986693 99.4783905,18.0758483 C99.7883756,17.9021956 100.020864,17.4391218 100.195231,16.667332 C100.737705,15.6833001 101.512668,13.7152362 102.520119,10.7824351 C104.457526,5.59214904 104.38003,5.03260146 104.651267,3.8170326 L104.418778,3.83632735 C104.438152,3.9906853 104.399404,4.14504325 104.321908,4.28010645 C104.166915,4.22222222 104.031297,4.18363273 103.9538,4.18363273 L103.9538,4.08715902 C103.915052,3.64337991 104.108793,3.10312708 104.535022,2.46640053 L104.631893,2.46640053 L104.825633,3.21889554 L105.058122,3.1996008 C105.058122,3.14171657 105.116244,2.85229541 105.232489,2.29274784 C105.213115,2.17697937 105.135618,2.11909514 104.961252,2.0998004 L104.748137,2.23486361 C104.728763,2.08050566 104.748137,1.67531603 104.767511,1 L104.554396,1.03858949 L104.554396,1.03858949 Z M101.764531,4.37658017 L101.880775,4.35728543 C101.706408,4.66600133 101.57079,4.83965403 101.435171,4.85894877 L101.415797,4.53093812 C101.512668,4.51164338 101.628912,4.47305389 101.764531,4.37658017 L101.764531,4.37658017 L101.764531,4.37658017 Z M100.795827,6.69194943 C101.028316,5.74650699 101.260805,5.20625416 101.47392,5.07119095 L101.493294,5.18695941 C101.377049,6.07451763 101.183308,6.51829674 100.912072,6.55688623 L100.95082,7.1164338 C100.737705,7.40585496 100.640835,7.63739188 100.660209,7.81104458 L100.543964,7.83033932 L100.485842,7.05854957 C100.602086,7.03925482 100.718331,6.92348636 100.795827,6.69194943 L100.795827,6.69194943 L100.795827,6.69194943 Z M100.42772,7.94610778 C100.447094,8.08117099 100.350224,8.38988689 100.175857,8.85296075 L100.059613,8.87225549 L100.040238,8.54424484 C100.175857,8.15834997 100.311475,7.96540253 100.42772,7.94610778 L100.42772,7.94610778 L100.42772,7.94610778 Z M94.0536513,21.9733866 L94.1698957,22.1856287 C94.3442623,22.166334 94.4217586,22.089155 94.4023845,21.9540918 L94.3830104,21.8383234 L94.266766,21.8576181 L94.0536513,21.9733866 L94.0536513,21.9733866 Z M97.1147541,24.500998 L97.1147541,24.5974717 C97.2891207,24.578177 97.4634873,24.2694611 97.6184799,23.671324 L97.3859911,23.594145 C97.1922504,24.1151031 97.1147541,24.4045243 97.1147541,24.500998 L97.1147541,24.500998 L97.1147541,24.500998 Z M116.721311,25.176314 L116.721311,25.2727878 L116.527571,25.5043247 L116.895678,25.3692615 L116.934426,25.3692615 L116.915052,25.1570193 L116.837556,25.1570193 L116.701937,25.2727878 C116.701937,25.2149035 117.108793,25.0991351 116.798808,25.0412508 C116.740686,25.1377246 116.895678,25.1570193 116.721311,25.176314 L116.721311,25.176314 L116.721311,25.176314 Z M117.4769,25.8709248 L118,25.8323353 C117.980626,25.6972721 117.651267,25.6586826 117.535022,25.6586826 L117.457526,25.6586826 L117.4769,25.8709248 L117.4769,25.8709248 Z M108.216095,26.0638723 L108.371088,26.2568197 C108.371088,26.1989355 108.390462,26.160346 108.448584,26.160346 L108.564829,26.3725882 L108.080477,26.3147039 C108.041729,26.160346 108.099851,26.083167 108.216095,26.0638723 L108.216095,26.0638723 L108.216095,26.0638723 Z M106.627422,26.237525 C106.801788,26.2182302 106.918033,26.3339987 106.918033,26.4883566 L106.375559,26.4883566 L106.375559,26.3918829 C106.433681,26.3725882 106.530551,26.3339987 106.627422,26.237525 L106.627422,26.237525 L106.627422,26.237525 Z M107.867362,26.1796407 L107.886736,26.2954092 L107.441133,26.3339987 L107.421759,26.2182302 L107.867362,26.1796407 L107.867362,26.1796407 Z M103.372578,26.6427146 C103.372578,26.7005988 103.411326,26.7391883 103.488823,26.7391883 C104.205663,26.6041251 104.128167,26.5848303 104.4769,26.5462409 C104.593145,26.5269461 104.651267,26.6041251 104.670641,26.7391883 L102.675112,26.912841 L102.868852,27.0093147 L102.849478,26.8935462 L102.09389,26.9514305 L102.074516,26.835662 L102.752608,26.7777778 L103.372578,26.6427146 L103.372578,26.6427146 Z M105.42623,26.4690619 L105.42623,26.5655356 C105.368107,26.5655356 105.61997,26.5848303 105.503726,26.6813041 C105.077496,26.6427146 105.058122,26.6041251 104.748137,26.6234198 L104.748137,26.5269461 L105.42623,26.4690619 L105.42623,26.4690619 Z M105.929955,26.4111776 L105.929955,26.5076514 L105.561848,26.5462409 L105.561848,26.4497671 L105.929955,26.4111776 L105.929955,26.4111776 Z M93.5305514,28.3792415 L93.5499255,28.7072522 C93.4336811,28.7265469 93.3368107,28.6493679 93.2980626,28.49501 L93.2980626,28.3985363 L93.5305514,28.3792415 L93.5305514,28.3792415 Z M110.114754,28.0898204 L110.134128,28.3020625 L110.52161,28.2634731 L110.366617,28.1669993 L110.385991,28.2827678 L110.773472,28.1284098 C113.42772,27.8389887 113.737705,27.9547572 113.698957,27.6460413 L113.698957,27.5495675 C111.025335,28.1477046 110.676602,28.0319361 110.114754,28.0898204 L110.114754,28.0898204 L110.114754,28.0898204 Z M114.260805,27.7232202 L114.648286,27.8003992 L114.628912,27.588157 L114.241431,27.510978 L114.260805,27.7232202 L114.260805,27.7232202 Z M102.791356,28.4757152 C102.907601,28.5335995 102.655738,28.5914837 102.81073,28.572189 L104.166915,28.4564205 L104.186289,28.572189 C103.798808,28.6107784 103.546945,28.6686627 103.469449,28.7458417 C103.469449,28.6686627 103.4307,28.6300732 103.353204,28.6300732 L102.771982,28.6879574 L102.752608,28.572189 C102.907601,28.5528942 102.675112,28.5528942 102.791356,28.4757152 L102.791356,28.4757152 L102.791356,28.4757152 Z M109.068554,28.3213573 L109.184799,28.5335995 C109.630402,28.4371257 109.378539,28.4564205 109.494784,28.3599468 C109.494784,28.4371257 109.533532,28.4757152 109.57228,28.4757152 L109.882265,28.4564205 L109.862891,28.2248836 L109.04918,28.2055888 L109.068554,28.3213573 L109.068554,28.3213573 Z M101.396423,29.1510313 L101.318927,29.1510313 L101.299553,28.9387891 L101.377049,28.9387891 L101.396423,29.1510313 L101.396423,29.1510313 Z M95.3323398,29.8842315 L95.3517139,30 L98.9165425,29.7105788 L98.8971684,29.4983367 L96.0491803,29.7298736 L95.4485842,29.6526946 L95.3323398,29.8842315 L95.3323398,29.8842315 Z M99.3040238,29.6719894 L99.342772,29.6719894 L99.3233979,29.4597472 L99.2846498,29.4597472 L99.3040238,29.6719894 L99.3040238,29.6719894 Z" id="Shape"></path>
                        <path d="M45.2566113,10.8419029 C42.7832931,13.8212398 41.5085829,15.4550697 41.4134553,15.7818357 C40.4051024,16.8390197 39.9104388,17.4733301 39.9675154,17.6847669 C39.701158,17.8577607 39.5870049,18.0307544 39.6250559,18.2229697 C39.5489538,18.2421913 39.4918772,18.2037482 39.4728517,18.1268621 C39.0352646,18.8380586 38.4074223,19.2801538 37.5512737,19.4915906 L36.657074,19.7030274 C36.5429209,19.7222489 36.4858443,19.8183566 36.4858443,19.9721288 L36.5048698,20.087458 L36.8473293,20.0105718 L36.8663548,20.1066795 L36.1053338,20.3950024 L34.7545215,20.7025469 L34.0505771,20.7409899 C33.9554495,20.8370975 34.6023173,20.7217684 34.3549855,20.7986545 L33.4798113,21.0100913 C32.9470966,21.144642 32.6426882,21.0869774 32.6046372,20.8755406 L32.5095096,20.8947621 C32.5665861,21.1061989 32.5095096,21.2407496 32.3573054,21.2791927 L32.5285351,21.2407496 L32.452433,20.9139837 L30.8542889,21.2984142 L31.0255186,21.3753003 C31.0064931,21.2984142 30.930391,21.2791927 30.7781868,21.3176358 L30.568906,21.4906295 L30.3215742,21.4329649 C30.0932679,21.5675156 29.9410637,21.6444017 29.9030126,21.6444017 L29.6556808,21.5867371 C28.9897874,21.9711677 29.4844511,21.9711677 29.4464,21.9711677 L29.5034766,22.1826045 L29.8839871,22.0864969 L30.4737784,22.0480538 L30.4167018,22.2979337 C28.247792,22.8745795 29.8269105,22.5478136 29.2371193,22.6823642 L29.1229661,22.7015858 L29.1800427,22.9130226 L29.5225021,22.8361365 L29.5415277,22.9514656 C29.1039406,23.0475733 28.8566088,23.1436809 28.7805067,23.2397886 L28.7614811,23.1244594 C28.1907154,23.2590101 27.6199496,23.7011052 27.0491839,24.4315233 C27.1443115,24.8543969 25.9076524,25.3733782 31.729463,24.0086497 C32.1289991,23.9894282 32.3573054,23.9894282 32.4143819,23.9702066 C32.3953564,23.8933205 32.4334075,23.8548775 32.5095096,23.8356559 C33.1563774,23.7587698 32.851969,23.874099 33.251505,23.7779914 L34.5071897,23.4896684 L34.2408323,23.6434407 C34.2218068,23.5857761 34.2598579,23.547333 34.3169344,23.5281115 C34.4691386,23.5665545 34.6213428,23.547333 34.7925726,23.50889 L34.8686747,23.8356559 L29.9030126,31.7933686 L28.7995322,33.1773186 L28.2668175,35.0033638 L28.3619451,34.9841422 L28.8946598,34.7534839 L28.7234301,35.4646804 L28.7805067,35.6761173 L28.9327109,35.8683325 C28.8566088,35.8875541 28.8375832,35.9259971 28.8566088,36.0028832 L28.8756343,36.1182124 L29.1039406,36.0605478 C29.4273745,35.7722249 29.5605532,35.5031235 29.5225021,35.2724652 C29.8839871,35.3301297 30.1122934,35.3493513 30.2264466,35.3301297 L30.2454721,35.4454589 C30.0361913,35.5031235 29.9220382,35.6761173 29.9030126,35.9644402 L29.9220382,36.0797693 L30.0361913,36.0605478 C31.8436162,34.0807304 36.2385125,27.295531 39.7772601,22.6823642 C39.663107,22.1826045 41.5085829,21.4906295 45.3136879,20.6064392 L45.427841,20.5872177 C45.5610197,21.1830851 45.2756368,22.6439212 44.5526669,24.9697261 C44.0770288,26.3728976 43.867748,27.1417588 43.8867735,27.2570879 C43.2779567,29.1215762 42.9925738,30.1210956 43.0306249,30.2748679 L41.6798126,34.7342624 C40.8046385,37.0216242 40.1387451,39.4243152 39.6821325,41.9615569 C39.7582346,41.9423354 39.8914133,41.9615569 40.0436175,42 L40.2338727,41.8270062 C40.2528982,41.9038924 40.2909493,41.9231139 40.3860769,41.9231139 L40.3099748,41.5963479 L40.8997661,41.5771264 C41.0709958,41.5386833 41.2232,41.308025 41.3373532,40.9043729 C41.3183276,40.3085055 41.4324808,39.9817395 41.6988381,39.9048534 C42.0603231,38.4824604 42.2886294,37.7520423 42.3647315,37.7328208 C42.707191,36.3104277 42.9545228,35.5031235 43.1257525,35.2916867 C43.6394417,33.44642 44.0009267,32.4853436 44.2482585,32.427679 L44.3053351,32.6583373 L43.9438501,33.6386353 C43.2969822,36.541086 42.6310889,38.8476694 41.9651955,40.5391639 L42.1554507,41.3849111 L42.2696039,41.3656896 C43.8867735,37.8673715 46.188862,30.9476213 49.2139205,20.6064392 C49.3090481,19.7030274 49.7276097,18.9918309 50.5076562,18.4920711 L50.3364265,18.3190774 L50.317401,18.2229697 C50.6598604,18.1460836 50.9071922,18.0115329 51.0403709,17.8193176 C51.0213454,17.7424315 50.716937,17.6271024 50.1271457,17.4733301 L51.9155451,9.74627583 C52.4482598,7.43969246 52.8097447,5.421432 53,3.65305142 L52.9809745,3.53772225 C52.6194895,3.30706391 52.2580045,2.98029793 51.9345706,2.55742432 L51.9345706,2.09610764 L51.9155451,2 L51.8204174,2.01922153 C50.716937,3.710716 48.5099761,6.6516098 45.2566113,10.8419029 L45.2566113,10.8419029 L45.2566113,10.8419029 Z M47.7870061,12.591062 C47.8821338,12.9947141 47.7299296,13.7443537 47.3494191,14.8399808 C47.2352659,16.2239308 46.7406023,17.0120135 45.8844536,17.2234503 L45.8654281,17.1081211 L45.1044071,17.396444 L44.7619477,17.4733301 C44.5907179,17.5117732 44.4385137,17.5117732 44.2863095,17.4541086 L44.2102074,17.1465642 C44.1911819,17.031235 45.2756368,15.4935127 47.5206488,12.5526189 L47.7870061,12.591062 L47.7870061,12.591062 Z M46.0366578,17.396444 L46.2839897,17.3387794 L46.3410662,17.5502162 C45.1424582,17.9154253 44.4765648,18.1076406 44.3433861,18.1460836 C44.267284,18.1653051 44.1531309,18.2229697 44.0199522,18.3382989 C44.0009267,18.2614128 43.8487225,18.2614128 43.5443141,18.3190774 C43.4872375,18.1076406 44.3243606,17.8000961 46.0366578,17.396444 L46.0366578,17.396444 L46.0366578,17.396444 Z M34.2218068,20.6256607 L34.4881642,20.5679962 L34.4310876,20.3373378 L34.1647302,20.3950024 L34.2218068,20.6256607 L34.2218068,20.6256607 Z M37.7034779,19.7030274 L37.7605545,19.9144642 L37.1897887,19.9529073 L37.1707632,19.8375781 L37.7034779,19.7030274 L37.7034779,19.7030274 Z M31.0445441,21.9135031 L31.0635697,22.0288323 L30.7020847,22.1057184 L30.6830592,21.9903892 L31.0445441,21.9135031 L31.0445441,21.9135031 Z M30.3786508,23.3166747 L30.3976763,23.4127823 L29.9600892,23.50889 L29.9030126,23.2974531 L30.3786508,23.3166747 L30.3786508,23.3166747 Z M31.4250546,23.0860163 L31.4440802,23.182124 L30.6450081,23.3743393 L30.6259826,23.2782316 L31.4250546,23.0860163 L31.4250546,23.0860163 Z M32.813918,22.855358 L32.8329435,22.9706872 L30.7401357,23.4512254 L30.6830592,23.2397886 C31.9006928,23.0283518 31.7675141,23.1052379 32.813918,22.855358 L32.813918,22.855358 L32.813918,22.855358 Z M43.2969822,20.3950024 L43.468212,20.5872177 C43.2208801,20.6448823 43.0306249,20.7217684 42.9354973,20.817876 L42.6881654,20.779433 C42.3076549,20.9332052 41.9651955,21.0485344 41.6988381,21.1061989 L41.4705318,21.1638635 C41.3373532,21.2023066 41.2422255,21.144642 41.185149,21.0100913 L42.7642675,20.6448823 L43.2969822,20.3950024 L43.2969822,20.3950024 Z M44.4194882,20.1451225 L45.5419942,19.8760211 L45.5610197,19.9913503 C44.9522029,20.125901 44.4765648,20.2796732 44.1341053,20.452667 L44.1150798,20.3373378 C44.2102074,20.3181163 44.3053351,20.2412302 44.4194882,20.1451225 L44.4194882,20.1451225 L44.4194882,20.1451225 Z M32.6236627,23.3743393 L33.1563774,23.2590101 L33.213454,23.4704469 C32.9851477,23.5281115 33.1563774,23.5281115 32.8709945,23.6626622 C32.3192543,23.7203268 32.4334075,23.6434407 31.5582333,23.8548775 L31.5392078,23.7395483 L32.6236627,23.3743393 L32.6236627,23.3743393 Z M34.0696026,23.1244594 C34.2218068,23.0860163 34.3169344,23.1436809 34.33596,23.2974531 L34.012526,23.3743393 C33.8793474,23.4127823 33.7842197,23.3551177 33.7271432,23.2013455 L34.0696026,23.1244594 L34.0696026,23.1244594 Z M28.1146133,35.2724652 L28.1336388,35.3877943 C28.285843,35.3493513 28.3429196,35.2724652 28.3048685,35.1186929 L28.285843,35.0033638 C28.1526643,35.0418068 28.0955878,35.1186929 28.1146133,35.2724652 L28.1146133,35.2724652 L28.1146133,35.2724652 Z M28.5712259,37.194618 C28.6092769,37.3291687 28.685379,37.3868333 28.8375832,37.3483902 C28.9897874,37.3099471 29.046864,37.233061 29.008813,37.0792888 L28.9897874,36.9639596 L28.7614811,37.0216242 L28.5712259,37.194618 L28.5712259,37.194618 Z M40.7095108,40.5007208 C40.861715,40.4622778 40.9378171,40.5199423 40.9758682,40.654493 L40.9948937,40.7698222 L40.5573066,40.8659298 C40.5953577,40.7121576 40.5953577,40.5968284 40.5763322,40.5199423 L40.7095108,40.5007208 L40.7095108,40.5007208 Z" id="Shape"></path>
                        <path d="M58.0614096,5.35307648 C57.0816469,6.05520414 55.969993,6.77630822 54.726448,7.47843588 L54.7452896,7.68717654 C54.820656,7.68717654 54.9337055,7.63024727 55.0844382,7.53536515 C55.235171,7.51638873 55.3105373,7.59229442 55.3293789,7.72512938 L55.5366364,7.61127085 L55.6308444,7.61127085 L55.6308444,7.70615296 C55.649686,7.8200115 54.8583391,8.42725704 53.3133287,9.52788959 L53.4263782,9.75560667 L53.3321703,9.75560667 L53.0872296,9.66072455 C53.0872296,9.73663025 52.9930216,9.79355952 52.7669225,9.81253594 L52.7669225,9.90741806 L53.0118632,10.2110408 C52.9364969,10.2110408 52.8046057,10.1920644 52.653873,10.1161587 C52.14515,10.1541116 51.6552687,10.53364 51.1653873,11.2167913 L51.2784368,11.4255319 C51.7117934,11.027027 51.9567341,10.8182864 52.0321005,10.8182864 L52.0509421,11.1408856 C51.9755757,11.1408856 51.8625262,11.1978148 51.7117934,11.292697 L51.9944173,11.6912018 C52.5031403,11.1219091 53.068388,10.6474986 53.6713189,10.2489937 C53.9727844,10.3438758 54.1423587,10.4387579 54.1423587,10.53364 L54.3684578,10.5146636 C56.064201,9.26221967 57.722261,8.37032777 59.3614794,7.8200115 L59.380321,8.02875216 C59.0788555,8.48418631 58.871598,8.71190339 58.7585485,8.73087982 C58.7773901,8.8826912 58.8150733,9.01552616 58.8904396,9.14836113 C58.9092812,9.43300748 58.1744592,11.3306498 56.6671319,14.8412881 C53.2191207,22.9821737 50.3363573,29.0166763 48,32.9258194 C48,33.0017251 48.0565248,33.1155837 48.1507327,33.2484186 C48.7348221,33.1155837 49.0928123,32.9637723 49.243545,32.8309373 L49.337753,32.8309373 L49.3565946,33.039678 L49.6015352,33.0207016 L49.8087927,32.906843 C49.8087927,32.9637723 49.8841591,33.0017251 50.0348918,32.9827487 L50.0537334,33.2104658 C50.072575,33.4192064 49.9406839,33.7418056 49.6957432,34.1972398 C49.4508025,34.4629097 49.1870202,35.0322024 48.923238,35.8861415 L48.9420796,36 L49.1681786,35.9810236 C50.1102582,34.9183439 50.8073971,33.893617 51.2972784,32.8688902 C54.0293091,32.052904 56.1018842,31.2748706 57.5526867,30.4968373 C59.0223308,30.3640023 60.1151431,29.9844738 60.8688067,29.3582519 L60.8499651,29.2443933 L60.2847174,29.4151811 L60.1716678,29.4341576 L60.1528262,29.320299 C61.2267969,29.1684876 61.961619,28.9217941 62.3572924,28.5991949 C64.4298674,26.986199 65.9937195,25.8476136 67.0676902,25.1834388 C70.346127,22.7544566 71.8911375,20.4393329 71.7027216,18.200115 C71.68388,17.9723979 70.9678995,17.0615296 69.5359386,15.4675101 C69.517097,15.1638873 70.0069784,14.7274296 71.0055827,14.1581369 L73.8695045,11.653249 C74.5101186,10.8372628 74.8869505,9.50891317 75,7.66820012 L74.9623168,7.2507188 C74.8492673,5.97929845 73.9260293,4.95457159 72.1926029,4.15756182 C71.1563154,3.45543416 69.3098395,3.07590569 66.6531752,3 C64.5052338,3.15181139 61.6224703,3.94882116 58.0614096,5.35307648 L58.0614096,5.35307648 L58.0614096,5.35307648 Z M73.3984648,5.50488787 L73.2854152,5.73260495 L70.1200279,4.3852789 C72.2491277,4.48016101 73.34194,4.84071305 73.3984648,5.50488787 L73.3984648,5.50488787 L73.3984648,5.50488787 Z M60.5484997,14.3858539 C60.7745987,13.1903393 61.0195394,12.5261645 61.2833217,12.3743531 L63.6762038,6.98504888 C63.6573622,6.66244968 64.1472435,6.39677976 65.1835311,6.20701553 L65.5226797,6.16906268 L65.5415213,6.49166187 C66.5589672,6.32087407 67.1807397,6.22599195 67.444522,6.20701553 C69.3286811,6.03622772 70.3084438,6.4347326 70.3838102,7.34560092 L70.6099093,7.3266245 L70.5722261,6.81426107 L70.7983252,6.79528465 C71.3447313,7.09890742 71.6273552,7.45945946 71.6650384,7.89591719 C71.68388,8.19953997 71.5331472,8.57906843 71.2128402,9.03450259 C71.0621075,9.05347901 70.9867411,8.93962047 70.9678995,8.73087982 L70.7418004,8.74985624 L70.6664341,9.39505463 C69.7055129,10.8562392 69.0272156,11.5963197 68.593859,11.6342726 C68.2170272,12.1656124 67.9720865,12.4312823 67.859037,12.4312823 C67.5575715,12.7918344 66.7473831,13.4180564 65.4096301,14.2719954 C64.957432,14.3099482 63.3182135,14.9551466 60.4731333,16.2075906 C60.3412421,16.1506613 60.1716678,16.1316849 60.0209351,16.1506613 L60.0020935,15.9419206 C59.9644103,15.5434158 60.1528262,15.0310523 60.5484997,14.3858539 L60.5484997,14.3858539 L60.5484997,14.3858539 Z M73.6999302,7.74410581 L73.7187718,7.97182289 C73.6057223,7.97182289 73.3984648,7.63024727 73.0593161,6.94709603 L73.0404745,6.73835538 C73.247732,6.71937895 73.4738311,7.06095457 73.6999302,7.74410581 L73.6999302,7.74410581 L73.6999302,7.74410581 Z M52.8234473,10.3248994 L52.8422889,10.4387579 C52.7669225,10.4387579 52.653873,10.4956872 52.5031403,10.5715929 L52.4089323,10.5715929 L52.3900907,10.3628522 L52.8234473,10.3248994 L52.8234473,10.3248994 Z M59.7383112,10.1541116 L59.7571528,10.4767108 C59.6441033,10.4767108 59.5122121,10.6474986 59.3426378,10.9321449 L59.3237962,10.7234043 C59.5122121,10.4767108 59.6064201,10.2869465 59.6064201,10.1541116 L59.7383112,10.1541116 L59.7383112,10.1541116 Z M58.6643405,12.3933295 L58.7020237,12.8108108 L58.5889742,12.8297872 L58.551291,12.4123059 L58.6643405,12.3933295 L58.6643405,12.3933295 Z M58.4005583,13.1713629 C58.3817167,13.5319149 58.2875087,13.7216791 58.1179344,13.7406555 L58.0048849,13.759632 C58.136776,13.5129385 58.1933008,13.3231742 58.1744592,13.1903393 L58.4005583,13.1713629 L58.4005583,13.1713629 Z M57.9106769,14.2909718 L57.9295185,14.4048304 L57.7411026,14.746406 L57.5150035,14.7653824 L57.4961619,14.6515239 C57.722261,14.6325474 57.8353105,14.5186889 57.8164689,14.2909718 L57.9106769,14.2909718 L57.9106769,14.2909718 Z M57.4396371,15.2967223 L57.3642708,15.8470385 L57.2700628,15.8470385 L57.2323796,15.2967223 L57.4396371,15.2967223 L57.4396371,15.2967223 Z M69.0460572,15.6952271 L69.517097,15.9798735 C69.5359386,16.1127085 69.4605722,16.2075906 69.3098395,16.2075906 C69.102582,16.0747556 68.9518493,16.0178263 68.8387997,16.0368028 L68.8387997,15.7142036 L69.0460572,15.6952271 L69.0460572,15.6952271 Z M59.9644103,16.9097182 L59.9832519,17.1184589 L59.5310537,17.1564117 L59.5122121,16.9476711 L59.9644103,16.9097182 L59.9644103,16.9097182 Z M67.2937893,17.6877516 C67.6140963,17.839563 67.764829,17.9723979 67.7836706,18.0862565 L67.7836706,18.1811386 C67.4822052,18.200115 67.1995813,18.0483036 66.935799,17.706728 L67.2937893,17.6877516 L67.2937893,17.6877516 Z M57.8541521,20.0218516 C59.1353803,19.9079931 61.1514306,19.3007476 63.9211445,18.200115 L64.6182833,18.1431857 C66.0125611,18.0293272 67.0488486,18.2949971 67.7459874,18.9591719 L67.7836706,19.3766532 C67.2749477,20.8568143 66.7096999,21.7297297 66.0879274,21.9953997 L63.2428472,24.3105233 C61.1137474,25.7147786 59.9644103,26.4169063 59.7759944,26.4358827 C56.384508,28.3145486 54.2742498,29.2823462 53.4452198,29.3582519 L53.3321703,29.3772283 C53.4075366,28.9787234 54.9148639,25.86659 57.8541521,20.0218516 L57.8541521,20.0218516 L57.8541521,20.0218516 Z M60.9253315,18.7883841 L60.9441731,18.9022427 L60.4919749,18.9401955 L60.4731333,18.826337 L60.9253315,18.7883841 L60.9253315,18.7883841 Z M71.1939986,18.3139735 L71.269365,19.186889 C71.1563154,19.3956297 71.0621075,19.5094882 70.9490579,19.5284646 L70.8171668,18.0483036 C71.0621075,18.1242093 71.1939986,18.2190914 71.1939986,18.3139735 L71.1939986,18.3139735 L71.1939986,18.3139735 Z M53.80321,25.7527315 C53.6524773,26.4738355 53.5017446,26.853364 53.3510119,26.853364 L53.3510119,26.7584819 C53.2944871,26.4169063 53.4452198,26.0753306 53.80321,25.7527315 L53.80321,25.7527315 L53.80321,25.7527315 Z M56.6482903,29.813686 C57.4773203,29.6618746 59.7571528,28.46636 63.4877879,26.2081656 L63.5066294,26.4169063 C63.5066294,26.5117884 63.205164,26.7964347 62.5457083,27.2518689 C60.6615492,28.2006901 59.5310537,28.826912 59.1919051,29.1495112 C57.1381717,29.8706153 56.1207258,30.3260495 56.1395673,30.4968373 C54.311933,31.2179413 53.1249128,31.7492812 52.5408234,32.0908568 C52.4089323,32.1098332 52.2016748,32.052904 51.9567341,31.920069 C51.9190509,31.5405405 52.0886253,31.2558942 52.4466155,31.0281771 C52.7669225,31.0092007 53.068388,31.0471535 53.3510119,31.1610121 C53.6901605,30.9902243 54.2742498,30.80046 55.1221214,30.572743 L55.1032798,30.3640023 L54.406141,30.4209316 C54.4815073,30.2880966 55.140963,29.9844738 56.3656664,29.4910868 L56.7048151,29.453134 L56.7048151,29.5480161 C56.1207258,29.6049454 55.8004187,29.7757332 55.7250523,30.079356 C55.7438939,30.2121909 55.8192603,30.2880966 55.969993,30.2691202 C56.4410328,30.0414031 56.6482903,29.8706153 56.6482903,29.813686 L56.6482903,29.813686 L56.6482903,29.813686 Z M53.1249128,27.213916 L53.1249128,27.3087982 C53.1437544,27.4606095 53.068388,27.5554917 52.9176553,27.5554917 L52.8988137,27.4416331 C52.8988137,27.346751 52.97418,27.2518689 53.1249128,27.213916 L53.1249128,27.213916 L53.1249128,27.213916 Z M58.4759246,28.6940771 C58.2121424,28.7130535 57.7034194,28.9407706 56.9497558,29.3582519 L56.8367062,29.3772283 L56.8178646,29.1684876 C57.3642708,29.1115584 57.8541521,28.9028177 58.2309839,28.5232892 C58.3817167,28.5043128 58.457083,28.5612421 58.4759246,28.6940771 L58.4759246,28.6940771 L58.4759246,28.6940771 Z M52.9364969,30.2501438 L53.2756455,30.2121909 L53.2944871,30.3260495 C53.2191207,30.3260495 53.1060712,30.3829787 52.9553385,30.4588844 L52.7292394,30.4778608 C52.7103978,30.3640023 52.7857641,30.2880966 52.9364969,30.2501438 L52.9364969,30.2501438 L52.9364969,30.2501438 Z M50.6566643,31.5215641 L50.8827634,31.6164462 C50.8073971,32.280621 50.6001396,32.6221967 50.2986741,32.6411731 C50.0348918,32.5273145 49.8087927,32.4703853 49.6015352,32.4893617 L49.5826936,32.1667625 C49.5638521,32.052904 49.6392184,31.9769983 49.7899512,31.9390454 C49.9406839,31.920069 50.0160502,32.0339275 50.0348918,32.2426682 C50.4117237,31.7682576 50.6189812,31.5215641 50.6566643,31.5215641 L50.6566643,31.5215641 L50.6566643,31.5215641 Z" id="Shape"></path>
                        <path d="M13.3425239,4.14971628 C12.0445387,5.10999564 10.5556734,6.0510694 8.89501591,6.97293758 L8.91410392,7.26102139 C9.02863203,7.26102139 9.16224814,7.18419904 9.35312831,7.0881711 C9.54400848,7.06896552 9.65853659,7.14578787 9.65853659,7.33784374 L9.96394486,7.16499345 L10.116649,7.14578787 L10.135737,7.28022698 C10.154825,7.41466608 9.10498409,8.24050633 7.02439024,9.71933653 L7.1961824,9.98821475 L7.04347826,10.0074203 L6.71898197,9.89218682 C6.71898197,9.98821475 6.58536585,10.0458315 6.27995758,10.0650371 L6.2990456,10.2186818 L6.6426299,10.6027935 C6.5281018,10.6027935 6.37539767,10.583588 6.1845175,10.5067656 C5.5164369,10.5643824 4.84835631,11.0637276 4.19936373,11.9855958 L4.37115589,12.254474 C4.94379639,11.7359232 5.26829268,11.467045 5.36373277,11.467045 L5.4019088,11.8895679 C5.30646872,11.8895679 5.15376458,11.9663902 4.96288441,12.0624182 L5.32555673,12.6001746 C6.01272534,11.8511567 6.75715801,11.2173723 7.59703075,10.6988215 C8.01696713,10.814055 8.22693531,10.9292885 8.22693531,11.0829332 L8.53234358,11.0637276 C10.7656416,9.39284155 12.9798515,8.20209515 15.1749735,7.45307726 L15.1940615,7.74116107 C14.7932131,8.35573985 14.5068929,8.66302924 14.3541888,8.68223483 C14.3732768,8.89349629 14.4496288,9.06634657 14.5641569,9.23919686 C14.602333,9.6233086 13.6097561,12.1392405 11.5864263,16.8254038 C6.96712619,27.695766 3.11134677,35.7237014 0,40.9476211 C0,41.0436491 0.0763520679,41.1972938 0.171792153,41.370144 C0.935312831,41.1780882 1.43160127,41.0052379 1.64156946,40.813182 L1.81336161,40.7939764 L1.83244963,41.0820602 L2.11876988,41.0628546 L2.42417815,40.8900044 C2.42417815,40.9860323 2.53870626,41.0244435 2.72958643,41.0052379 L2.74867444,41.2933217 C2.76776246,41.5814055 2.61505832,42.023134 2.252386,42.6185072 C1.92788971,42.9834134 1.60339343,43.7324313 1.2407211,44.8655609 L1.25980912,45 L1.54612937,44.9807944 C2.78685048,43.5787866 3.74125133,42.1959843 4.3902439,40.8515932 C8.03605514,39.7760803 10.8038176,38.719773 12.7317073,37.6826713 C14.659597,37.509821 16.1484624,37.0104758 17.1410392,36.1654299 L17.1219512,36.0117852 L16.3966066,36.2230467 L16.2248144,36.2422523 L16.2057264,36.0886076 C17.6182397,35.8773461 18.6108165,35.5508512 19.145281,35.1283282 C21.9130435,32.9773025 23.9936373,31.4600611 25.4061506,30.5573985 C29.7773065,27.3308599 31.8388123,24.2195548 31.5906681,21.2618944 C31.5715801,20.954605 30.5980912,19.744653 28.7083775,17.6320384 C28.6702015,17.2287211 29.3382821,16.6525535 30.6744433,15.88433 L34.4729586,12.5233522 C35.3128314,11.4286338 35.8282078,9.66171977 36,7.22261021 L35.9427359,6.6464426 C35.7900318,4.93714535 34.5683987,3.55434308 32.2396607,2.49803579 C30.8653234,1.55696203 28.4029692,1.05761676 24.8525981,1 C21.9321315,1.26887822 18.0763521,2.30597992 13.3425239,4.14971628 L13.3425239,4.14971628 L13.3425239,4.14971628 Z M33.804878,4.39938891 L33.6903499,4.68747272 L29.4528102,2.90135312 C32.2778367,3.01658664 33.728526,3.51593191 33.804878,4.39938891 L33.804878,4.39938891 L33.804878,4.39938891 Z M16.6638388,16.2300306 C16.9501591,14.6551724 17.2746554,13.7525098 17.6373277,13.5412484 L20.8059385,6.37756438 C20.7677625,5.93583588 21.4358431,5.59013531 22.8292683,5.35966827 L23.2873807,5.32125709 L23.3255567,5.72457442 C24.699894,5.51331296 25.5397667,5.39807944 25.864263,5.35966827 C28.3838812,5.14840681 29.6818664,5.64775207 29.7963945,6.89611523 L30.0827147,6.87690965 L30.0254507,6.14709734 L30.330859,6.12789175 C31.0752916,6.53120908 31.47614,7.03055434 31.514316,7.62592754 C31.552492,8.02924487 31.3425239,8.52859014 30.8653234,9.12396333 C30.6744433,9.14316892 30.5599152,9.00872981 30.5408271,8.72064601 L30.2354189,8.73985159 L30.1590668,9.60410301 C28.8801697,11.5246617 27.9639449,12.5041467 27.3913043,12.5617634 C26.8759279,13.2723701 26.5514316,13.6372763 26.4178155,13.6564819 C26.0169671,14.1366216 24.9289502,14.9624618 23.1346766,16.114797 C22.542948,16.1724138 20.3478261,17.0174596 16.5493107,18.6883457 C16.3584305,18.5923178 16.1675504,18.5731122 15.9384942,18.5923178 L15.9194062,18.3234395 C15.8812301,17.7664775 16.1102863,17.0750764 16.6638388,16.2300306 L16.6638388,16.2300306 L16.6638388,16.2300306 Z M34.2057264,7.3954605 L34.2248144,7.66433872 C34.0721103,7.6835443 33.78579,7.22261021 33.3658537,6.30074203 L33.3467656,6.03186381 C33.6139979,5.99345264 33.9003181,6.45438673 34.2057264,7.3954605 L34.2057264,7.3954605 L34.2057264,7.3954605 Z M6.33722163,10.814055 L6.35630965,10.9484941 C6.26086957,10.9484941 6.10816543,11.0253165 5.91728526,11.1213444 L5.76458112,11.14055 L5.74549311,10.8716718 L6.33722163,10.814055 L6.33722163,10.814055 Z M15.5567338,10.583588 L15.5949099,11.0061109 C15.4612937,11.0253165 15.2704136,11.2173723 15.0413574,11.6206897 L15.0222694,11.3326058 C15.2895016,11.0061109 15.4231177,10.7564382 15.4231177,10.583588 L15.5567338,10.583588 L15.5567338,10.583588 Z M14.1442206,13.5796595 L14.2014846,14.1558271 L14.0487805,14.1750327 L13.9915164,13.5988651 L14.1442206,13.5796595 L14.1442206,13.5796595 Z M13.7815483,14.6167612 C13.7433722,15.0969009 13.6288441,15.3465735 13.3806999,15.3657791 L13.2279958,15.3849847 C13.3997879,15.0584897 13.495228,14.8280227 13.47614,14.6551724 L13.7815483,14.6167612 L13.7815483,14.6167612 Z M13.1516437,16.114797 L13.1707317,16.2492361 L12.9034995,16.7101702 L12.6171792,16.7293758 L12.5980912,16.5949367 C12.8844115,16.5757311 13.0180276,16.4220864 12.9989396,16.1340026 L13.1516437,16.114797 L13.1516437,16.114797 Z M12.5026511,17.4591881 L12.426299,18.1697948 L12.2735949,18.1890004 L12.2163309,17.4783937 L12.5026511,17.4591881 L12.5026511,17.4591881 Z M27.9830329,17.977739 L28.6129374,18.3618507 C28.6320255,18.5539066 28.5365854,18.6691401 28.3457052,18.6883457 C28.078473,18.5154954 27.8685048,18.4386731 27.7158006,18.4386731 L27.6776246,18.0161502 L27.9830329,17.977739 L27.9830329,17.977739 Z M15.8621421,19.6102139 L15.8812301,19.8790921 L15.2895016,19.9367089 L15.2704136,19.6678306 L15.8621421,19.6102139 L15.8621421,19.6102139 Z M25.6352068,20.6089044 C26.0551432,20.8009603 26.2651113,20.9930162 26.2841994,21.1466608 L26.3032874,21.2811 C25.902439,21.3195111 25.5397667,21.1082497 25.1961824,20.6473156 L25.6352068,20.6089044 L25.6352068,20.6089044 Z M13.0371156,23.7202095 C14.7550371,23.5665648 17.4655355,22.7599302 21.1495228,21.3003055 L22.0466596,21.2234832 C23.9172853,21.0698385 25.3107105,21.4155391 26.2269353,22.2989961 L26.2841994,22.8751637 C25.5970308,24.8725447 24.8335101,26.02488 24.0127253,26.3897861 L20.195122,29.4434745 C17.3510074,31.325622 15.8239661,32.2666958 15.5949099,32.2859014 C11.0710498,34.8018333 8.24602333,36.0886076 7.15800636,36.1846355 L6.98621421,36.2038411 C7.13891835,35.6660847 9.14316013,31.5176779 13.0371156,23.7202095 L13.0371156,23.7202095 L13.0371156,23.7202095 Z M17.1601273,22.0877346 L17.1792153,22.2221737 L16.5683987,22.2797905 L16.5493107,22.1453514 L17.1601273,22.0877346 L17.1601273,22.0877346 Z M30.8653234,21.4731558 L30.9607635,22.6062855 C30.8271474,22.9135749 30.6935313,23.0672196 30.5408271,23.0672196 L30.369035,21.0698385 C30.6935313,21.2042776 30.8462354,21.3387167 30.8653234,21.4731558 L30.8653234,21.4731558 L30.8653234,21.4731558 Z M7.63520679,31.3832388 C7.44432662,32.3627237 7.23435843,32.862069 7.02439024,32.8812746 L7.00530223,32.7468354 C6.96712619,32.2474902 7.17709438,31.8057617 7.63520679,31.3832388 L7.63520679,31.3832388 L7.63520679,31.3832388 Z M11.4528102,36.7992143 C12.5599152,36.5879529 15.5949099,34.9746835 20.5768823,31.9978175 L20.5959703,32.2666958 C20.6150583,32.3819293 20.1760339,32.7468354 19.3170732,33.3806198 C16.7783669,34.628983 15.2895016,35.4932344 14.8504772,35.9349629 C12.1018028,36.8952423 10.7465536,37.4906155 10.7656416,37.7210825 C8.3223754,38.7005674 6.71898197,39.4111742 5.95546129,39.8529027 C5.78366914,39.8721082 5.5164369,39.7952859 5.1728526,39.6416412 C5.13467656,39.1422959 5.34464475,38.7389786 5.84093319,38.4124836 C6.26086957,38.3740725 6.68080594,38.4316892 7.06256628,38.6045395 C7.52067869,38.3740725 8.30328738,38.1051942 9.42948038,37.836316 L9.41039236,37.5482322 L8.51325557,37.6250546 C8.62778367,37.4714099 9.48674443,37.0680925 11.1283139,36.395897 L11.5864263,36.3574858 L11.6055143,36.4919249 C10.8419936,36.5495417 10.4029692,36.7992143 10.3075292,37.2025316 C10.3266172,37.3753819 10.4220573,37.4714099 10.6129374,37.4522043 C11.1664899,37.0680925 11.4528102,36.8568311 11.4528102,36.7992143 L11.4528102,36.7992143 L11.4528102,36.7992143 Z M6.75715801,33.3230031 L6.77624602,33.4574422 C6.79533404,33.649498 6.69989396,33.7647316 6.50901379,33.7839371 L6.48992577,33.649498 C6.47083775,33.4766478 6.56627784,33.3614142 6.75715801,33.3230031 L6.75715801,33.3230031 L6.75715801,33.3230031 Z M13.8960764,35.2819729 C13.533404,35.3203841 12.8653234,35.6084679 11.8536585,36.1846355 L11.7009544,36.2038411 L11.6818664,35.9157573 C12.407211,35.8581405 13.0371156,35.5700567 13.552492,35.0515059 C13.7624602,35.0130947 13.8769883,35.1091227 13.8960764,35.2819729 L13.8960764,35.2819729 L13.8960764,35.2819729 Z M6.48992577,37.3561763 L6.94803818,37.3177652 L6.96712619,37.4714099 C6.85259809,37.4714099 6.71898197,37.5482322 6.5281018,37.6442601 L6.24178155,37.6634657 C6.22269353,37.5290266 6.2990456,37.4137931 6.48992577,37.3561763 L6.48992577,37.3561763 L6.48992577,37.3561763 Z M3.45493107,39.0654736 L3.77942736,39.1999127 C3.66489926,40.0641641 3.41675504,40.5058926 2.97773065,40.5443038 C2.63414634,40.3906591 2.32873807,40.3330423 2.04241782,40.3522479 L2.00424178,39.929725 C1.98515376,39.7568747 2.08059385,39.6608468 2.29056204,39.60323 C2.48144221,39.5840244 2.59597031,39.7184636 2.61505832,40.0065474 C3.13043478,39.372763 3.41675504,39.0654736 3.45493107,39.0654736 L3.45493107,39.0654736 L3.45493107,39.0654736 Z" id="Shape"></path>
                        <path d="M89.7188841,1.57272243 L89.4678112,1.47682472 L85.3540773,2.1097496 C85.1995708,2.03303143 85.0064378,1.99467235 84.7939914,2.01385189 C84.5622318,2.03303143 84.2145923,2.1097496 83.693133,2.24400639 L81.7038627,3.06872669 L81.8583691,3.31806074 C81.9549356,3.31806074 82.0901288,3.26052211 82.2639485,3.1646244 L82.9592275,3.22216303 L82.8626609,3.87426745 C82.2253219,4.16196058 81.8390558,4.5839105 81.7424893,5.14011721 C80.776824,5.56206713 80.2939914,5.8689398 80.2939914,6.06073522 L80.3133047,6.17581247 L80.4678112,6.15663292 L80.7381974,6.02237613 L81.0472103,6.38678743 L81.0858369,6.88545551 C81.1051502,7.03889185 79.4635193,10.4720298 76.1802575,17.1656899 C73.3412017,23.610016 71.8540773,27.1390517 71.6995708,27.7719766 C70.7339056,28.0404901 70.1545064,28.4432605 70,28.9611082 C70.0193133,29.133724 70.3090129,29.2296217 70.8690987,29.2871604 L70.888412,29.5364944 L70.6373391,29.9584443 L70.6759657,30.4571124 C70.695279,30.725626 71.4098712,30.9174214 72.8004292,31.0708578 C72.8004292,30.97496 72.8390558,30.936601 72.9356223,30.9174214 C72.9549356,31.2242941 72.8776824,31.8380394 72.6652361,32.7586574 L72.8197425,32.7394779 C73.3991416,31.9531167 73.6695279,31.4160895 73.6502146,31.1092168 L73.7660944,31.0900373 C73.9012876,31.0708578 74.055794,31.2434736 74.2296137,31.5887054 C74.055794,31.6654235 73.4377682,33.0463506 72.3948498,35.750666 L72.5493562,36 L72.7038627,35.9808205 C73.9978541,32.7394779 74.8090129,30.936601 75.1373391,30.5913692 C76.8369099,30.4379329 79.7532189,30.1502397 83.9248927,29.7091103 L84.1759657,29.5556739 C84.1759657,29.6515717 84.2339056,29.6899307 84.3304721,29.6707512 L84.6008584,29.6515717 L84.8519313,29.4981353 C84.8519313,29.594033 84.9098712,29.6323921 85.0064378,29.6132126 L88.1545064,29.344699 C88.9849785,29.2679808 89.3905579,29.0186468 89.3519313,28.5966969 C89.332618,28.4816196 89.8347639,28.3473628 90.8390558,28.213106 C90.9356223,28.213106 91.0708155,28.2322856 91.2639485,28.2898242 C91.2639485,28.213106 91.7467811,28.1363879 92.751073,28.0404901 C92.7703863,27.5226425 92.944206,27.2349494 93.2532189,27.2157698 L93.2339056,26.9664358 C92.9635193,26.9856153 92.6351931,27.0623335 92.2682403,27.1774108 C91.611588,27.1390517 91.1866953,27.1006926 91.0128755,27.0239744 C90.8390558,27.1198721 90.7038627,27.1774108 90.6072961,27.1774108 L88.4055794,27.2541289 L88.1351931,27.3883857 C88.1351931,27.3116676 88.0772532,27.2733085 87.9806867,27.292488 L87.8648069,27.3116676 L87.5751073,27.4459243 C87.5751073,27.3692062 87.3433476,27.3116676 86.8798283,27.2541289 L86.6094421,27.4075653 L86.0686695,27.4459243 L86.0493562,27.3116676 C88.8690987,27.0047949 90.27897,26.621204 90.2403433,26.160895 C90.4141631,26.1417155 90.5107296,26.2376132 90.5300429,26.4102291 L91.360515,26.1992541 L91.3412017,25.9499201 L84.5815451,26.1417155 C84.5815451,26.2376132 84.5429185,26.2759723 84.4463519,26.2951518 L83.6158798,26.2184337 C83.4034335,26.2376132 83.2296137,26.2951518 83.0944206,26.4102291 L82.7854077,26.2951518 C81.9356223,26.37187 81.2982833,26.4677677 80.8733906,26.6020245 C80.2939914,26.5636654 79.6566524,26.5636654 78.9420601,26.621204 L77.416309,26.7554608 L76.72103,26.6787427 C76.6824034,26.2376132 77.5515021,24.0511454 79.3476395,20.1193394 C79.8690987,18.795951 80.3519313,17.9712307 80.7961373,17.664358 C80.8927039,17.664358 81.027897,17.6835376 81.22103,17.7602557 L82.3025751,17.3958444 L82.8626609,17.4917421 C83.7896996,17.415024 84.8712446,17.1465104 86.1072961,16.7053809 C86.416309,16.6862014 86.6480687,16.7053809 86.8025751,16.7629196 L87.6330472,16.5711241 L90.0858369,16.3601492 C91.1287554,16.2642515 92.2682403,16.034097 93.4849785,15.6696857 L93.4656652,15.4203516 C93.0021459,15.4587107 92.7703863,15.3819925 92.751073,15.2093767 C92.7124464,14.8641449 92.3841202,14.7298881 91.7467811,14.7874267 L91.7274678,14.5380927 L92.4034335,14.3462973 L94.1802575,14.1928609 L94.1609442,13.9435269 C94.083691,13.9435269 93.7360515,13.9435269 93.0600858,13.9243474 L93.0407725,13.6558338 L93.7360515,13.5982952 C93.9098712,13.5791156 94.0064378,13.4832179 93.9871245,13.3297816 C93.0600858,13.3489611 92.5965665,13.310602 92.5965665,13.1955248 C86.1652361,13.5023974 82.9592275,13.5599361 82.9399142,13.3681406 C82.8433476,13.3681406 82.7081545,13.4256793 82.5343348,13.5407565 L82.360515,13.2722429 C84.0600858,9.68566862 85.0643777,7.86361215 85.3540773,7.84443261 C85.3733906,7.9786894 85.2961373,8.2088439 85.1416309,8.51571657 L85.1609442,8.63079382 L85.4313305,8.61161428 C86.1072961,7.00053277 86.667382,6.17581247 87.1502146,6.13745338 C89.1587983,5.96483751 86.860515,5.83058071 91.1866953,5.15929675 C91.360515,5.23601492 91.4957082,5.274374 91.5729614,5.25519446 C93.2725322,4.90996271 95.6287554,4.56473095 98.6609442,4.20031966 L98.6416309,3.95098562 L97.0193133,4.10442195 L97,3.85508791 C97.193133,3.83590836 97.3476395,3.77836974 97.4828326,3.66329249 L97.5021459,3.79754928 C97.5987124,3.79754928 97.7145923,3.74001066 97.8690987,3.6249334 C98.139485,3.60575386 98.3519313,3.6249334 98.5064378,3.70165157 C99.0665236,3.54821524 99.5107296,3.47149707 99.8583691,3.43313799 L100.862661,3.33724028 C101.113734,3.18380394 101.229614,3.04954715 101.2103,2.91529036 L101.2103,2.80021311 C100.959227,2.81939265 100.669528,2.80021311 100.321888,2.74267448 C100.302575,2.60841769 100.379828,2.51251998 100.553648,2.4741609 L102.427039,2.30154502 L103.296137,2.09057006 C103.296137,2.18646777 103.354077,2.22482685 103.412017,2.22482685 C103.508584,2.22482685 103.624464,2.16728823 103.77897,2.05221097 C104.223176,2.1097496 104.493562,2.12892914 104.551502,2.1097496 C104.899142,1.78369739 105.304721,1.5151838 105.748927,1.34256793 C105.555794,1.15077251 105.459227,0.997336175 105.439914,0.863079382 L104.184549,0.978156633 C104.184549,0.882258924 104.126609,0.767181673 104.049356,0.594565796 C104.049356,0.479488546 104.319742,0.364411295 104.899142,0.249334044 L105.150215,0.345231753 L105.381974,0.21097496 C105.381974,0.287693127 105.439914,0.326052211 105.517167,0.306872669 L105.748927,0.172615876 C105.748927,0.249334044 105.806867,0.287693127 105.88412,0.268513586 L106,0.249334044 L105.980687,1.0658141e-14 C105.806867,0.0191795418 105.343348,0.0191795418 104.609442,1.0658141e-14 L104.377682,0.153436335 L104.358369,0.0191795418 C98.4678112,0.498668087 95.1266094,0.767181673 94.3347639,0.84389984 C94.2381974,0.84389984 93.8133047,0.84389984 93.0987124,0.824720298 C93.0987124,0.920618007 93.0214592,0.978156633 92.8476395,0.978156633 L92.5965665,0.863079382 L91.7274678,1.07405434 C91.5343348,1.09323388 91.1866953,1.07405434 90.7038627,1.03569526 C90.5686695,1.13159297 90.4141631,1.20831113 90.22103,1.22749068 C90.027897,1.24667022 94.8948498,0.958977091 94.7403433,0.882258924 L93.9871245,1.09323388 L93.8712446,1.11241343 C93.5622318,1.13159297 93.1759657,1.13159297 92.7124464,1.07405434 C92.5772532,1.16995205 92.3841202,1.24667022 92.0944206,1.26584976 C91.9012876,1.2850293 91.7274678,1.24667022 91.5922747,1.16995205 C91.3798283,1.22749068 90.7618026,1.38092701 89.7188841,1.57272243 L89.7188841,1.57272243 L89.7188841,1.57272243 Z M90.027897,2.3399041 C90.027897,2.43580181 90.1244635,2.4741609 90.27897,2.45498135 L90.2982833,2.7043154 L90.0472103,2.72349494 C89.8540773,2.74267448 89.6802575,2.7043154 89.5450644,2.62759723 C89.4098712,2.74267448 89.2360515,2.80021311 89.0622318,2.81939265 L89.139485,2.81939265 L88.444206,2.74267448 L88.4248927,2.62759723 C89.2746781,2.5700586 89.5450644,2.4741609 90.027897,2.3399041 L90.027897,2.3399041 L90.027897,2.3399041 Z M90.6652361,2.28236548 L90.8004292,2.26318594 L90.8197425,2.51251998 L90.4334764,2.55087906 C90.4334764,2.41662227 90.4914163,2.32072456 90.6652361,2.28236548 L90.6652361,2.28236548 L90.6652361,2.28236548 Z M92.1523605,2.12892914 L92.1716738,2.26318594 C91.8819742,2.28236548 91.5150215,2.35908364 91.0708155,2.49334044 L90.9356223,2.51251998 L91.0515021,2.24400639 L92.1523605,2.12892914 L92.1523605,2.12892914 Z M81.1824034,3.37559936 L81.6072961,3.33724028 L81.5879828,3.08790623 L81.1630901,3.12626532 L81.1824034,3.37559936 L81.1824034,3.37559936 Z M84.2145923,3.10708578 L84.3690987,3.08790623 L84.6587983,3.20298348 C84.6781116,3.37559936 84.5815451,3.47149707 84.4077253,3.47149707 L83.9828326,3.50985615 L83.9635193,3.37559936 C83.944206,3.24134257 84.0407725,3.1646244 84.2145923,3.10708578 L84.2145923,3.10708578 L84.2145923,3.10708578 Z M93.9291845,3.66329249 L93.9291845,3.77836974 L93.0600858,3.85508791 L93.0600858,3.74001066 L93.9291845,3.66329249 L93.9291845,3.66329249 Z M91.4377682,4.02770378 L91.4570815,4.16196058 L90.9549356,4.20031966 L90.9356223,4.06606287 L91.4377682,4.02770378 L91.4377682,4.02770378 Z M93.832618,4.2194992 L95.5708155,3.93180607 L96.4592275,3.97016516 L96.4785408,4.10442195 C96.0536481,4.14278103 95.6866953,4.2194992 95.3776824,4.33457645 C95.3776824,4.23867874 95.2038627,4.16196058 94.8562232,4.12360149 L93.4849785,4.50719233 C93.2145923,4.35375599 93.0793991,4.23867874 93.0793991,4.16196058 L93.832618,4.2194992 L93.832618,4.2194992 Z M92.1137339,4.60309004 C92.2875536,4.5839105 92.3648069,4.66062866 92.3841202,4.83324454 L91.6502146,4.90996271 L91.6309013,4.66062866 L92.1137339,4.60309004 L92.1137339,4.60309004 Z M90.5879828,4.52637187 L90.6072961,4.66062866 L95.1266094,4.4496537 L95.1072961,4.31539691 L90.5879828,4.52637187 L90.5879828,4.52637187 Z M90.8583691,4.87160362 L90.8583691,4.98668087 L89.8733906,5.08257858 L89.8733906,4.96750133 L90.8583691,4.87160362 L90.8583691,4.87160362 Z M84.388412,9.95418221 L84.4077253,10.088439 L84.6974249,10.0692595 C84.6974249,9.97336175 84.7167382,9.83910495 84.7939914,9.66648908 L84.7746781,9.41715503 C84.6201717,9.43633458 84.4849785,9.60895045 84.388412,9.95418221 L84.388412,9.95418221 L84.388412,9.95418221 Z M74.4420601,24.3004795 L74.4613734,24.4155567 C74.4806867,24.5881726 74.3841202,24.6840703 74.1909871,24.7032499 L74.1716738,24.5881726 C74.1523605,24.4347363 74.248927,24.3580181 74.4420601,24.3004795 L74.4420601,24.3004795 L74.4420601,24.3004795 Z M74.1909871,24.8375067 C74.2103004,25.0868407 74.0364807,25.700586 73.6888412,26.6979222 L73.2639485,26.7362813 C73.2446352,26.5636654 73.4763948,25.9499201 73.9206009,24.8758657 L74.1909871,24.8375067 L74.1909871,24.8375067 Z M78.8454936,28.8460309 C78.8648069,28.9802877 78.6330472,29.133724 78.1888412,29.2871604 L77.3390558,29.2296217 L77.0686695,29.2488013 L77.0493562,28.9994672 L78.8454936,28.8460309 L78.8454936,28.8460309 Z M79.6759657,28.9227491 L79.695279,29.0378263 L79,29.0953649 L78.9806867,28.9802877 L79.6759657,28.9227491 L79.6759657,28.9227491 Z" id="Shape"></path>
                    </g>
                </g>
            </g>
        </g>
    </g>
</svg>