<?xml version="1.0" encoding="UTF-8" standalone="no"?>
<svg width="60px" height="69px" viewBox="0 0 60 69" version="1.1" xmlns="http://www.w3.org/2000/svg" xmlns:xlink="http://www.w3.org/1999/xlink">
    <!-- Generator: Sketch 3.6.1 (26313) - http://www.bohemiancoding.com/sketch -->
    <title>bitbucket</title>
    <desc>Created with Sketch.</desc>
    <defs></defs>
    <g id="Main" stroke="none" stroke-width="1" fill="none" fill-rule="evenodd">
        <g id="Desktop-HD" transform="translate(-490.000000, -2839.000000)" fill="#FFFFFF">
            <g id="section-3" transform="translate(0.000000, 2160.000000)">
                <g id="images" transform="translate(250.000000, 359.000000)">
                    <g id="bitbucket" transform="translate(240.000000, 320.000000)">
                        <path d="M0,10.113815 C0,7.30442193 2.9330254,4.91643784 8.79907621,2.9498627 C14.665127,0.983287567 21.7321016,0 30,0 C38.3140878,0 45.3926097,0.983287567 51.2355658,2.9498627 C57.0785219,4.91643784 60,7.30442193 60,10.113815 C60,10.6756936 58.3371824,20.9768014 55.0115473,41.0171385 C54.595843,43.1710065 52.0323326,45.2546397 47.3210162,47.2680381 C42.6096998,49.2814364 36.8360277,50.2881356 30,50.2881356 C23.1639723,50.2881356 17.3903002,49.2814364 12.6789838,47.2680381 C7.96766744,45.2546397 5.42725173,43.1710065 5.05773672,41.0171385 C1.68591224,21.6323265 0,11.3312186 0,10.113815 L0,10.113815 Z M1.78968655,11.010463 C1.78968655,8.36866774 4.54773875,6.12314175 10.0638432,4.27388505 C15.5799476,2.42462835 22.2253332,1.5 30,1.5 C37.8181007,1.5 44.4743448,2.42462835 49.9687323,4.27388505 C55.4631197,6.12314175 58.2103134,8.36866774 58.2103134,11.010463 C58.2103134,11.5388221 56.6466933,21.2254048 53.519453,40.0702112 C53.128548,42.0955875 50.7179669,44.054919 46.2877098,45.9482057 C41.8574528,47.8414923 36.4282162,48.7881356 30,48.7881356 C23.5717838,48.7881356 18.1425472,47.8414923 13.7122902,45.9482057 C9.28203308,44.054919 6.89316897,42.0955875 6.54569783,40.0702112 C3.37502364,21.8418237 1.78968655,12.155241 1.78968655,11.010463 L1.78968655,11.010463 Z M7.64705882,50.2604787 C7.64705882,49.4992556 7.99387443,49.1186441 8.68750563,49.1186441 C8.96495811,49.1186441 9.24241059,49.2305886 9.51986308,49.4544778 C11.6932408,51.1112574 14.5140077,52.4098145 17.9821638,53.3501489 C21.4503198,54.2904833 24.3635708,54.8054283 26.7219169,54.894984 L30.2594361,55.0964842 C30.6293727,55.0964842 31.1264751,55.0852897 31.7507432,55.0629008 C32.3750113,55.0405119 33.5888659,54.9285673 35.392307,54.7270671 C37.1957481,54.5255669 38.9182656,54.2457055 40.5598595,53.8874828 C42.2014533,53.5292602 44.016455,52.9695373 46.0048644,52.2083142 C47.9932739,51.4470912 49.6811098,50.5291457 51.0683722,49.4544778 L51.8313665,49.1186441 C52.5712398,49.1186441 52.9411765,49.4992556 52.9411765,50.2604787 C52.9411765,50.3500344 52.9180554,50.43959 52.8718134,50.5291457 C51.8544876,55.9472629 51.1608564,59.5518781 50.7909197,61.3429913 C50.2822569,63.5371049 48.062637,65.3618014 44.1320602,66.8170809 C40.2014833,68.2723603 35.5772753,69 30.2594361,69 C24.9415969,69 20.3173888,68.2723603 16.386812,66.8170809 C12.4562352,65.3618014 10.2597364,63.5371049 9.79731556,61.3429913 C8.91871603,57.0890976 8.20196379,53.4844824 7.64705882,50.5291457 L7.64705882,50.2604787 Z M9.79013089,52.8614865 C9.79013089,52.2871622 10.1041276,52 10.7321211,52 C10.9833185,52 11.2345159,52.0844595 11.4857133,52.2533784 C13.4534261,53.5033784 16.0072662,54.4831081 19.1472336,55.1925676 C22.2872009,55.902027 24.9247735,56.2905405 27.0599513,56.3581081 L30.262718,56.5101351 C30.5976478,56.5101351 31.0477098,56.5016892 31.6129039,56.4847973 C32.1780981,56.4679054 33.2770866,56.3834459 34.9098696,56.2314189 C36.5426527,56.0793919 38.1021698,55.8682432 39.588421,55.597973 C41.0746722,55.3277027 42.7179218,54.9054054 44.5181697,54.3310811 C46.3184177,53.7567568 47.8465351,53.0641892 49.102522,52.2533784 C49.102522,52.2533784 51.2571855,51.0304709 50.7981044,52.8614865 C50.7804167,52.9287431 50.7771713,52.9966216 50.7353051,53.0641892 C49.814248,57.152027 49.1862545,59.8716216 48.8513247,61.222973 C48.3907961,62.8783784 46.381217,64.2550676 42.8225874,65.3530405 C39.2639577,66.4510135 35.0773346,67 30.262718,67 C25.4481014,67 21.2614783,66.4510135 17.7028486,65.3530405 C14.1442189,64.2550676 12.155573,62.8783784 11.7369106,61.222973 C10.9414522,58.0135135 10.2925257,55.2939189 9.79013089,53.0641892 L9.79013089,52.8614865 Z M10.8823529,8.91737288 C10.8823529,9.98775496 12.7539304,10.9131895 16.4970853,11.6936764 C20.2402402,12.4741633 24.7297297,12.8644068 29.9655538,12.8644068 C35.2473061,12.8644068 39.7597598,12.4853131 43.5029147,11.7271258 C47.2460696,10.9689385 49.1176471,10.0546538 49.1176471,8.98427176 C49.1176471,7.86929043 47.2460696,6.92155631 43.5029147,6.14106938 C39.7597598,5.36058245 35.2473061,4.97033898 29.9655538,4.97033898 C24.6838014,4.97033898 20.1828299,5.34943263 16.4626391,6.10761994 C12.7424483,6.86580724 10.8823529,7.80239155 10.8823529,8.91737288 L10.8823529,8.91737288 Z M20,33 C20,35.7536232 20.9782609,38.1086957 22.9347826,40.0652174 C24.8913043,42.0217391 27.2463768,43 30,43 C32.7536232,43 35.1086957,42.0217391 37.0652174,40.0652174 C39.0217391,38.1086957 40,35.7536232 40,33 C40,30.2463768 39.0217391,27.8913043 37.0652174,25.9347826 C35.1086957,23.9782609 32.7536232,23 30,23 C27.2463768,23 24.8913043,23.9782609 22.9347826,25.9347826 C20.9782609,27.8913043 20,30.2463768 20,33 L20,33 Z M25,33 C25,34.352657 25.4830918,35.5241546 26.4492754,36.5144928 C27.4154589,37.5048309 28.5990338,38 30,38 C31.4009662,38 32.5845411,37.5048309 33.5507246,36.5144928 C34.5169082,35.5241546 35,34.352657 35,33 C35,31.647343 34.5169082,30.4758454 33.5507246,29.4855072 C32.5845411,28.4951691 31.4009662,28 30,28 C28.5990338,28 27.4154589,28.4951691 26.4492754,29.4855072 C25.4830918,30.4758454 25,31.647343 25,33 L25,33 Z" id="Shape"></path>
                    </g>
                </g>
            </g>
        </g>
    </g>
</svg>