<?xml version="1.0" encoding="UTF-8" standalone="no"?>
<svg width="514px" height="34px" viewBox="0 0 514 34" version="1.1" xmlns="http://www.w3.org/2000/svg" xmlns:xlink="http://www.w3.org/1999/xlink">
    <!-- Generator: Sketch 3.7.2 (28276) - http://www.bohemiancoding.com/sketch -->
    <title>cloud-1</title>
    <desc>Created with Sketch.</desc>
    <defs></defs>
    <g id="Main" stroke="none" stroke-width="1" fill="none" fill-rule="evenodd">
        <g id="Desktop-HD" transform="translate(-27.000000, -4493.000000)" fill="#FFFFFF">
            <g id="section-5" transform="translate(0.000000, 4320.000000)">
                <g id="Group" transform="translate(27.000000, 173.000000)">
                    <g id="cloud-1">
                        <path d="M197.050139,10.2606609 C183.678189,10.090838 169.57399,10 155,10 C69.3958638,10 0,13.1340068 0,17 C0,20.0496127 43.1818048,22.6437445 103.438164,23.6033581 C91.0539507,24.6092711 84,25.7674331 84,27 C84,30.8659932 153.395864,34 239,34 C324.604136,34 394,30.8659932 394,27 C394,26.9402611 393.98343,26.880697 393.950486,26.8213165 C462.722416,26.1055493 514,23.3232122 514,20 C514,16.4359557 455.020975,13.4940213 378.736075,13.0562099 C417.76184,11.8440917 444,9.58577772 444,7 C444,3.13400675 385.349302,0 313,0 C240.650698,0 182,3.13400675 182,7 C182,8.17739765 187.43998,9.28690195 197.050139,10.2606609 L197.050139,10.2606609 Z" id="Combined-Shape"></path>
                    </g>
                </g>
            </g>
        </g>
    </g>
</svg>