<?xml version="1.0" encoding="UTF-8" standalone="no"?>
<svg width="136px" height="13px" viewBox="0 0 136 13" version="1.1" xmlns="http://www.w3.org/2000/svg" xmlns:xlink="http://www.w3.org/1999/xlink">
    <!-- Generator: Sketch 3.7.2 (28276) - http://www.bohemiancoding.com/sketch -->
    <title>cloud-4</title>
    <desc>Created with Sketch.</desc>
    <defs></defs>
    <g id="Main" stroke="none" stroke-width="1" fill="none" fill-rule="evenodd">
        <g id="Desktop-HD" transform="translate(-805.000000, -4694.000000)" fill="#FFFFFF">
            <g id="section-5" transform="translate(0.000000, 4320.000000)">
                <g id="Group" transform="translate(27.000000, 173.000000)">
                    <g id="cloud-4" transform="translate(778.000000, 201.000000)">
                        <path d="M96.2245923,5.07077348 C97.3816771,4.72996799 98,4.37087857 98,4 C98,1.790861 76.0619527,0 49,0 C21.9380473,0 0,1.790861 0,4 C0,5.95172679 17.1233971,7.57697327 39.7754077,7.92922652 C38.6183229,8.27003201 38,8.62912143 38,9 C38,11.209139 59.9380473,13 87,13 C114.061953,13 136,11.209139 136,9 C136,7.04827321 118.876603,5.42302673 96.2245923,5.07077348 L96.2245923,5.07077348 Z" id="Combined-Shape"></path>
                    </g>
                </g>
            </g>
        </g>
    </g>
</svg>