<?xml version="1.0" encoding="UTF-8" standalone="no"?>
<svg width="394px" height="28px" viewBox="0 0 394 28" version="1.1" xmlns="http://www.w3.org/2000/svg" xmlns:xlink="http://www.w3.org/1999/xlink">
    <!-- Generator: Sketch 3.7.2 (28276) - http://www.bohemiancoding.com/sketch -->
    <title>cloud-3</title>
    <desc>Created with Sketch.</desc>
    <defs></defs>
    <g id="Main" stroke="none" stroke-width="1" fill="none" fill-rule="evenodd">
        <g id="Desktop-HD" transform="translate(-931.000000, -4527.000000)" fill="#FFFFFF">
            <g id="section-5" transform="translate(0.000000, 4320.000000)">
                <g id="Group" transform="translate(27.000000, 173.000000)">
                    <g id="cloud-3" transform="translate(904.000000, 34.000000)">
                        <path d="M292.558398,15.9657185 C303.701334,17.1023694 310,18.3944563 310,19.7647059 C310,24.3129332 240.604136,28 155,28 C69.3958638,28 0,24.3129332 0,19.7647059 C0,16.2166776 42.2302253,13.1927008 101.441626,12.034281 C90.2986664,10.8976306 84,9.60554369 84,8.23529412 C84,3.68706677 153.395864,0 239,0 C324.604136,0 394,3.68706677 394,8.23529412 C394,11.7833219 351.769786,14.8072984 292.558398,15.9657185 L292.558398,15.9657185 Z" id="Combined-Shape"></path>
                    </g>
                </g>
            </g>
        </g>
    </g>
</svg>