<?xml version="1.0" encoding="UTF-8" standalone="no"?>
<svg width="60px" height="60px" viewBox="0 0 60 60" version="1.1" xmlns="http://www.w3.org/2000/svg" xmlns:xlink="http://www.w3.org/1999/xlink">
    <!-- Generator: Sketch 3.6.1 (26313) - http://www.bohemiancoding.com/sketch -->
    <title>craft</title>
    <desc>Created with Sketch.</desc>
    <defs></defs>
    <g id="Main" stroke="none" stroke-width="1" fill="none" fill-rule="evenodd">
        <g id="Desktop-HD" transform="translate(-570.000000, -2519.000000)" fill="#FFFFFF">
            <g id="section-3" transform="translate(0.000000, 2160.000000)">
                <g id="images" transform="translate(250.000000, 359.000000)">
                    <g id="craft" transform="translate(320.000000, 0.000000)">
                        <path d="M0,0 L60,0 L60,60 L0,60 L0,0 Z M2,2 L58,2 L58,58 L2,58 L2,2 Z M46.8620966,11 L46.8620966,23.4156192 C39.7585567,23.4156192 34,17.8569572 34,11 L46.8620966,11 Z M46.8620966,48.4156192 L46.8620966,36 C39.7585567,36 34,41.5586621 34,48.4156192 L46.8620966,48.4156192 Z M29,48 L29,11 C19.0588745,11 11,19.2827321 11,29.5 C11,39.7172679 19.0588745,48 29,48 Z" id="Rectangle-path-Copy-2"></path>
                    </g>
                </g>
            </g>
        </g>
    </g>
</svg>