<?xml version="1.0" encoding="UTF-8" standalone="no"?>
<svg width="60px" height="60px" viewBox="0 0 60 60" version="1.1" xmlns="http://www.w3.org/2000/svg" xmlns:xlink="http://www.w3.org/1999/xlink">
    <!-- Generator: Sketch 3.6.1 (26313) - http://www.bohemiancoding.com/sketch -->
    <title>css</title>
    <desc>Created with Sketch.</desc>
    <defs></defs>
    <g id="Main" stroke="none" stroke-width="1" fill="none" fill-rule="evenodd">
        <g id="Desktop-HD" transform="translate(-490.000000, -2679.000000)" fill="#FFFFFF">
            <g id="section-3" transform="translate(0.000000, 2160.000000)">
                <g id="images" transform="translate(250.000000, 359.000000)">
                    <g id="css" transform="translate(240.000000, 160.000000)">
                        <path d="M30,60 C46.5685425,60 60,46.5685425 60,30 C60,13.4314575 46.5685425,0 30,0 C13.4314575,0 0,13.4314575 0,30 C0,46.5685425 13.4314575,60 30,60 Z M30,58 C45.463973,58 58,45.463973 58,30 C58,14.536027 45.463973,2 30,2 C14.536027,2 2,14.536027 2,30 C2,45.463973 14.536027,58 30,58 Z M19.4646098,17 L18.4573503,22.1929825 L38.9564428,22.1929825 L38.3166969,25.5473684 L17.8039927,25.5473684 L16.8103448,30.7403509 L37.3094374,30.7403509 L36.1660617,36.6631579 L27.9038113,39.4842105 L20.7441016,36.6631579 L21.2341198,34.0947368 L16.1978221,34.0947368 L15,40.3263158 L26.8421053,45 L40.4945554,40.3263158 L42.3049002,30.9508772 L42.6724138,29.0701754 L45,17 L19.4646098,17 Z" id="Oval-10"></path>
                    </g>
                </g>
            </g>
        </g>
    </g>
</svg>