<?xml version="1.0" encoding="UTF-8" standalone="no"?>
<svg width="60px" height="60px" viewBox="0 0 60 60" version="1.1" xmlns="http://www.w3.org/2000/svg" xmlns:xlink="http://www.w3.org/1999/xlink">
    <!-- Generator: Sketch 3.6.1 (26313) - http://www.bohemiancoding.com/sketch -->
    <title>dribbble</title>
    <desc>Created with Sketch.</desc>
    <defs></defs>
    <g id="Main" stroke="none" stroke-width="1" fill="none" fill-rule="evenodd">
        <g id="Desktop-HD" transform="translate(-850.000000, -3824.000000)" fill="#FFFFFF">
            <g id="section-4" transform="translate(0.000000, 3240.000000)">
                <g id="images" transform="translate(848.000000, 425.000000)">
                    <g id="dribbble" transform="translate(2.000000, 159.000000)">
                        <g id="logo">
                            <path d="M0,30 C0,24.55998 1.34004,19.54002 4.02,14.94 C6.70002,10.33998 10.34004,6.70002 14.94,4.02 C19.54002,1.33998 24.56004,0 30,0 C35.44002,0 40.46004,1.33998 45.06,4.02 C49.66002,6.70002 53.30004,10.33998 55.98,14.94 C58.66002,19.54002 60,24.55998 60,30 C60,35.44002 58.66002,40.45998 55.98,45.06 C53.30004,49.66002 49.66002,53.29998 45.06,55.98 C40.46004,58.66002 35.44002,60 30,60 C24.56004,60 19.54002,58.66002 14.94,55.98 C10.34004,53.29998 6.70002,49.66002 4.02,45.06 C1.34004,40.45998 0,35.44002 0,30 L0,30 Z M4.98,30 C4.98,36.24 7.08,41.74002 11.28,46.5 C13.2,42.73998 16.24002,39.16002 20.4,35.76 C24.56004,32.35998 28.62,30.22002 32.58,29.34 C31.98,27.94002 31.40004,26.68002 30.84,25.56 C23.96004,27.76002 16.52004,28.86 8.52,28.86 C6.96,28.86 5.80002,28.84002 5.04,28.8 C5.04,28.96002 5.03004,29.16 5.01,29.4 C4.99002,29.64 4.98,29.83998 4.98,30 L4.98,30 Z M5.76,23.82 C6.64002,23.89998 7.94004,23.94 9.66,23.94 C16.34004,23.94 22.68,23.04 28.68,21.24 C25.64004,15.84 22.30002,11.34 18.66,7.74 C15.50004,9.34002 12.79002,11.56002 10.53,14.4 C8.27004,17.23998 6.68004,20.38002 5.76,23.82 L5.76,23.82 Z M14.7,49.74 C19.22004,53.26002 24.32004,55.02 30,55.02 C32.96004,55.02 35.90004,54.46002 38.82,53.34 C38.02002,46.5 36.46002,39.88002 34.14,33.48 C30.46002,34.27998 26.75004,36.3 23.01,39.54 C19.27002,42.78 16.5,46.18002 14.7,49.74 L14.7,49.74 Z M23.88,5.82 C27.40002,9.46002 30.66,13.99998 33.66,19.44 C39.10002,17.16 43.2,14.26002 45.96,10.74 C41.32002,6.9 36,4.98 30,4.98 C27.96,4.98 25.92,5.26002 23.88,5.82 L23.88,5.82 Z M35.82,23.7 C36.42,24.97998 37.10004,26.59998 37.86,28.56 C40.82004,28.27998 44.04,28.14 47.52,28.14 C50.00004,28.14 52.46004,28.2 54.9,28.32 C54.58002,22.87998 52.62,18.04002 49.02,13.8 C46.42002,17.68002 42.02004,20.98002 35.82,23.7 L35.82,23.7 Z M39.36,32.76 C41.4,38.68002 42.78,44.76 43.5,51 C46.66002,48.96 49.24002,46.33998 51.24,43.14 C53.24004,39.94002 54.44004,36.48 54.84,32.76 C51.92004,32.56002 49.26,32.46 46.86,32.46 C44.66004,32.46 42.16002,32.56002 39.36,32.76 L39.36,32.76 Z" id="Shape"></path>
                        </g>
                    </g>
                </g>
            </g>
        </g>
    </g>
</svg>