<?xml version="1.0" encoding="UTF-8" standalone="no"?>
<svg width="60px" height="58px" viewBox="0 0 60 58" version="1.1" xmlns="http://www.w3.org/2000/svg" xmlns:xlink="http://www.w3.org/1999/xlink">
    <!-- Generator: Sketch 3.6.1 (26313) - http://www.bohemiancoding.com/sketch -->
    <title>github</title>
    <desc>Created with Sketch.</desc>
    <defs></defs>
    <g id="Main" stroke="none" stroke-width="1" fill="none" fill-rule="evenodd">
        <g id="Desktop-HD" transform="translate(-570.000000, -2839.000000)" stroke="#FFFFFF" fill="#FFFFFF">
            <g id="section-3" transform="translate(0.000000, 2160.000000)">
                <g id="images" transform="translate(250.000000, 359.000000)">
                    <g id="github" transform="translate(320.000000, 320.000000)">
                        <path d="M0,29.7348217 C0,42.8718083 8.59510728,54.0155215 20.5162835,57.9473082 C22.0172504,58.2211095 22.5642285,57.3029625 22.5642285,56.5144147 C22.5642285,55.8080073 22.538445,53.9388571 22.5237116,51.4582173 C14.1790724,53.2543538 12.418429,47.4716703 12.418429,47.4716703 C11.0537463,44.0363766 9.08683508,43.1218802 9.08683508,43.1218802 C6.36299457,41.2782847 9.29310292,41.3147916 9.29310292,41.3147916 C12.3042451,41.5247059 13.8880874,44.3795409 13.8880874,44.3795409 C16.5640443,48.9228172 20.9104024,47.6103963 22.6194788,46.8492286 C22.892047,44.9289688 23.6673931,43.6183732 24.523773,42.875459 C17.8624267,42.1252435 10.8585285,39.5734153 10.8585285,28.1796303 C10.8585285,24.9341722 12.0279935,22.2782995 13.9470211,20.2010603 C13.6376193,19.4490194 12.6081218,16.4244276 14.2416894,12.3320108 C14.2416894,12.3320108 16.7592621,11.532511 22.4905614,15.380332 C24.8829,14.7195582 27.450198,14.3909966 30.0009208,14.3782192 C32.549802,14.3909966 35.1152583,14.7195582 37.5112803,15.380332 C43.2388962,11.532511 45.7527855,12.3320108 45.7527855,12.3320108 C47.3900365,16.4244276 46.360539,19.4490194 46.0529789,20.2010603 C47.9756899,22.2782995 49.1359465,24.9341722 49.1359465,28.1796303 C49.1359465,39.6026208 42.1209982,42.1161167 35.4393935,42.8517296 C36.5149329,43.7698766 37.4744467,45.5842666 37.4744467,48.3569612 C37.4744467,52.3325561 37.4376132,55.5396821 37.4376132,56.5144147 C37.4376132,57.3102638 37.9790663,58.2357122 39.5002916,57.9454829 C51.4122594,54.0045694 60,42.8681577 60,29.7348217 C60,13.3122195 46.5668068,0 29.9972375,0 C13.4331932,0 0,13.3122195 0,29.7348217 Z" id="Fill-50"></path>
                    </g>
                </g>
            </g>
        </g>
    </g>
</svg>