<?xml version="1.0" encoding="UTF-8" standalone="no"?>
<svg width="21px" height="46px" viewBox="0 0 21 46" version="1.1" xmlns="http://www.w3.org/2000/svg" xmlns:xlink="http://www.w3.org/1999/xlink">
    <!-- Generator: Sketch 3.7.1 (28215) - http://www.bohemiancoding.com/sketch -->
    <title>gulp</title>
    <desc>Created with Sketch.</desc>
    <defs></defs>
    <g id="Main" stroke="none" stroke-width="1" fill="none" fill-rule="evenodd">
        <g id="Desktop-HD" transform="translate(-811.000000, -5130.000000)" fill="#FFFFFF">
            <g id="section-5" transform="translate(0.000000, 4320.000000)">
                <g id="logos" transform="translate(538.000000, 810.000000)">
                    <g id="gulp" transform="translate(273.000000, 0.000000)">
                        <path d="M10.409,36.249005 C7.68455172,36.249005 5.57936207,35.8420986 4.56701724,35.5995867 C3.87474138,35.4337522 3.31884483,35.2621579 2.89655172,35.0858838 L4.2467069,37.3793674 L4.77484483,44.5454085 C4.77484483,45.3487817 7.34167241,46 10.5079655,46 C13.6742586,46 16.2410862,45.3487817 16.2410862,44.5454085 L16.6592759,37.30137 L17.9367759,35.079164 C17.5126724,35.2578381 16.9518276,35.4317123 16.2508621,35.5995867 C15.2385172,35.8420986 13.1333276,36.249005 10.409,36.249005 L10.409,36.249005 Z M17.9805862,12.9304223 C15.981,13.2080931 13.3271552,13.361088 10.5079655,13.361088 C7.68877586,13.361088 5.03493103,13.2080931 3.03534483,12.9304223 C2.04484483,12.7929069 1.2612069,12.6306723 0.706155172,12.4485184 C0.573758621,12.4049598 0.349396552,12.3306823 0.133482759,12.2123663 L1.37236207,23.5487484 C1.42993103,23.3535149 1.49401724,23.1585214 1.56510345,22.9642479 C1.71053448,22.5661011 1.87877586,22.1768341 2.0697069,21.7965668 C2.26075862,21.4164195 2.4687069,21.0570314 2.69355172,20.7185227 C2.91827586,20.380134 3.15760345,20.0685044 3.41117241,19.7837539 C3.66486207,19.4991234 3.92506897,19.2543315 4.19227586,19.0491384 C4.45936207,18.8441852 4.72898276,18.6838705 5.00113793,18.5684344 C5.27341379,18.4529982 5.54303448,18.3951602 5.81012069,18.3951602 C6.11775862,18.3951602 6.41537931,18.4787974 6.70286207,18.6460718 C6.99022414,18.8132262 7.25887931,19.0840572 7.50918966,19.4583247 C7.56663793,19.5419619 7.60308621,19.6265591 7.61817241,19.7121163 C7.6335,19.7977934 7.64098276,19.8784307 7.64098276,19.9540282 C7.64098276,20.1331822 7.59789655,20.2746575 7.51172414,20.3780941 C7.42555172,20.4816506 7.3232069,20.5333689 7.20493103,20.5333689 C7.09655172,20.5333689 6.99601724,20.4766108 6.90308621,20.3632146 C6.81003448,20.2496983 6.70612069,20.0874638 6.59110345,19.8763908 C6.48284483,19.6852372 6.36372414,19.5470018 6.23362069,19.4613246 C6.10339655,19.3757675 5.96231034,19.3329289 5.81012069,19.3329289 C5.57344828,19.3329289 5.32072414,19.4304857 5.05194828,19.6255991 C4.78305172,19.8205926 4.51681034,20.0784641 4.25322414,20.3989734 C3.98939655,20.7196027 3.73667241,21.0858305 3.49493103,21.4980167 C3.25318966,21.910083 3.0392069,22.3321089 2.85322414,22.7640945 C2.66724138,23.1963201 2.51951724,23.6224259 2.40956897,24.0424119 C2.29962069,24.4623979 2.2447069,24.8396653 2.2447069,25.1740942 C2.2447069,25.2856905 2.25243103,25.4002867 2.26751724,25.5175227 C2.28284483,25.6351188 2.31144828,25.7415553 2.35381034,25.8371921 C2.39593103,25.9328289 2.4535,26.0113063 2.52615517,26.0728642 C2.59893103,26.1347822 2.69101724,26.1655011 2.80253448,26.1655011 C2.92768966,26.1655011 3.06962069,26.1237425 3.22868966,26.0401053 C3.38751724,25.9567081 3.55237931,25.8470318 3.72303448,25.7117963 C3.89381034,25.5763208 4.06543103,25.4230859 4.23789655,25.2517316 C4.41048276,25.0806173 4.571,24.9074631 4.71968966,24.7321489 C4.86837931,24.5570748 5.0002931,24.3887204 5.11518966,24.2275657 C5.2302069,24.0662911 5.31637931,23.9258958 5.37394828,23.8063798 L5.84560345,22.4027866 C5.90305172,22.2515916 5.97824138,22.1440752 6.0712931,22.0803573 C6.16422414,22.0166394 6.25981034,21.9847205 6.35793103,21.9847205 C6.40512069,21.9847205 6.45243103,21.9927602 6.49986207,22.0085997 C6.5472931,22.0245592 6.58941379,22.0495183 6.6267069,22.0832372 C6.66387931,22.1171961 6.69344828,22.1608746 6.71541379,22.2147528 C6.73737931,22.2683911 6.74836207,22.331149 6.74836207,22.4027866 C6.74836207,22.5939402 6.73146552,22.7729742 6.69767241,22.9403687 C6.66387931,23.1077631 6.6207931,23.2708376 6.5682931,23.4301923 C6.51591379,23.589307 6.4575,23.7496217 6.3932931,23.9108963 C6.32908621,24.0721709 6.26644828,24.2404053 6.20574138,24.4157195 C6.19222414,24.4356388 6.16772414,24.4981567 6.13212069,24.6036332 C6.09663793,24.7093497 6.05367241,24.8418253 6.00286207,25.00094 C5.95217241,25.1602947 5.89713793,25.3383687 5.838,25.5355221 C5.77874138,25.7326756 5.71803448,25.9336689 5.65551724,26.138742 C5.59287931,26.3438152 5.53289655,26.5449285 5.47544828,26.7420819 C5.41787931,26.9391154 5.36622414,27.1173094 5.32072414,27.2766641 C5.27510345,27.4357788 5.23708621,27.5690944 5.20655172,27.6767308 C5.17613793,27.7842472 5.15755172,27.8478451 5.1507931,27.8680044 C5.13389655,27.9314823 5.10674138,28.0022799 5.06968966,28.0797973 C5.03251724,28.1574348 4.98858621,28.2312323 4.93777586,28.30083 C4.88708621,28.3704277 4.83132759,28.4283857 4.77037931,28.4739842 C4.70955172,28.5197027 4.64703448,28.5427419 4.5827069,28.5427419 C4.47456897,28.5427419 4.39587931,28.5068631 4.347,28.4353455 C4.29787931,28.3635879 4.2735,28.2321923 4.2735,28.0411586 L4.2735,27.9575214 C4.2735,27.9295623 4.27506897,27.8995633 4.27844828,27.8680044 C4.2817069,27.8041665 4.30717241,27.6846505 4.35460345,27.5093364 C4.40191379,27.3342622 4.45851724,27.1362688 4.52453448,26.9152362 C4.59043103,26.6942035 4.66151724,26.4652512 4.73755172,26.2282591 C4.81346552,25.991387 4.88201724,25.779474 4.94296552,25.5922803 C4.7635,25.7914736 4.56931034,25.989467 4.35967241,26.1866204 C4.14991379,26.3836539 3.9352069,26.560888 3.71555172,26.7180827 C3.49565517,26.8753975 3.27418966,27.0037932 3.05115517,27.1033899 C2.828,27.2028666 2.6132931,27.2527849 2.40703448,27.2527849 C2.17036207,27.2527849 1.96663793,27.2009466 1.79574138,27.0973901 C1.76496552,27.0785507 1.73587931,27.0575514 1.70691379,27.0366721 L2.3962931,34.2229926 C2.57575862,34.6702177 5.95434483,35.769021 10.409,35.769021 C14.8657069,35.769021 18.2456207,34.6691377 18.4219483,34.2222726 L19.4122069,25.6783174 C19.3302586,25.7530749 19.2504828,25.8261525 19.1742069,25.8969501 C18.8901034,26.1596213 18.6220517,26.3855738 18.3701724,26.5746875 C18.1184138,26.7638012 17.8723276,26.9103163 17.6322759,27.0136329 C17.3921034,27.1173094 17.1351552,27.1690277 16.8613103,27.1690277 C16.6043621,27.1690277 16.4055862,27.1132296 16.2653448,27.0017533 C16.1251034,26.890397 16.0548621,26.7371621 16.0548621,26.5419286 L16.0548621,26.4971701 C16.0548621,26.4832506 16.0565517,26.4662111 16.0600517,26.4462918 C16.0734483,26.3270158 16.126069,26.1893804 16.2173103,26.0342255 C16.3085517,25.8788307 16.4183793,25.7176761 16.5467931,25.5505216 C16.6753276,25.3832472 16.8121897,25.2139329 16.9576207,25.0426986 C17.1030517,24.8715843 17.2375,24.7093497 17.3609655,24.5558748 C17.4843103,24.4028799 17.5865345,24.2624846 17.6676379,24.1349288 C17.7489828,24.0074931 17.7895345,23.9040565 17.7895345,23.8243792 C17.7895345,23.7766208 17.7725172,23.738822 17.7388448,23.710743 C17.704931,23.6831439 17.6490517,23.6689844 17.5714483,23.6689844 C17.4361552,23.6689844 17.2966379,23.7039032 17.1531379,23.7735009 C17.0092759,23.8430986 16.8671034,23.9369354 16.7268621,24.0542915 C16.5866207,24.1717676 16.4496379,24.3062831 16.3160345,24.4574781 C16.1826724,24.608793 16.0575172,24.7661078 15.9408103,24.9291824 C15.8241034,25.0926169 15.7177759,25.2568914 15.6213448,25.4221259 C15.5249138,25.5873604 15.4429655,25.7396353 15.3752586,25.8788307 C15.3549828,25.9227492 15.3262586,25.9845472 15.2889655,26.0639845 C15.2517931,26.1436619 15.2112414,26.2334189 15.1673103,26.3328956 C15.1232586,26.4324923 15.0767931,26.5350888 15.0277931,26.6403253 C14.9787931,26.7460418 14.9340172,26.8456385 14.8934655,26.9391154 C14.8529138,27.0327122 14.8165862,27.1161095 14.7846034,27.189907 C14.7522586,27.2634646 14.7294483,27.3143429 14.715931,27.3423019 C14.6990345,27.3780607 14.6711552,27.4456185 14.6322931,27.5452152 C14.593431,27.6448118 14.5485345,27.761328 14.4979655,27.8946435 C14.4472759,28.0279591 14.393931,28.1683544 14.3380517,28.3158295 C14.2825345,28.4629446 14.2299138,28.6024999 14.1809138,28.7338955 C14.1317931,28.8651712 14.0887069,28.9807273 14.0516552,29.080324 C14.0144828,29.1796807 13.9905862,29.2474784 13.9804483,29.2833572 C13.9467759,29.3869138 13.9069483,29.4842305 13.8614483,29.5761475 C13.8157069,29.6675844 13.7634483,29.7482217 13.7041897,29.8180594 C13.6450517,29.8876571 13.5774655,29.9433352 13.5013103,29.9850938 C13.4251552,30.0270924 13.3398276,30.0478517 13.2453276,30.0478517 C13.123431,30.0478517 13.0230172,30.0188127 12.9433621,29.9612146 C12.864069,29.9034966 12.8242414,29.7928602 12.8242414,29.6297857 C12.8242414,29.5501083 12.8343793,29.468511 12.8546552,29.3849938 C12.874931,29.3013566 12.9003966,29.2185594 12.9308103,29.1370821 C12.9612241,29.0552448 12.9926034,28.9758075 13.0247069,28.8981701 C13.0566897,28.8204127 13.0863793,28.7458951 13.1132931,28.6741375 C13.2960172,28.2759908 13.482,27.8768841 13.6712414,27.4765774 C13.8604828,27.0765108 14.0422414,26.680404 14.2165172,26.2881371 C14.2527241,26.2062998 14.2860345,26.1261425 14.3213966,26.0447852 C14.3107759,26.0551048 14.3003966,26.0659045 14.2900172,26.0759841 C14.0701207,26.2871771 13.8513103,26.4731709 13.6332241,26.6344455 C13.4150172,26.7957201 13.1986207,26.9241159 12.9841552,27.0197527 C12.7693276,27.1151495 12.5605345,27.1630279 12.3575345,27.1630279 C12.2189828,27.1630279 12.1032414,27.1411886 12.0103103,27.0973901 C11.9172586,27.0534716 11.8430345,26.9937135 11.7871552,26.9182361 C11.7312759,26.8426386 11.6914483,26.7530016 11.6677931,26.649445 C11.6598276,26.6140462 11.6548793,26.5770874 11.6496897,26.5402487 C11.5903103,26.5862071 11.5304483,26.6309656 11.4701034,26.6734442 C11.2604655,26.8205593 11.0542069,26.9391154 10.8513276,27.0286324 C10.648569,27.1182694 10.4658448,27.1630279 10.3037586,27.1630279 C10.1413103,27.1630279 10.0095172,27.1092697 9.90789655,27.0017533 C9.80651724,26.8943569 9.75594828,26.711123 9.75594828,26.4524116 C9.75594828,26.2690577 9.78298276,26.0560648 9.83693103,25.8133129 C9.74906897,25.9685877 9.63924138,26.1259025 9.50744828,26.2850172 C9.37541379,26.4443719 9.22503448,26.589687 9.05606897,26.7212026 C8.88674138,26.8524783 8.6975,26.9590347 8.48798276,27.040632 C8.27822414,27.1222293 8.05,27.1630279 7.80331034,27.1630279 C7.69167241,27.1630279 7.58437931,27.1491084 7.48118966,27.1212693 C7.378,27.0933102 7.28760345,27.0455518 7.20987931,26.9778741 C7.13203448,26.9103163 7.06963793,26.8195993 7.0222069,26.7062031 C6.97489655,26.5928069 6.95124138,26.4502517 6.95124138,26.2791374 C6.95124138,26.2751775 6.958,26.2144595 6.97151724,26.0968634 C6.98503448,25.9793874 7.02812069,25.7942335 7.10089655,25.541402 C7.17355172,25.2886904 7.28603448,24.9611013 7.43798276,24.5588747 C7.5902931,24.1567681 7.805,23.6689844 8.08222414,23.0957635 C8.15318966,22.9443285 8.23525862,22.8358521 8.32806897,22.7702143 C8.42124138,22.7044565 8.52165517,22.6715776 8.6297931,22.6715776 C8.67722414,22.6715776 8.72622414,22.6786574 8.77691379,22.6924569 C8.82784483,22.7064965 8.87503448,22.7283357 8.91908621,22.7582147 C8.96289655,22.7880937 8.9985,22.8260125 9.02565517,22.8717309 C9.05244828,22.9174494 9.0662069,22.9701277 9.0662069,23.0298857 C9.0662069,23.0697243 9.06101724,23.1077631 9.05087931,23.1432819 C9.03386207,23.2113196 8.99753448,23.2996367 8.94201724,23.409073 C8.88613793,23.5187494 8.82096552,23.6441452 8.7465,23.7855005 C8.67227586,23.9268558 8.59358621,24.0791307 8.5107931,24.2425652 C8.42787931,24.4056398 8.351,24.5748342 8.28003448,24.7501483 C8.20906897,24.9254625 8.14812069,25.1035365 8.09743103,25.2847305 C8.04674138,25.4659245 8.01789655,25.6421986 8.01125862,25.8133129 C8.01125862,25.8849505 8.02803448,25.9505883 8.06194828,26.0103463 C8.09574138,26.0701043 8.15162069,26.0998633 8.22934483,26.0998633 C8.449,26.0998633 8.65863793,26.0281057 8.85825862,25.8849505 C9.05763793,25.7415553 9.24181034,25.5633612 9.41101724,25.3503683 C9.58010345,25.1373754 9.73301724,24.9083031 9.87,24.6633912 C10.0069828,24.4184794 10.1210345,24.1946868 10.2122759,23.9915336 C10.2766034,23.8562981 10.3332069,23.710743 10.3822069,23.5555881 C10.4312069,23.4001933 10.4845517,23.2570381 10.542,23.1255225 C10.599569,22.9940069 10.6653448,22.8845705 10.7398103,22.7969734 C10.8140345,22.7094964 10.9072069,22.6655778 11.0186034,22.6655778 C11.1405,22.6655778 11.2366897,22.7114163 11.3078966,22.8029732 C11.3788621,22.8946502 11.4142241,23.0040865 11.4142241,23.1314023 C11.4142241,23.2030399 11.3915345,23.3017966 11.3457931,23.4271924 C11.3000517,23.5525882 11.2426034,23.6959835 11.1733276,23.8572581 C11.103931,24.0185327 11.0287414,24.190727 10.9477586,24.3737209 C10.8666552,24.5570748 10.7912241,24.7430686 10.7221897,24.9323023 C10.6525517,25.121416 10.5953448,25.3065698 10.5496034,25.4877637 C10.5038621,25.6688377 10.4811724,25.8371921 10.4811724,25.9923469 C10.4811724,26.1357421 10.5555172,26.2074998 10.7042069,26.2074998 C10.8090862,26.2074998 10.9391897,26.1716209 11.0947586,26.0998633 C11.2503276,26.0281057 11.4135,25.9276691 11.5841552,25.7981934 C11.6267586,25.7659145 11.6697241,25.7321956 11.7123276,25.6967968 C11.76,25.5013233 11.8158793,25.3206093 11.880931,25.1563348 C11.9992069,24.8455451 12.1192931,24.5371554 12.241069,24.2305656 C12.3627241,23.9239759 12.4742414,23.6431852 12.5758621,23.3883137 L14.1124828,19.5359621 C14.1733103,19.3806873 14.2553793,19.271131 14.3583276,19.2074131 C14.4616379,19.1438152 14.5655517,19.1118963 14.670431,19.1118963 C14.775069,19.1118963 14.8705345,19.1457351 14.9568276,19.2134129 C15.0431207,19.2812106 15.0863276,19.390647 15.0863276,19.5419619 C15.0863276,19.6135995 15.0718448,19.689317 15.0431207,19.7688744 C15.0143966,19.8485517 14.978069,19.9341089 14.9340172,20.0256658 C14.8496552,20.2129796 14.749,20.4418119 14.6322931,20.7125229 C14.5155862,20.9833539 14.390431,21.2780641 14.2569483,21.5965334 C14.1233448,21.9151228 13.9863621,22.2465518 13.8461207,22.5909403 C13.7058793,22.9354488 13.5688966,23.2708376 13.4352931,23.5973468 C13.301931,23.9239759 13.1766552,24.2333256 13.0599483,24.5261158 C12.9433621,24.818786 12.8429483,25.0726976 12.7582241,25.2876104 C12.7210517,25.3791674 12.6847241,25.4858438 12.6493621,25.6072798 C12.6137586,25.7285957 12.5961379,25.8371921 12.5961379,25.9328289 C12.5961379,25.9923469 12.6062759,26.0401053 12.6265517,26.0759841 C12.6468276,26.1118629 12.6856897,26.1298623 12.7431379,26.1298623 C12.8141034,26.1298623 12.9028103,26.1050232 13.0093793,26.0551048 C13.1158276,26.0054265 13.2307241,25.9395487 13.3541897,25.8579514 C13.4777759,25.7764741 13.6061897,25.6828772 13.7395517,25.5772808 C13.8732759,25.4718043 14.0059138,25.3623679 14.1377069,25.2488517 C14.2697414,25.1352155 14.3956207,25.0218193 14.5155862,24.9083031 C14.6355517,24.7949068 14.7430862,24.6903903 14.8378276,24.5947535 C14.8600345,24.5718343 14.8865862,24.5556348 14.9157931,24.5435152 C14.9728793,24.3739609 15.0250172,24.2078864 15.071,24.0454118 C15.0980345,23.9736542 15.1353276,23.8722576 15.1826379,23.740742 C15.2298276,23.6092264 15.2840172,23.4798707 15.3448448,23.3524349 C15.4056724,23.2251192 15.4743448,23.1144829 15.5501379,23.021006 C15.6262931,22.9275291 15.7083621,22.8806106 15.7962241,22.8806106 C15.9315172,22.8806106 16.0296379,22.9115696 16.0904655,22.9731276 C16.1512931,23.0350455 16.1817069,23.1255225 16.1817069,23.2450385 C16.1817069,23.2689177 16.1783276,23.3067164 16.171569,23.3584347 C16.1646897,23.410273 16.1564828,23.4651112 16.1463448,23.5228292 C16.1362069,23.5804273 16.1251034,23.6352655 16.1132759,23.6871038 C16.1013276,23.738822 16.0904655,23.7766208 16.0803276,23.8005 C16.2052414,23.6650245 16.3405345,23.530749 16.4859655,23.3974334 C16.6313966,23.2639979 16.7817759,23.1432819 16.9373448,23.0360055 C17.0930345,22.9283691 17.2518621,22.841012 17.4143103,22.7729742 C17.5763966,22.7055365 17.7388448,22.6715776 17.9010517,22.6715776 C18.012569,22.6715776 18.1233621,22.6875371 18.2331897,22.719456 C18.3430172,22.751255 18.4412586,22.7980534 18.5273103,22.8597313 C18.6136034,22.9216493 18.6838448,22.9991667 18.7377931,23.0927636 C18.7918621,23.1862405 18.8188966,23.2947168 18.8188966,23.4181927 C18.8188966,23.5816273 18.7776207,23.7557415 18.6947069,23.9408953 C18.6119138,24.1260491 18.508,24.3121629 18.3828448,24.4991167 C18.2576897,24.6864305 18.1223966,24.8684644 17.9772069,25.0456985 C17.8317759,25.2229326 17.6957586,25.3840872 17.5689138,25.5294024 C17.442069,25.6749575 17.3355,25.7981934 17.2492069,25.89971 C17.1632759,26.0014666 17.1181379,26.0701043 17.1148793,26.1059831 C17.1148793,26.1537415 17.1302069,26.1925002 17.1606207,26.2224993 C17.1910345,26.2522583 17.2417241,26.2672578 17.3126897,26.2672578 C17.3701379,26.2672578 17.4548621,26.2353388 17.5662586,26.1716209 C17.6777759,26.1079031 17.8343103,25.9975067 18.0353793,25.840192 C18.2364483,25.6828772 18.4919483,25.4718043 18.8012759,25.2069731 C19.0134483,25.0255391 19.2618276,24.8091864 19.5417069,24.5630746 L20.8830517,12.2120063 C20.6670172,12.3305623 20.4422931,12.4049598 20.3097759,12.4485184 C19.7548448,12.6306723 18.9712069,12.7929069 17.9805862,12.9304223 L17.9805862,12.9304223 Z M10.5,10 C4.70104286,10 -1.77635684e-15,10.6446642 -1.77635684e-15,11.439952 C-1.77635684e-15,12.2352398 4.70104286,12.879904 10.5,12.879904 C16.2989571,12.879904 21,12.2352398 21,11.439952 C21,10.6446642 16.2989571,10 10.5,10 L10.5,10 Z M14.6925172,11.860778 C14.6925172,12.0473718 14.1338448,12.1986867 13.4445862,12.1986867 C12.7554483,12.1986867 12.1967759,12.0473718 12.1967759,11.860778 C12.1967759,11.6740642 12.7554483,11.5227492 13.4445862,11.5227492 C14.1338448,11.5227492 14.6925172,11.6740642 14.6925172,11.860778 L14.6925172,11.860778 Z" id="Cup"></path>
                        <path d="M12.0098528,11.7553285 C12.0033566,11.7649801 12,11.7748355 12,11.7848503 C12,11.9037613 12.4722702,12 13.0546566,12 C13.6371697,12 14.1093133,11.9037613 14.1093133,11.7848503 L15.4868421,6.57992836 L20.9651574,1.18999645 C20.9669461,1.18835202 20.9686763,1.18665024 20.970347,1.1848906 C21.086292,1.0626733 20.8509806,0.68444913 20.4605688,0.360071423 C20.070157,0.0356937146 19.6485732,-0.0741247303 19.5175489,0.0493914992 C19.5165695,0.0503152524 19.5156143,0.0512520551 19.514683,0.0522018023 L13.669609,5.78380368 L12.0098528,11.7553285 L12.0098528,11.7553285 Z" id="Straw"></path>
                    </g>
                </g>
            </g>
        </g>
    </g>
</svg>