<?xml version="1.0" encoding="UTF-8" standalone="no"?>
<svg width="140px" height="203px" viewBox="0 0 140 203" version="1.1" xmlns="http://www.w3.org/2000/svg" xmlns:xlink="http://www.w3.org/1999/xlink">
    <!-- Generator: Sketch 3.6.1 (26313) - http://www.bohemiancoding.com/sketch -->
    <title>iPad</title>
    <desc>Created with Sketch.</desc>
    <defs></defs>
    <g id="Main" stroke="none" stroke-width="1" fill="none" fill-rule="evenodd">
        <g id="Desktop-HD" transform="translate(-330.000000, -2536.000000)" fill="#FFFFFF">
            <g id="section-3" transform="translate(0.000000, 2160.000000)">
                <g id="images" transform="translate(250.000000, 359.000000)">
                    <g id="iPad" transform="translate(80.000000, 17.000000)">
                        <path d="M0,5.99285993 C0,2.68309478 2.68713704,0 5.99321336,0 L134.006787,0 C137.316747,0 140,2.67841483 140,5.99285993 L140,197.00714 C140,200.316905 137.312863,203 134.006787,203 L5.99321336,203 C2.68325302,203 0,200.321585 0,197.00714 L0,5.99285993 Z M2,5.99755573 C2,3.78976666 3.79440599,2 5.99656855,2 L134.003431,2 C136.210675,2 138,3.78115243 138,5.99755573 L138,197.002444 C138,199.210233 136.205594,201 134.003431,201 L5.99656855,201 C3.78932469,201 2,199.218848 2,197.002444 L2,5.99755573 Z M4,15.0058262 C4,14.4503237 4.45208577,14 5.00533364,14 L134.994666,14 C135.549897,14 136,14.4418101 136,15.0058262 L136,187.994174 C136,188.549676 135.547914,189 134.994666,189 L5.00533364,189 C4.4501032,189 4,188.55819 4,187.994174 L4,15.0058262 Z M5,15 L135,15 L135,188 L5,188 L5,15 Z M70,9 C70.5522847,9 71,8.55228475 71,8 C71,7.44771525 70.5522847,7 70,7 C69.4477153,7 69,7.44771525 69,8 C69,8.55228475 69.4477153,9 70,9 Z M70,199 C72.209139,199 74,197.209139 74,195 C74,192.790861 72.209139,191 70,191 C67.790861,191 66,192.790861 66,195 C66,197.209139 67.790861,199 70,199 Z M70,198 C71.6568542,198 73,196.656854 73,195 C73,193.343146 71.6568542,192 70,192 C68.3431458,192 67,193.343146 67,195 C67,196.656854 68.3431458,198 70,198 Z"></path>
                    </g>
                </g>
            </g>
        </g>
    </g>
</svg>