<?xml version="1.0" encoding="UTF-8" standalone="no"?>
<svg width="60px" height="60px" viewBox="0 0 60 60" version="1.1" xmlns="http://www.w3.org/2000/svg" xmlns:xlink="http://www.w3.org/1999/xlink">
    <!-- Generator: Sketch 3.6.1 (26313) - http://www.bohemiancoding.com/sketch -->
    <title>linkedin</title>
    <desc>Created with Sketch.</desc>
    <defs></defs>
    <g id="Main" stroke="none" stroke-width="1" fill="none" fill-rule="evenodd">
        <g id="Desktop-HD" transform="translate(-1010.000000, -3824.000000)" fill="#FFFFFF">
            <g id="section-4" transform="translate(0.000000, 3240.000000)">
                <g id="images" transform="translate(848.000000, 425.000000)">
                    <g id="linkedin" transform="translate(162.000000, 159.000000)">
                        <g id="logo">
                            <path d="M55.6153846,0 L4.38461538,0 C1.84615385,0 0,1.84615385 0,4.38461538 L0,55.6153846 C0,57.9230769 2.07692308,60 4.38461538,60 L55.6153846,60 C58.1538462,60 60,58.1538462 60,55.6153846 L60,4.38461538 C60,1.84615385 57.9230769,0 55.6153846,0 L55.6153846,0 Z M18.4615385,50.7692308 L9.23076923,50.7692308 L9.23076923,23.0769231 L18.4615385,23.0769231 L18.4615385,50.7692308 L18.4615385,50.7692308 Z M13.8461538,19.3846154 C10.8461538,19.3846154 8.30769231,16.8461538 8.30769231,13.8461538 C8.30769231,10.8461538 10.8461538,8.30769231 13.8461538,8.30769231 C16.8461538,8.30769231 19.3846154,10.8461538 19.3846154,13.8461538 C19.3846154,16.8461538 16.8461538,19.3846154 13.8461538,19.3846154 L13.8461538,19.3846154 Z M50.7692308,50.7692308 L41.5384615,50.7692308 L41.5384615,36.9230769 C41.5384615,33.2307692 40.6153846,29.5384615 36.9230769,29.5384615 C33.2307692,29.5384615 32.3076923,33.2307692 32.3076923,36.9230769 L32.3076923,50.7692308 L23.0769231,50.7692308 L23.0769231,23.0769231 L32.3076923,23.0769231 L32.3076923,26.3076923 L32.7692308,26.3076923 C33.9230769,24 36.9230769,22.1538462 40.3846154,22.1538462 C48.9230769,22.1538462 50.7692308,27.6923077 50.7692308,34.6153846 L50.7692308,50.7692308 L50.7692308,50.7692308 Z" id="Shape"></path>
                        </g>
                    </g>
                </g>
            </g>
        </g>
    </g>
</svg>