<?xml version="1.0" encoding="UTF-8" standalone="no"?>
<svg width="60px" height="59px" viewBox="0 0 60 59" version="1.1" xmlns="http://www.w3.org/2000/svg" xmlns:xlink="http://www.w3.org/1999/xlink">
    <!-- Generator: Sketch 3.6.1 (26313) - http://www.bohemiancoding.com/sketch -->
    <title>photoshop</title>
    <desc>Created with Sketch.</desc>
    <defs></defs>
    <g id="Main" stroke="none" stroke-width="1" fill="none" fill-rule="evenodd">
        <g id="Desktop-HD" transform="translate(-490.000000, -2600.000000)" fill="#FFFFFF">
            <g id="section-3" transform="translate(0.000000, 2160.000000)">
                <g id="images" transform="translate(250.000000, 359.000000)">
                    <g id="photoshop" transform="translate(240.000000, 81.000000)">
                        <g id="Layer_2_1_">
                            <path d="M0,0 L60,0 L60,59 L0,59 L0,0 Z M2,2 L58,2 L58,57 L2,57 L2,2 Z" id="Rectangle-path"></path>
                            <path d="M14.4996,16.6288 C14.4996,16.6288 18.2932,16.529 21.416,16.529 C24.5716,16.529 26.8216,17.2714 28.3322,18.576 C29.776,19.8088 30.7496,21.9104 30.7496,24.3028 C30.7496,26.6952 30.0108,28.6528 28.6676,30.0294 C26.9218,31.8056 24.8874,32.8568 21.416,33.0024 C20.457,33.0426 19.5694,33.0522 19.5694,33.0522 L19.5694,40.829 L14.4994,40.829 L14.4996,16.6288 L14.4996,16.6288 L14.4996,16.6288 Z M19.5692,28.7434 C20.12,28.797 20.4652,28.7712 21.2816,28.7614 C24.0012,28.7288 25.6794,27.075 25.6794,24.574 C25.6794,22.3272 24.2956,20.4824 21.6848,20.3868 C20.6442,20.3488 19.5692,20.3868 19.5692,20.3868 L19.5692,28.7434 L19.5692,28.7434 Z" id="Shape"></path>
                            <path d="M32.6844,35.411 C33.7062,36.038 36.1174,36.977 37.761,36.977 C39.4402,36.977 40.1336,36.3852 40.1336,35.4626 C40.1336,34.5388 39.586,33.5684 37.5046,32.8668 C33.8168,31.611 32.3928,30.1078 32.4296,28.0038 C32.4296,24.6056 35.2772,22.0576 39.6952,22.0576 C41.7766,22.0576 43.439,22.738 44.5336,23.2916 L44.5336,27.37 C43.7298,26.9264 41.4112,25.936 39.878,25.936 C38.5264,25.936 37.76,26.4898 37.76,27.4124 C37.76,28.262 38.4542,28.7052 40.6448,29.4812 C44.04,30.6628 45.464,32.398 45.5002,35.057 C45.5002,38.418 42.9094,41.0906 37.76,40.9284 C35.993,40.8728 34.0352,40.1744 32.6842,39.4366 L32.6842,35.411 L32.6844,35.411 Z" id="Shape"></path>
                        </g>
                    </g>
                </g>
            </g>
        </g>
    </g>
</svg>