<?xml version="1.0" encoding="UTF-8" standalone="no"?>
<svg width="60px" height="54px" viewBox="0 0 60 54" version="1.1" xmlns="http://www.w3.org/2000/svg" xmlns:xlink="http://www.w3.org/1999/xlink">
    <!-- Generator: Sketch 3.6.1 (26313) - http://www.bohemiancoding.com/sketch -->
    <title>sketch</title>
    <desc>Created with Sketch.</desc>
    <defs></defs>
    <g id="Main" stroke="none" stroke-width="1" fill="none" fill-rule="evenodd">
        <g id="Desktop-HD" transform="translate(-490.000000, -2525.000000)" fill="#FFFFFF">
            <g id="section-3" transform="translate(0.000000, 2160.000000)">
                <g id="images" transform="translate(250.000000, 359.000000)">
                    <g id="sketch" transform="translate(240.000000, 6.000000)">
                        <path d="M51.4894059,4.4660365 L41.0091089,0 L18.980396,0 L8.50009901,4.4660365 L0,14.1125255 L29.9963366,53.956938 L59.989505,14.1125255 L51.4894059,4.4660365 Z M56.3831683,14.5157518 L48.4652475,20.5914416 L42.1636634,11.4827847 L51.029604,7.28862044 L56.3831683,14.5157518 Z M44.6341584,22.3940365 L15.3553465,22.3940365 L21.3547525,11.8242263 L38.6348515,11.8242263 L44.6341584,22.3940365 Z M38.6106706,1.97525359 L46.7116832,5.43872628 L38.5775248,9.24119343 L21.4119802,9.24119343 L13.2778218,5.43872628 L21.2887483,1.97291999 L38.6106706,1.97525359 Z M8.86089109,7.28862044 L17.7268317,11.4827847 L11.4252475,20.5914416 L3.50742574,14.5157518 L8.86089109,7.28862044 Z M6.72871287,20.4900438 L11.8020792,24.4387445 L23.9260396,44.0457701 L6.72871287,20.4900438 Z M16.059802,25.614427 L43.929802,25.614427 L29.9963366,50.2524197 L16.059802,25.614427 Z M35.9644554,44.0457701 L48.0884158,24.4387445 L53.1617822,20.4900438 L35.9644554,44.0457701 Z" id="symbol"></path>
                    </g>
                </g>
            </g>
        </g>
    </g>
</svg>