<?xml version="1.0" encoding="UTF-8" standalone="no"?>
<svg width="68px" height="50px" viewBox="0 0 68 50" version="1.1" xmlns="http://www.w3.org/2000/svg" xmlns:xlink="http://www.w3.org/1999/xlink">
    <!-- Generator: Sketch 3.6.1 (26313) - http://www.bohemiancoding.com/sketch -->
    <title>twitter</title>
    <desc>Created with Sketch.</desc>
    <defs></defs>
    <g id="Main" stroke="none" stroke-width="1" fill="none" fill-rule="evenodd">
        <g id="Desktop-HD" transform="translate(-848.000000, -3671.000000)" fill="#FFFFFF">
            <g id="section-4" transform="translate(0.000000, 3240.000000)">
                <g id="images" transform="translate(848.000000, 425.000000)">
                    <g id="twitter" transform="translate(0.000000, 6.000000)">
                        <g id="logo">
                            <path d="M59.9910194,42.0935274 C62.8708239,43.6564128 65.0820402,46.1299873 66.1237245,49.076843 C63.4284782,47.6297686 60.4437093,46.5801333 57.264433,46.0143564 C54.7209124,48.4669563 51.0949157,50 47.0823913,50 C39.3772104,50 33.132079,44.348983 33.132079,37.3778201 C33.132079,36.3881382 33.2543052,35.4244722 33.4931365,34.5012252 C21.8983042,35.026943 11.6187602,40.05367 4.73787291,47.689632 C3.53695115,45.8262142 2.84906141,43.6582132 2.84906141,41.3445595 C2.84906141,36.9647175 5.31094854,33.1018614 9.05539087,30.8374037 C6.76861018,30.9020832 4.61713901,31.4701556 2.73613765,32.4162677 C2.73399857,32.3631558 2.73399857,32.310584 2.73399857,32.2578322 C2.73399857,26.1409608 7.54345619,21.0404173 13.9248921,19.8800571 C12.7552607,19.5915424 11.5230983,19.4389582 10.2506416,19.4389582 C9.3507835,19.4389582 8.47828581,19.5159705 7.62499012,19.6640087 C9.40147483,14.6494344 14.5526387,10.9995661 20.658481,10.8973932 C15.8799655,7.51128403 9.86555664,5.49438184 3.32891275,5.49438184 C2.20360513,5.49438184 1.09227618,5.55433528 0,5.6703713 C6.17648178,2.08900836 13.5085666,4.97379915e-14 21.387859,4.97379915e-14 C47.0479172,4.97379915e-14 61.0783209,19.2332621 61.0783209,35.9149021 C61.0783209,36.4619098 61.064392,37.0051816 61.0390215,37.5465179 C63.763618,39.3276123 66.1285499,41.5501655 68,44.0819832 C65.5018977,43.0779431 62.8126209,42.3992809 59.9910194,42.0935274 Z" id="path22" transform="translate(34.000000, 25.000000) scale(-1, 1) rotate(-180.000000) translate(-34.000000, -25.000000) "></path>
                        </g>
                    </g>
                </g>
            </g>
        </g>
    </g>
</svg>