<?xml version="1.0" encoding="UTF-8" standalone="no"?>
<svg width="60px" height="59px" viewBox="0 0 60 59" version="1.1" xmlns="http://www.w3.org/2000/svg" xmlns:xlink="http://www.w3.org/1999/xlink">
    <!-- Generator: Sketch 3.6.1 (26313) - http://www.bohemiancoding.com/sketch -->
    <title>ai</title>
    <desc>Created with Sketch.</desc>
    <defs></defs>
    <g id="Main" stroke="none" stroke-width="1" fill="none" fill-rule="evenodd">
        <g id="Desktop-HD" transform="translate(-570.000000, -2600.000000)" fill="#FFFFFF">
            <g id="section-3" transform="translate(0.000000, 2160.000000)">
                <g id="images" transform="translate(250.000000, 359.000000)">
                    <g id="ai" transform="translate(320.000000, 81.000000)">
                        <g id="Layer_2_1_">
                            <path d="M0,0 L60,0 L60,59 L0,59 L0,0 Z M2,2 L58,2 L58,57 L2,57 L2,2 Z" id="Rectangle-path"></path>
                            <path d="M19.5474446,40.7072179 C19.5144255,40.9268045 19.3575844,41 19.1429598,41 L15.287972,41 C15.0238187,41 14.9577804,40.8536089 15.0238187,40.6340224 C17.1370454,34.9329041 20.5792936,25.6614707 23.0309668,19.2690613 C23.1382791,18.9762792 23.2951201,18.5696374 23.3611585,17.2602508 C23.3611585,17.0731955 23.4684708,17 23.6253118,17 L28.8175759,17 C28.9661622,17 29.0404553,17.0325313 29.1147484,17.1870552 C32.0039256,24.9295154 35.0086698,32.9647577 37.9721401,40.6665537 C38.0464332,40.8861403 37.9721401,40.9918672 37.7492607,40.9918672 L33.4897881,40.9918672 C33.2999279,40.9918672 33.2256348,40.9186716 33.1595964,40.7722806 L30.7079232,34.3066757 L21.8835507,34.3229414 L19.5474446,40.7072179 Z M29.6595647,30.7444934 C28.8753594,28.2965097 26.9850121,23.3354795 26.2173165,20.7329719 L26.1842973,20.7329719 C25.5899523,23.1484243 24.0297966,27.3774992 22.8823805,30.7444934 L29.6595647,30.7444934 L29.6595647,30.7444934 Z" id="Shape"></path>
                            <rect id="Rectangle-path" x="40" y="23" width="4" height="18"></rect>
                            <ellipse id="Oval" cx="42" cy="20" rx="2" ry="2"></ellipse>
                        </g>
                    </g>
                </g>
            </g>
        </g>
    </g>
</svg>