<?xml version="1.0" encoding="UTF-8" standalone="no"?><svg xmlns="http://www.w3.org/2000/svg" xmlns:xlink="http://www.w3.org/1999/xlink"><defs><svg viewBox="0 0 60 59" id="ai"><title>ai</title><g fill="#FFF" fill-rule="evenodd"><path d="M0 0h60v59H0V0zm2 2h56v55H2V2z"/><path d="M19.547 40.707c-.033.22-.19.293-.404.293h-3.855c-.264 0-.33-.146-.264-.366 2.113-5.701 5.555-14.973 8.007-21.365.107-.293.264-.7.33-2.009 0-.187.107-.26.264-.26h5.193c.148 0 .222.033.297.187 2.889 7.743 5.894 15.778 8.857 23.48.074.22 0 .325-.223.325h-4.26c-.19 0-.263-.073-.33-.22l-2.451-6.465-8.824.016-2.337 6.384zm10.113-9.963c-.785-2.447-2.675-7.409-3.443-10.011h-.033c-.594 2.415-2.154 6.644-3.302 10.011h6.778zM40 23h4v18h-4z"/><ellipse cx="42" cy="20" rx="2" ry="2"/></g></svg><svg viewBox="0 0 118 45" id="babel"><title>babel</title><g fill="#FFF" fill-rule="evenodd"><path d="M104.554 1.039c-.31 1.408-.813 2.45-1.491 3.145l-.485-.31c.523-1.33.775-2.102.756-2.295l-.136-.212c-.174.019-.407.482-.697 1.408l-.252.02a1.085 1.085 0 0 0-.136-.444l-.116.019c-2.286 6.348-3.313 9.3-5.425 14.182-.387 1.254-.717 1.948-1.007 2.083.02.135.097.213.252.193.058.618-.097 1.216-.427 1.814-.988 2.798-1.627 4.341-1.956 4.611l.213 1.332c.02.135-.058.231-.213.231l-.233.02c-.039-.367-.174-.54-.407-.521l-.116.019a5.598 5.598 0 0 0-.678 1.62l.232-.019c.31-.192.446-.424.427-.713l.465-.039.252.096c-.214.328-.31.599-.291.792l.116.212-.29.694.019.116c.271-.02.562.058.872.251.213-.02.445-.116.697-.27.271-.02 1.24-.039 2.945-.039l.853-.29c1.046-.018 1.2.02 2.111-.057l.368-.039.194-.135.02.116c.93-.077 1.007-.02 1.743.077l.02.116-.523.039.019.212a.75.75 0 0 0 .407-.155c.135-.019.213.058.232.213a4.03 4.03 0 0 0-.717.154l-.232-.077c-.368.096-.29.116-.523.135l-.368-.077c0 .058-.02.096-.078.116.02.135.078.212.213.193l.446-.04-.194-.076c0 .058.039.096.116.096l1.918-.173.737-.155c0 .058.038.097.097.097l.348-.135.659-.058c.523-.039.504-.077 1.608-.251 0-.058.02-.097.078-.097v.097c2.111-.347 1.918-.328 2.363-.482l-.097-.232c-.6.135-.58.058-.89.096l-1.609.078-.02-.116.892-.116.33-.02.174-.134.019.116c1.26-.116 1.705.212 7.575-1.023.31-.02.29-.29.485-.83a.57.57 0 0 1-.31-.077c-.485.193-.737.097-1.667.25-.077 0-.135-.057-.174-.211v-.097l.891.039c.155-.02.504-.039.969-.309.097.058-.078.116.02.097l.154-.02c.097 0 .136-.077.136-.231l-.097-.213c-.6.058-.891.078-1.375.348l-.02-.116-.736.077c-.02-.231-.078-.328-.174-.328l-.388.039c-.446.038-.659.019-.872.193 0-.077-.038-.116-.077-.116l-.426.039-.252.135c0-.078-.04-.116-.078-.116l-.155.135-.02-.116-.58-.038-.136.019.02.212.31.077.27-.02a.639.639 0 0 0 .33.078l.252-.116v.097c-1.376.347-1.376.27-2.325.444-.116-.078-.194-.097-.233-.097-.096.097.117.02.059.02-.155.019-.233-.058-.252-.194l.484-.057c.039 0 .058.038.33.096.387-.193.406-.27.62-.29l-.02-.212c-1.356.27-.814.097-2.519.232h-.077l-.02-.212c2.19-.27 1.454-.116 2.19-.328 0 .077.038.115.077.115a.458.458 0 0 1 .31-.135l.155-.019c.756-.058 1.027.097 2.538-.328v.097l.252-.116.233-.02c-.02-.231.329-.25.426-.27l-.02-.231c-2.654.54-3.351.386-4.087.598v-.097c-.698.136-.717.058-.892.078-.058 0-.135.058-.213.135 0-.077-.039-.116-.097-.116-.116 0-.058.039-.155.135l.155-.135-2.305.367c0-.058-.039-.097-.097-.097-1.163.25-.853.29-2.422.425-.077 0-.174.038-.29.115 0-.058-.04-.096-.117-.096l-.968.077-.64.154c0-.057-.038-.096-.116-.096a5.425 5.425 0 0 1-.93.174h-.02c-.154.019.078-.039-.038-.097l-.194.116c-.29.02-.135-.02-1.104 0-1.705.212-1.511.231-1.705.25l-.64-.038c0 .058-.019.097-.096.116-.717-.097-1.085-.212-1.105-.347.097-.676.252-1.023.504-1.062l.116-.019-.116.232.116-.02c.233-.115.33-.231.33-.347l-.02-.232-.232.02-.02-.212a.83.83 0 0 1 .059-.444l.523-.83.02.212.251-.019-.02-.212-.135-.212c.174-.155.33-.251.446-.251l-.02-.116-.33.02-.019-.329c.66-1.389.989-2.2.97-2.412l.232.097c.155-.02.232-.097.213-.251l-.233.02v-.097a.902.902 0 0 1 .078-.463c.368-.367.523-.753.484-1.158.078 0 .116.039.116.116.31-.174.543-.637.717-1.409.543-.984 1.318-2.952 2.325-5.885 1.938-5.19 1.86-5.75 2.131-6.965l-.232.02a.715.715 0 0 1-.097.443 1.294 1.294 0 0 0-.368-.096v-.097c-.039-.444.155-.984.581-1.62h.097l.194.752.232-.02c0-.057.058-.347.174-.906-.019-.116-.096-.174-.27-.193l-.214.135c-.02-.154 0-.56.02-1.235l-.214.039zm-2.79 3.338l.117-.02c-.175.309-.31.483-.446.502l-.02-.328a.879.879 0 0 0 .35-.154zm-.968 2.315c.232-.945.465-1.486.678-1.62l.02.115c-.117.888-.31 1.331-.582 1.37l.039.56c-.213.289-.31.52-.29.694l-.117.02-.058-.772c.116-.02.232-.136.31-.367zm-.368 1.254c.02.135-.078.444-.252.907l-.116.02-.02-.329c.136-.386.271-.579.388-.598zm-6.374 14.027l.116.213c.174-.02.252-.097.232-.232l-.019-.116-.116.02-.213.115zm3.06 2.528v.096c.175-.019.35-.328.504-.926l-.232-.077c-.194.521-.271.81-.271.907zm19.607.675v.097l-.193.231.368-.135h.038l-.019-.212h-.077l-.136.116c0-.058.407-.174.097-.232-.058.097.097.116-.078.135zm.756.695l.523-.039c-.02-.135-.349-.173-.465-.173h-.077l.019.212zm-9.26.193l.154.193c0-.058.02-.097.078-.097l.116.213-.485-.058c-.038-.155.02-.232.136-.251zm-1.59.174c.175-.02.291.096.291.25h-.542v-.096a.625.625 0 0 0 .251-.154zm1.24-.058l.02.115-.446.039-.02-.116.446-.038zm-4.494.463c0 .058.038.096.116.096.717-.135.64-.154.988-.193.116-.02.174.058.194.193l-1.996.174.194.096-.02-.115-.755.057-.02-.115.679-.058.62-.135zm2.053-.174v.097c-.058 0 .194.019.078.115-.427-.038-.446-.077-.756-.058v-.096l.678-.058zm.504-.058v.097l-.368.038v-.096l.368-.039zm-12.4 1.968l.02.328c-.116.02-.213-.058-.252-.212v-.096l.233-.02zm16.585-.29l.02.213.387-.039-.155-.096.019.116.387-.155c2.655-.289 2.965-.173 2.926-.482v-.096c-2.674.598-3.022.482-3.584.54zm4.146-.366l.387.077-.02-.212-.387-.077.02.212zm-11.47.753c.117.058-.135.115.02.096l1.356-.116.02.116c-.388.039-.64.097-.718.174 0-.077-.038-.116-.116-.116l-.581.058-.02-.116c.156-.02-.077-.02.04-.096zm6.278-.155l.116.213c.445-.097.194-.078.31-.174 0 .077.039.116.077.116l.31-.02-.02-.231-.813-.02.02.116zm-7.673.83h-.077l-.02-.212h.078l.02.212zm-6.064.733l.02.116 3.565-.29-.02-.212-2.848.232-.6-.077-.117.231zm3.972-.212h.039l-.02-.212h-.038l.019.212zM45.257 10.842c-2.474 2.98-3.748 4.613-3.844 4.94-1.008 1.057-1.503 1.691-1.445 1.903-.267.173-.381.346-.343.538-.076.02-.133-.02-.152-.096-.438.711-1.066 1.153-1.922 1.365l-.894.211c-.114.02-.171.115-.171.27l.019.114.342-.076.02.096-.762.288-1.35.308-.704.038c-.096.096.551-.02.304.058l-.875.211c-.533.135-.837.077-.875-.134l-.095.019c.057.211 0 .346-.153.384l.172-.038-.077-.327-1.598.384.172.077c-.02-.077-.096-.096-.248-.057l-.21.173-.246-.058c-.229.135-.38.211-.419.211l-.247-.057c-.666.384-.172.384-.21.384l.057.212.381-.097.59-.038-.057.25c-2.17.577-.59.25-1.18.384l-.114.02.057.211.343-.077.019.115c-.438.097-.685.193-.761.289l-.02-.116c-.57.135-1.141.577-1.712 1.308.095.422-1.141.941 4.68-.423.4-.02.628-.02.685-.039-.019-.077.02-.115.096-.134.646-.077.342.038.742-.058l1.255-.288-.266.153c-.02-.057.019-.096.076-.115.152.039.304.02.476-.02l.076.328-4.966 7.957-1.103 1.384-.533 1.826.095-.019.533-.23-.172.71.058.212.152.192c-.076.02-.095.058-.076.135l.019.115.228-.057c.323-.289.457-.558.419-.789.361.058.59.077.703.058l.02.115c-.21.058-.324.231-.343.52l.019.115.114-.02c1.808-1.98 6.203-8.764 9.741-13.378-.114-.5 1.732-1.191 5.537-2.076l.114-.019c.133.596-.152 2.057-.875 4.383-.476 1.403-.685 2.172-.666 2.287-.609 1.865-.894 2.864-.856 3.018l-1.351 4.46a39.957 39.957 0 0 0-1.998 7.227c.076-.02.21 0 .362.038l.19-.173c.019.077.057.096.152.096l-.076-.327.59-.019c.171-.038.323-.269.437-.673-.019-.595.095-.922.362-1 .361-1.422.59-2.152.666-2.171.342-1.423.59-2.23.76-2.441.514-1.846.876-2.807 1.123-2.864l.057.23-.361.98c-.647 2.903-1.313 5.21-1.979 6.901l.19.846.115-.02c1.617-3.498 3.919-10.417 6.944-20.759.095-.903.514-1.614 1.294-2.114l-.172-.173-.019-.096c.343-.077.59-.211.723-.404-.019-.077-.323-.192-.913-.346l1.789-7.727c.532-2.306.894-4.325 1.084-6.093l-.019-.115a4.14 4.14 0 0 1-1.046-.98v-.462L51.915 2l-.095.02c-1.103 1.69-3.31 4.632-6.563 8.822zm2.53 1.75c.095.403-.057 1.152-.438 2.248-.114 1.384-.608 2.172-1.465 2.383l-.019-.115-.76.288-.343.077a.798.798 0 0 1-.476-.019l-.076-.307c-.019-.116 1.066-1.653 3.31-4.594l.267.038zm-1.75 4.804l.247-.057.057.211c-1.199.365-1.864.558-1.998.596a.86.86 0 0 0-.323.192c-.02-.077-.171-.077-.476-.019-.057-.211.78-.519 2.493-.923zm-11.815 3.23l.266-.058-.057-.23-.266.057.057.23zm3.481-.923l.058.211-.571.039-.02-.115.533-.135zm-6.658 2.21l.019.116-.362.077-.019-.116.362-.076zm-.666 1.404l.019.096-.438.096-.057-.212.476.02zm1.046-.231l.02.096-.8.192-.019-.096.8-.192zm1.389-.23l.019.115-2.093.48-.057-.211c1.218-.212 1.085-.135 2.13-.385zm10.483-2.461l.171.192c-.247.058-.437.135-.533.23l-.247-.038a6.47 6.47 0 0 1-.99.327l-.227.058c-.134.038-.229-.02-.286-.154l1.58-.365.532-.25zm1.122-.25l1.123-.269.019.115c-.609.135-1.084.289-1.427.462l-.019-.116c.095-.019.19-.096.304-.192zm-11.795 3.23l.532-.116.057.211c-.228.058-.057.058-.342.193-.552.057-.438-.02-1.313.192l-.019-.115 1.085-.366zm1.446-.25c.152-.039.247.019.266.172l-.323.077c-.134.039-.229-.019-.286-.173l.343-.077zm-5.955 12.147l.019.116c.152-.039.209-.116.17-.27l-.018-.115c-.133.039-.19.116-.171.27zm.456 1.923c.038.134.114.192.267.153.152-.038.209-.115.17-.269l-.018-.115-.229.058-.19.173zM40.71 40.5c.152-.039.228.019.266.153l.019.116-.438.096a.746.746 0 0 0 .02-.346l.133-.02z"/><path d="M58.061 5.353a36.733 36.733 0 0 1-3.335 2.125l.02.21c.075 0 .188-.058.338-.153.151-.019.227.057.245.19l.208-.114h.094v.095c.019.114-.773.721-2.318 1.822l.113.228h-.094l-.245-.095c0 .076-.094.133-.32.152v.094l.245.304a.827.827 0 0 1-.358-.095c-.509.038-.999.418-1.489 1.1l.113.21c.434-.399.679-.608.754-.608l.019.323c-.075 0-.188.057-.34.152l.283.398a8.576 8.576 0 0 1 1.677-1.442c.302.095.471.19.471.285l.226-.02c1.696-1.252 3.354-2.144 4.993-2.694l.02.209c-.302.455-.51.683-.622.702.018.152.056.285.131.417.02.285-.716 2.183-2.223 5.693-3.448 8.141-6.33 14.176-8.667 18.085 0 .076.057.19.15.322.585-.132.943-.284 1.094-.417h.094l.019.209.245-.02.207-.113c0 .057.075.095.226.076l.019.227c.019.21-.113.532-.358.987-.245.266-.509.835-.773 1.69l.02.113.225-.019c.942-1.063 1.64-2.087 2.13-3.112 2.731-.816 4.804-1.594 6.255-2.372 1.47-.133 2.562-.513 3.316-1.139l-.019-.114-.565.171-.113.02-.02-.115c1.075-.152 1.81-.398 2.205-.72 2.073-1.614 3.637-2.752 4.71-3.417 3.28-2.429 4.824-4.744 4.636-6.983-.02-.228-.735-1.138-2.167-2.732-.019-.304.471-.74 1.47-1.31l2.864-2.505c.64-.816 1.017-2.144 1.13-3.985l-.038-.417c-.113-1.272-1.036-2.296-2.77-3.093C71.157 3.455 69.31 3.076 66.654 3c-2.148.152-5.03.949-8.592 2.353zm15.337.152l-.113.228-3.165-1.348c2.13.095 3.222.456 3.278 1.12zm-12.85 8.88c.227-1.195.472-1.859.735-2.01l2.393-5.39c-.019-.323.471-.588 1.508-.778l.339-.038.019.323c1.017-.171 1.639-.266 1.903-.285 1.884-.17 2.863.228 2.939 1.139l.226-.02-.038-.512.226-.019c.547.304.83.664.867 1.1.019.305-.132.684-.452 1.14-.15.018-.226-.095-.245-.304l-.226.019-.076.645c-.96 1.461-1.639 2.201-2.072 2.24-.377.53-.622.796-.735.796-.301.36-1.112.987-2.45 1.841-.452.038-2.09.683-4.936 1.936a.906.906 0 0 0-.452-.057l-.019-.21c-.038-.398.15-.91.546-1.555zM73.7 7.746l.019.227c-.113 0-.32-.342-.66-1.025l-.019-.209c.208-.019.434.323.66 1.006zm-20.877 2.58l.02.114c-.076 0-.19.057-.34.133h-.094l-.019-.21.433-.037zm6.915-.17l.02.322c-.114 0-.246.17-.415.455l-.02-.209c.19-.246.283-.436.283-.569h.132zm-1.074 2.238l.038.418-.113.019-.038-.418.113-.019zm-.263.778c-.02.36-.113.55-.283.57l-.113.019c.132-.247.188-.437.17-.57l.226-.019zm-.49 1.12l.019.114-.189.341-.226.02-.019-.114c.226-.02.34-.133.32-.361h.095zm-.471 1.006l-.076.55h-.094l-.038-.55h.208zm11.606.398l.471.285c.019.133-.056.228-.207.228-.207-.133-.358-.19-.471-.171v-.323l.207-.019zm-9.082 1.215l.02.208-.453.038-.019-.208.452-.038zm7.33.778c.32.152.47.284.49.398v.095c-.302.02-.584-.133-.848-.474l.358-.02zm-9.44 2.334c1.281-.114 3.297-.721 6.067-1.822l.697-.057c1.395-.114 2.43.152 3.128.816l.038.418c-.51 1.48-1.074 2.353-1.696 2.618l-2.845 2.316c-2.13 1.404-3.279 2.106-3.467 2.125-3.391 1.879-5.502 2.846-6.33 2.922l-.114.02c.076-.4 1.583-3.511 4.522-9.356zm3.071-1.234l.02.114-.453.038-.019-.114.452-.038zm10.269-.474l.075.873c-.113.209-.207.322-.32.341l-.132-1.48c.245.076.377.171.377.266zm-17.39 7.439c-.152.72-.302 1.1-.453 1.1v-.095c-.057-.341.094-.683.452-1.005zm2.844 4.06c.83-.151 3.11-1.347 6.84-3.605l.019.209c0 .095-.302.38-.961.835-1.884.949-3.015 1.575-3.354 1.898-2.054.72-3.071 1.176-3.052 1.347-1.828.72-3.015 1.252-3.6 1.594-.131.019-.338-.038-.583-.17-.038-.38.132-.665.49-.893.32-.019.621.02.904.133.34-.17.923-.36 1.771-.588l-.019-.209-.697.057c.076-.133.735-.437 1.96-.93l.339-.038v.095c-.584.057-.905.228-.98.531.019.133.094.21.245.19.471-.228.678-.398.678-.455zm-3.523-2.6v.096c.019.152-.057.246-.207.246l-.02-.113c0-.095.076-.19.227-.228zm5.35 1.481c-.263.02-.772.247-1.525.664l-.113.02-.02-.21c.547-.056 1.037-.265 1.414-.645.15-.019.226.038.245.171zm-5.539 1.556l.34-.038.018.114c-.075 0-.188.057-.339.133l-.226.019c-.019-.114.057-.19.207-.228zm-2.28 1.272l.227.094c-.076.665-.283 1.006-.584 1.025-.264-.114-.49-.17-.697-.152l-.02-.322c-.018-.114.057-.19.208-.228.15-.019.226.095.245.304.377-.475.584-.721.622-.721zM13.343 4.15c-1.298.96-2.787 1.901-4.448 2.823l.02.288c.114 0 .247-.077.438-.173.191-.019.306.058.306.25l.305-.173.153-.02.019.135c.019.135-1.031.96-3.112 2.44l.172.268-.153.02-.324-.116c0 .096-.134.154-.439.173l.019.154.344.384c-.115 0-.268-.02-.458-.096-.669.057-1.337.557-1.986 1.479l.172.268c.573-.518.897-.787.993-.787l.038.423c-.096 0-.248.076-.44.172l.364.538A10.697 10.697 0 0 1 7.597 10.7c.42.115.63.23.63.384l.305-.02c2.234-1.67 4.448-2.86 6.643-3.61l.02.288c-.402.615-.688.922-.84.941.018.211.095.384.21.557.037.384-.955 2.9-2.979 7.586C6.967 27.695 3.111 35.724 0 40.948c0 .096.076.25.172.422.763-.192 1.26-.365 1.47-.557l.171-.019.02.288.286-.02.305-.172c0 .096.115.134.306.115l.019.288c.019.288-.134.73-.497 1.326-.324.364-.649 1.113-1.011 2.247L1.26 45l.286-.02c1.24-1.401 2.195-2.784 2.844-4.128 3.646-1.076 6.414-2.132 8.342-3.17 1.928-.172 3.416-.672 4.409-1.517l-.019-.153-.725.211-.172.02-.02-.154c1.413-.212 2.406-.538 2.94-.96 2.768-2.152 4.849-3.669 6.261-4.572 4.371-3.226 6.433-6.337 6.185-9.295-.02-.307-.993-1.517-2.883-3.63-.038-.403.63-.98 1.966-1.748l3.799-3.36c.84-1.095 1.355-2.862 1.527-5.301l-.057-.577c-.153-1.709-1.375-3.092-3.703-4.148-1.375-.941-3.837-1.44-7.387-1.498-2.92.269-6.777 1.306-11.51 3.15zm20.462.25l-.115.287-4.237-1.786c2.825.116 4.276.615 4.352 1.498zM16.664 16.23c.286-1.575.61-2.477.973-2.689l3.169-7.163c-.038-.442.63-.788 2.023-1.018l.458-.039.039.404a91.166 91.166 0 0 1 2.538-.365c2.52-.212 3.818.288 3.932 1.536l.287-.02-.058-.729.306-.02c.744.404 1.145.904 1.183 1.499.038.403-.171.903-.649 1.498-.19.02-.305-.115-.324-.403l-.306.019-.076.864c-1.279 1.92-2.195 2.9-2.768 2.958-.515.71-.84 1.075-.973 1.094-.401.48-1.489 1.306-3.283 2.459-.592.057-2.787.902-6.586 2.573-.19-.096-.381-.115-.61-.096l-.02-.269c-.038-.557.191-1.248.745-2.093zm17.542-8.835l.019.27c-.153.019-.44-.442-.86-1.364l-.018-.27c.267-.038.553.423.859 1.364zm-27.869 3.42l.02.133c-.096 0-.249.077-.44.173l-.152.02-.02-.27.592-.057zm9.22-.231l.038.422c-.134.02-.325.211-.554.615l-.019-.288c.268-.327.401-.577.401-.75h.134zm-1.413 2.996l.057.576-.152.019-.057-.576.152-.02zm-.362 1.037c-.039.48-.153.73-.401.749l-.153.019c.172-.327.267-.557.248-.73l.306-.038zm-.63 1.498l.019.134-.268.461-.286.02-.019-.135c.286-.02.42-.173.4-.461l.154-.02zm-.65 1.344l-.076.71-.152.02-.058-.71.287-.02zm15.481.519l.63.384c.019.192-.076.307-.267.326-.268-.173-.477-.25-.63-.25l-.038-.422.305-.038zm-12.12 1.632l.018.27-.591.057-.02-.27.592-.057zm9.772.999c.42.192.63.384.65.538l.018.134c-.4.039-.763-.173-1.107-.634l.44-.038zM13.037 23.72c1.718-.153 4.429-.96 8.113-2.42l.897-.077c1.87-.153 3.264.193 4.18 1.076l.057.576c-.687 1.998-1.45 3.15-2.271 3.515l-3.818 3.053c-2.844 1.883-4.371 2.824-4.6 2.843-4.524 2.516-7.349 3.803-8.437 3.899l-.172.019c.153-.538 2.157-4.686 6.051-12.484zm4.123-1.632l.02.134-.612.058-.019-.135.611-.057zm13.705-.615l.096 1.133c-.134.308-.267.461-.42.461l-.172-1.997c.325.134.477.269.496.403zm-23.23 9.91c-.19.98-.4 1.48-.61 1.498l-.02-.134c-.038-.5.172-.941.63-1.364zm3.818 5.416c1.107-.211 4.142-1.824 9.124-4.801l.019.269c.02.115-.42.48-1.279 1.114-2.539 1.248-4.027 2.112-4.467 2.554-2.748.96-4.103 1.556-4.084 1.786-2.444.98-4.047 1.69-4.81 2.132-.172.02-.44-.058-.783-.211-.038-.5.172-.903.668-1.23.42-.038.84.02 1.222.193.458-.23 1.24-.5 2.366-.769l-.019-.288-.897.077c.115-.154.974-.557 2.615-1.23l.458-.038.02.135c-.764.058-1.203.307-1.298.71.019.173.114.27.305.25.553-.384.84-.595.84-.653zm-4.696-3.476l.02.134c.018.192-.077.308-.268.327l-.02-.135c-.018-.172.077-.288.268-.326zm7.14 1.959c-.364.038-1.032.326-2.043.903l-.153.019-.02-.288a2.89 2.89 0 0 0 1.871-.864c.21-.039.325.057.344.23zM6.49 37.356l.458-.038.02.153c-.115 0-.249.077-.44.173l-.286.02c-.02-.135.057-.25.248-.308zm-3.035 1.71l.324.134c-.114.864-.362 1.306-.801 1.344-.344-.153-.65-.211-.936-.192l-.038-.422c-.019-.173.077-.27.287-.327.19-.019.305.115.324.404.515-.634.802-.942.84-.942zM89.719 1.573l-.251-.096-4.114.633a1.049 1.049 0 0 0-.56-.096c-.232.019-.58.096-1.1.23l-1.99.825.154.25c.097 0 .232-.058.406-.154l.695.057-.096.652c-.638.288-1.024.71-1.12 1.266-.966.422-1.449.729-1.449.92l.02.116.154-.02.27-.134.31.365.038.498c.02.154-1.622 3.587-4.906 10.28-2.839 6.445-4.326 9.974-4.48 10.607-.966.268-1.545.671-1.7 1.19.02.172.309.268.87.325l.018.25-.25.421.038.5c.02.268.734.46 2.124.613 0-.096.04-.134.136-.154.019.307-.058.921-.27 1.842l.154-.02c.58-.786.85-1.323.83-1.63l.116-.019c.135-.02.29.153.464.499-.174.076-.792 1.457-1.835 4.162l.154.249.155-.02c1.294-3.24 2.105-5.043 2.433-5.389 1.7-.153 4.616-.44 8.788-.882l.251-.153c0 .096.058.134.154.115l.27-.02.252-.153c0 .096.058.134.154.115l3.149-.268c.83-.077 1.236-.326 1.197-.748-.02-.115.483-.25 1.487-.384.097 0 .232.02.425.077 0-.077.483-.154 1.487-.25.02-.517.193-.805.502-.824l-.02-.25c-.27.02-.598.096-.965.211-.656-.038-1.081-.076-1.255-.153-.174.096-.31.153-.406.153l-2.201.077-.27.134c0-.076-.059-.115-.155-.096l-.116.02-.29.134c0-.077-.232-.134-.695-.192l-.27.154-.541.038-.02-.134c2.82-.307 4.23-.69 4.191-1.151.174-.02.27.077.29.25l.83-.212-.019-.25-6.76.193c0 .096-.038.134-.135.153l-.83-.077c-.213.02-.386.077-.522.192l-.309-.115c-.85.077-1.487.173-1.912.307a13.132 13.132 0 0 0-1.93.02l-1.527.133-.695-.076c-.039-.441.83-2.628 2.627-6.56.521-1.323 1.004-2.148 1.448-2.455.097 0 .232.02.425.096l1.082-.364.56.096c.927-.077 2.008-.345 3.244-.787.31-.019.541 0 .696.058l.83-.192 2.453-.21c1.043-.097 2.182-.327 3.399-.691l-.02-.25c-.463.039-.695-.038-.714-.21-.039-.346-.367-.48-1.004-.423l-.02-.249.676-.192 1.777-.153-.02-.25c-.076 0-.424 0-1.1-.019l-.02-.268.696-.058c.174-.019.27-.115.251-.268-.927.019-1.39-.02-1.39-.134-6.432.306-9.638.364-9.657.172-.097 0-.232.058-.406.173l-.173-.269c1.7-3.586 2.703-5.408 2.993-5.428.02.135-.058.365-.212.672l.019.115.27-.02c.676-1.61 1.236-2.435 1.72-2.474 2.008-.172-.29-.306 4.036-.978.174.077.309.115.386.096 1.7-.345 4.056-.69 7.088-1.055l-.02-.249-1.622.153L97 3.855a.834.834 0 0 0 .483-.192l.02.135c.096 0 .212-.058.366-.173.27-.02.483 0 .637.077a8.733 8.733 0 0 1 1.352-.269l1.005-.096c.25-.153.367-.287.347-.422V2.8c-.25.02-.54 0-.888-.057-.02-.135.058-.23.232-.269l1.873-.172.87-.211c0 .095.057.134.115.134.097 0 .212-.058.367-.173.444.058.715.077.773.058a3.753 3.753 0 0 1 1.197-.767c-.193-.192-.29-.346-.31-.48l-1.254.115c0-.096-.058-.21-.136-.383 0-.116.27-.23.85-.346l.251.096.232-.134c0 .077.058.115.135.096l.232-.134c0 .076.058.115.135.096l.116-.02-.02-.249c-.173.02-.637.02-1.37 0l-.232.153-.02-.134c-5.89.48-9.231.748-10.023.825-.097 0-.522 0-1.236-.02 0 .097-.078.154-.251.154l-.251-.115-.87.211c-.193.02-.54 0-1.023-.038a.987.987 0 0 1-.483.191c-.193.02 4.674-.268 4.52-.345l-.754.211-.116.02a6.21 6.21 0 0 1-1.159-.039c-.135.096-.328.173-.618.192a.846.846 0 0 1-.502-.096c-.212.057-.83.21-1.873.403zm.309.767c0 .096.096.134.251.115l.02.25-.252.018a.846.846 0 0 1-.502-.095.89.89 0 0 1-.483.191h.077l-.695-.076-.02-.115c.85-.058 1.121-.154 1.604-.288zm.637-.058l.135-.019.02.25-.387.038c0-.134.058-.23.232-.269zm1.487-.153l.02.134c-.29.02-.657.096-1.101.23l-.135.02.116-.269 1.1-.115zm-10.97 1.247l.425-.039-.019-.25-.425.04.02.249zm3.033-.269l.154-.02.29.116c.02.173-.077.268-.251.268l-.425.039-.02-.134c-.019-.135.078-.211.252-.269zm9.714.556v.115l-.869.077V3.74l.87-.077zm-2.491.365l.02.134-.503.038-.02-.134.503-.038zm2.395.191l1.738-.287.888.038.02.134a4.268 4.268 0 0 0-1.101.23c0-.095-.174-.172-.522-.21l-1.371.383c-.27-.153-.406-.268-.406-.345l.754.057zm-1.72.384c.175-.02.252.058.271.23l-.734.077-.02-.25.484-.057zm-1.525-.077l.02.135 4.519-.211-.02-.135-4.519.211zm.27.346v.115l-.985.096v-.115l.985-.096zm-6.47 5.082l.02.134.29-.019c0-.096.019-.23.096-.403l-.02-.249c-.154.02-.289.192-.386.537zM74.442 24.3l.02.116c.019.172-.078.268-.271.287l-.02-.115c-.019-.153.078-.23.271-.288zm-.251.538c.02.249-.155.863-.502 1.86l-.425.038c-.02-.172.212-.786.657-1.86l.27-.038zm4.654 4.008c.02.134-.212.288-.656.441l-.85-.057-.27.019-.02-.25 1.796-.153zm.831.077l.02.115-.696.057-.02-.115.696-.057z"/></g></svg><svg viewBox="0 0 60 69" id="bitbucket"><title>bitbucket</title><path d="M0 10.114c0-2.81 2.933-5.198 8.8-7.164C14.664.983 21.731 0 30 0c8.314 0 15.393.983 21.236 2.95C57.079 4.916 60 7.304 60 10.114c0 .562-1.663 10.863-4.988 30.903-.416 2.154-2.98 4.238-7.691 6.251S36.836 50.288 30 50.288c-6.836 0-12.61-1.007-17.321-3.02-4.711-2.013-7.252-4.097-7.621-6.25C1.686 21.631 0 11.33 0 10.113zm1.79.896c0-2.641 2.758-4.887 8.274-6.736C15.58 2.424 22.225 1.5 30 1.5c7.818 0 14.474.925 19.969 2.774 5.494 1.85 8.241 4.095 8.241 6.736 0 .529-1.563 10.215-4.69 29.06-.391 2.026-2.802 3.985-7.232 5.878-4.43 1.893-9.86 2.84-16.288 2.84-6.428 0-11.857-.947-16.288-2.84-4.43-1.893-6.819-3.852-7.166-5.878C3.375 21.842 1.79 12.155 1.79 11.01zm5.857 39.25c0-.76.347-1.141 1.04-1.141.278 0 .555.112.833.335 2.173 1.657 4.994 2.956 8.462 3.896s6.382 1.455 8.74 1.545l3.537.201c.37 0 .867-.01 1.492-.033.624-.022 1.838-.134 3.641-.336a50.59 50.59 0 0 0 5.168-.84c1.641-.358 3.456-.917 5.445-1.679 1.988-.76 3.676-1.679 5.063-2.754l.763-.335c.74 0 1.11.38 1.11 1.141 0 .09-.023.18-.07.27-1.017 5.417-1.71 9.022-2.08 10.813-.509 2.194-2.728 4.019-6.659 5.474C40.202 68.272 35.577 69 30.26 69c-5.317 0-9.942-.728-13.872-2.183-3.93-1.455-6.127-3.28-6.59-5.474a625.686 625.686 0 0 1-2.15-10.814v-.269zm2.143 2.601c0-.574.314-.861.942-.861.251 0 .503.084.754.253 1.967 1.25 4.521 2.23 7.661 2.94 3.14.709 5.778 1.098 7.913 1.165l3.203.152c.335 0 .785-.008 1.35-.025.565-.017 1.664-.102 3.297-.254a54.302 54.302 0 0 0 4.678-.633c1.487-.27 3.13-.693 4.93-1.267 1.8-.574 3.329-1.267 4.585-2.078 0 0 2.154-1.223 1.695.608-.018.068-.02.136-.063.203-.92 4.088-1.549 6.808-1.884 8.159-.46 1.655-2.47 3.032-6.028 4.13C39.264 66.451 35.077 67 30.263 67c-4.815 0-9.002-.549-12.56-1.647-3.559-1.098-5.547-2.475-5.966-4.13a403.28 403.28 0 0 1-1.947-8.159v-.203zm1.092-43.944c0 1.07 1.872 1.996 5.615 2.777 3.743.78 8.233 1.17 13.469 1.17 5.281 0 9.794-.379 13.537-1.137 3.743-.758 5.615-1.672 5.615-2.743 0-1.115-1.872-2.062-5.615-2.843-3.743-.78-8.256-1.17-13.537-1.17-5.282 0-9.783.378-13.503 1.137-3.72.758-5.58 1.694-5.58 2.81zM20 33c0 2.754.978 5.109 2.935 7.065C24.89 42.022 27.246 43 30 43c2.754 0 5.109-.978 7.065-2.935C39.022 38.11 40 35.754 40 33c0-2.754-.978-5.109-2.935-7.065C35.11 23.978 32.754 23 30 23c-2.754 0-5.109.978-7.065 2.935C20.978 27.89 20 30.246 20 33zm5 0c0 1.353.483 2.524 1.45 3.514.965.99 2.149 1.486 3.55 1.486 1.401 0 2.585-.495 3.55-1.486.967-.99 1.45-2.161 1.45-3.514 0-1.353-.483-2.524-1.45-3.514C32.586 28.496 31.402 28 30 28c-1.401 0-2.585.495-3.55 1.486-.967.99-1.45 2.161-1.45 3.514z" fill="#FFF" fill-rule="evenodd"/></svg><svg viewBox="0 0 514 34" id="cloud-1"><title>cloud-1</title><path d="M197.05 10.26A3323.52 3323.52 0 0 0 155 10C69.396 10 0 13.134 0 17c0 3.05 43.182 5.644 103.438 6.603C91.054 24.61 84 25.767 84 27c0 3.866 69.396 7 155 7s155-3.134 155-7c0-.06-.017-.12-.05-.179C462.722 26.106 514 23.323 514 20c0-3.564-58.979-6.506-135.264-6.944C417.762 11.844 444 9.586 444 7c0-3.866-58.65-7-131-7S182 3.134 182 7c0 1.177 5.44 2.287 15.05 3.26z" fill="#FFF" fill-rule="evenodd"/></svg><svg viewBox="0 0 132 10" id="cloud-2"><title>cloud-2</title><path d="M66.16 2.252C67.803.988 81.88 0 99 0c18.225 0 33 1.12 33 2.5S117.225 5 99 5c-.864 0-1.72-.003-2.567-.007C97.456 5.314 98 5.652 98 6c0 2.21-21.938 4-49 4S0 8.21 0 6s21.938-4 49-4c6.037 0 11.82.09 17.16.252z" fill="#FFF" fill-rule="evenodd"/></svg><svg viewBox="0 0 394 28" id="cloud-3"><title>cloud-3</title><path d="M292.558 15.966C303.701 17.102 310 18.394 310 19.765 310 24.313 240.604 28 155 28S0 24.313 0 19.765c0-3.548 42.23-6.572 101.442-7.73C90.299 10.897 84 9.604 84 8.234 84 3.687 153.396 0 239 0s155 3.687 155 8.235c0 3.548-42.23 6.572-101.442 7.73z" fill="#FFF" fill-rule="evenodd"/></svg><svg viewBox="0 0 136 13" id="cloud-4"><title>cloud-4</title><path d="M96.225 5.07C97.382 4.73 98 4.37 98 4c0-2.21-21.938-4-49-4S0 1.79 0 4c0 1.952 17.123 3.577 39.775 3.93C38.618 8.27 38 8.63 38 9c0 2.21 21.938 4 49 4s49-1.79 49-4c0-1.952-17.123-3.577-39.775-3.93z" fill="#FFF" fill-rule="evenodd"/></svg><svg viewBox="0 0 193 6" id="cloud-5"><title>cloud-5</title><ellipse cx="96.5" cy="3" rx="96.5" ry="3" transform="matrix(1 0 0 -1 0 6)" fill="#FFF" fill-rule="evenodd"/></svg><svg viewBox="0 0 60 60" id="craft"><title>craft</title><path d="M0 0h60v60H0V0zm2 2h56v56H2V2zm44.862 9v12.416C39.76 23.416 34 17.857 34 11h12.862zm0 37.416V36C39.76 36 34 41.559 34 48.416h12.862zM29 48V11c-9.941 0-18 8.283-18 18.5S19.059 48 29 48z" fill="#FFF" fill-rule="evenodd"/></svg><svg viewBox="0 0 60 60" id="css"><title>css</title><path d="M30 60c16.569 0 30-13.431 30-30C60 13.431 46.569 0 30 0 13.431 0 0 13.431 0 30c0 16.569 13.431 30 30 30zm0-2c15.464 0 28-12.536 28-28S45.464 2 30 2 2 14.536 2 30s12.536 28 28 28zM19.465 17l-1.008 5.193h20.5l-.64 3.354H17.804l-.994 5.193h20.5l-1.144 5.923-8.262 2.821-7.16-2.82.49-2.57h-5.036L15 40.327 26.842 45l13.653-4.674 1.81-9.375.367-1.88L45 17H19.465z" fill="#FFF" fill-rule="evenodd"/></svg><svg viewBox="0 0 60 60" id="dribbble"><title>dribbble</title><path d="M0 30c0-5.44 1.34-10.46 4.02-15.06 2.68-4.6 6.32-8.24 10.92-10.92C19.54 1.34 24.56 0 30 0c5.44 0 10.46 1.34 15.06 4.02 4.6 2.68 8.24 6.32 10.92 10.92C58.66 19.54 60 24.56 60 30c0 5.44-1.34 10.46-4.02 15.06-2.68 4.6-6.32 8.24-10.92 10.92C40.46 58.66 35.44 60 30 60c-5.44 0-10.46-1.34-15.06-4.02-4.6-2.68-8.24-6.32-10.92-10.92C1.34 40.46 0 35.44 0 30zm4.98 0c0 6.24 2.1 11.74 6.3 16.5 1.92-3.76 4.96-7.34 9.12-10.74 4.16-3.4 8.22-5.54 12.18-6.42-.6-1.4-1.18-2.66-1.74-3.78-6.88 2.2-14.32 3.3-22.32 3.3-1.56 0-2.72-.02-3.48-.06 0 .16-.01.36-.03.6-.02.24-.03.44-.03.6zm.78-6.18c.88.08 2.18.12 3.9.12 6.68 0 13.02-.9 19.02-2.7-3.04-5.4-6.38-9.9-10.02-13.5-3.16 1.6-5.87 3.82-8.13 6.66-2.26 2.84-3.85 5.98-4.77 9.42zm8.94 25.92c4.52 3.52 9.62 5.28 15.3 5.28 2.96 0 5.9-.56 8.82-1.68-.8-6.84-2.36-13.46-4.68-19.86-3.68.8-7.39 2.82-11.13 6.06-3.74 3.24-6.51 6.64-8.31 10.2zm9.18-43.92c3.52 3.64 6.78 8.18 9.78 13.62 5.44-2.28 9.54-5.18 12.3-8.7C41.32 6.9 36 4.98 30 4.98c-2.04 0-4.08.28-6.12.84zM35.82 23.7c.6 1.28 1.28 2.9 2.04 4.86 2.96-.28 6.18-.42 9.66-.42 2.48 0 4.94.06 7.38.18-.32-5.44-2.28-10.28-5.88-14.52-2.6 3.88-7 7.18-13.2 9.9zm3.54 9.06c2.04 5.92 3.42 12 4.14 18.24 3.16-2.04 5.74-4.66 7.74-7.86s3.2-6.66 3.6-10.38c-2.92-.2-5.58-.3-7.98-.3-2.2 0-4.7.1-7.5.3z" fill="#FFF" fill-rule="evenodd"/></svg><svg viewBox="0 0 60 58" id="github"><title>github</title><path d="M0 29.735c0 13.137 8.595 24.28 20.516 28.212 1.501.274 2.048-.644 2.048-1.433 0-.706-.026-2.575-.04-5.056-8.345 1.796-10.106-3.986-10.106-3.986-1.364-3.436-3.331-4.35-3.331-4.35-2.724-1.844.206-1.807.206-1.807 3.011.21 4.595 3.065 4.595 3.065 2.676 4.543 7.022 3.23 8.731 2.47.273-1.921 1.048-3.232 1.905-3.975-6.662-.75-13.665-3.302-13.665-14.695 0-3.246 1.169-5.902 3.088-7.979-.31-.752-1.339-3.777.295-7.869 0 0 2.517-.8 8.249 3.048 2.392-.66 4.96-.989 7.51-1.002 2.549.013 5.114.342 7.51 1.002 5.728-3.847 8.242-3.048 8.242-3.048 1.637 4.092.608 7.117.3 7.87 1.923 2.076 3.083 4.732 3.083 7.978 0 11.423-7.015 13.936-13.697 14.672 1.076.918 2.035 2.732 2.035 5.505 0 3.976-.036 7.183-.036 8.157 0 .796.541 1.722 2.062 1.431C51.412 54.005 60 42.868 60 29.735 60 13.312 46.567 0 29.997 0 13.433 0 0 13.312 0 29.735z" stroke="#FFF" fill="#FFF" fill-rule="evenodd"/></svg><svg viewBox="0 0 21 46" id="gulp"><title>gulp</title><g fill="#FFF" fill-rule="evenodd"><path d="M10.409 36.249c-2.724 0-4.83-.407-5.842-.65-.692-.165-1.248-.337-1.67-.513l1.35 2.293.528 7.166c0 .804 2.567 1.455 5.733 1.455 3.166 0 5.733-.651 5.733-1.455l.418-7.244 1.278-2.222c-.424.179-.985.353-1.686.52-1.012.243-3.118.65-5.842.65zm7.572-23.319c-2 .278-4.654.431-7.473.431-2.82 0-5.473-.153-7.473-.43-.99-.138-1.774-.3-2.329-.482a3.383 3.383 0 0 1-.573-.237l1.24 11.337c.057-.195.121-.39.192-.585.146-.398.314-.787.505-1.167.19-.38.399-.74.624-1.078.224-.339.464-.65.717-.935.254-.285.514-.53.781-.735.267-.205.537-.365.81-.48a2.06 2.06 0 0 1 .808-.174c.308 0 .605.084.893.251.287.167.556.438.806.812a.647.647 0 0 1 .11.254c.014.086.022.166.022.242 0 .18-.043.32-.13.424a.388.388 0 0 1-.306.155c-.108 0-.209-.056-.302-.17a3.222 3.222 0 0 1-.312-.487 1.178 1.178 0 0 0-.357-.415.756.756 0 0 0-.424-.128c-.237 0-.49.097-.758.293a4.393 4.393 0 0 0-.799.773c-.264.32-.516.687-.758 1.099-.242.412-.456.834-.642 1.266a9.008 9.008 0 0 0-.443 1.278c-.11.42-.165.798-.165 1.132 0 .112.007.226.023.344.015.117.043.224.086.32.042.095.1.173.172.235a.411.411 0 0 0 .277.093.936.936 0 0 0 .426-.126c.159-.083.323-.193.494-.328.17-.136.342-.289.515-.46a8.215 8.215 0 0 0 .877-1.024c.115-.162.201-.302.259-.422l.472-1.403a.66.66 0 0 1 .225-.323.501.501 0 0 1 .287-.095c.047 0 .094.008.142.024.047.016.09.04.127.074a.357.357 0 0 1 .088.132.494.494 0 0 1 .033.188c0 .19-.017.37-.05.537-.034.168-.077.33-.13.49-.052.16-.11.32-.175.48-.064.162-.127.33-.187.506-.014.02-.038.082-.074.188a29.627 29.627 0 0 0-.294.932l-.182.603a48.795 48.795 0 0 0-.335 1.138 150.423 150.423 0 0 0-.17.591 1.398 1.398 0 0 1-.213.433.807.807 0 0 1-.168.173.31.31 0 0 1-.187.069c-.108 0-.187-.036-.236-.108-.05-.071-.074-.203-.074-.394v-.083c0-.028.002-.058.005-.09.004-.064.03-.183.077-.359a34.779 34.779 0 0 1 .383-1.281c.075-.237.144-.449.205-.636-.18.2-.374.397-.583.595-.21.197-.425.374-.644.531-.22.157-.442.286-.665.385-.223.1-.438.15-.644.15-.237 0-.44-.052-.611-.156-.031-.018-.06-.04-.09-.06l.69 7.186c.18.447 3.558 1.546 8.013 1.546 4.457 0 7.837-1.1 8.013-1.547l.99-8.544-.238.219a10.37 10.37 0 0 1-.804.678c-.252.189-.498.335-.738.439-.24.103-.497.155-.77.155-.258 0-.456-.056-.597-.167a.555.555 0 0 1-.21-.46v-.045a1.082 1.082 0 0 1 .162-.463c.092-.155.201-.316.33-.483.128-.168.265-.337.41-.508.146-.171.28-.334.404-.487.123-.153.226-.294.307-.421.081-.128.122-.23.122-.31a.14.14 0 0 0-.051-.114c-.034-.028-.09-.042-.168-.042a.956.956 0 0 0-.418.105 2.08 2.08 0 0 0-.426.28 3.85 3.85 0 0 0-.411.403 5.953 5.953 0 0 0-.695.965 6.919 6.919 0 0 0-.332.642l-.122.269c-.044.1-.09.202-.14.307a13.3 13.3 0 0 0-.134.3l-.108.25a5.648 5.648 0 0 1-.07.152 3.784 3.784 0 0 0-.083.203l-.134.35a388.192 388.192 0 0 0-.446 1.185 3.23 3.23 0 0 0-.072.203c-.033.104-.073.201-.119.293a1.204 1.204 0 0 1-.157.242.718.718 0 0 1-.203.167.521.521 0 0 1-.256.063.502.502 0 0 1-.302-.087c-.079-.058-.119-.168-.119-.331 0-.08.01-.161.03-.245.02-.084.046-.166.077-.248.03-.082.062-.161.094-.239.032-.078.061-.152.088-.224.183-.398.369-.797.558-1.197.19-.4.371-.797.546-1.189l.104-.243-.031.031c-.22.211-.439.397-.657.558-.218.162-.434.29-.649.386a1.539 1.539 0 0 1-.626.143.813.813 0 0 1-.348-.066.579.579 0 0 1-.223-.179.714.714 0 0 1-.12-.269c-.007-.035-.012-.072-.017-.109-.06.046-.12.091-.18.133-.21.148-.416.266-.619.356-.202.09-.385.134-.547.134a.52.52 0 0 1-.396-.161c-.101-.108-.152-.29-.152-.55 0-.183.027-.396.08-.639a3.265 3.265 0 0 1-.329.472c-.132.16-.282.305-.45.436-.17.131-.36.238-.569.32-.21.081-.438.122-.685.122a1.23 1.23 0 0 1-.322-.042.676.676 0 0 1-.271-.143.72.72 0 0 1-.188-.272 1.116 1.116 0 0 1-.07-.427c0-.004.006-.065.02-.182.013-.118.056-.303.129-.556.073-.252.185-.58.337-.982.152-.402.367-.89.644-1.463a.807.807 0 0 1 .246-.326.513.513 0 0 1 .591-.012c.044.03.08.068.107.114.026.045.04.098.04.158 0 .04-.005.078-.015.113a1.357 1.357 0 0 1-.109.266c-.056.11-.121.235-.196.377-.074.14-.152.293-.235.457-.083.163-.16.332-.231.507a5.048 5.048 0 0 0-.183.535 2.29 2.29 0 0 0-.086.528c0 .072.017.138.05.197.035.06.09.09.168.09.22 0 .43-.072.63-.215.199-.143.383-.322.552-.535a5.13 5.13 0 0 0 .459-.687c.137-.245.251-.468.342-.671.065-.136.121-.281.17-.436a4.32 4.32 0 0 1 .16-.43c.058-.132.123-.241.198-.329a.351.351 0 0 1 .279-.131c.121 0 .218.045.289.137a.52.52 0 0 1 .106.328.93.93 0 0 1-.068.296 8.393 8.393 0 0 1-.173.43c-.07.162-.144.334-.225.517-.081.183-.157.37-.226.558-.07.19-.127.375-.172.556-.046.18-.069.35-.069.504 0 .144.075.215.223.215a.977.977 0 0 0 .39-.107c.156-.072.32-.172.49-.302.043-.032.086-.066.128-.101.048-.196.104-.376.169-.54.118-.311.238-.62.36-.926l.335-.843 1.536-3.852a.646.646 0 0 1 .246-.329.59.59 0 0 1 .312-.095c.105 0 .2.034.287.101.086.068.13.178.13.329a.669.669 0 0 1-.044.227c-.029.08-.065.165-.109.257-.084.187-.185.416-.302.687a96.637 96.637 0 0 0-.786 1.878l-.41 1.006a120.979 120.979 0 0 0-.678 1.69 3.34 3.34 0 0 0-.109.32 1.17 1.17 0 0 0-.053.326c0 .06.01.107.03.143.02.036.06.054.117.054a.66.66 0 0 0 .266-.075c.107-.05.222-.115.345-.197a5.51 5.51 0 0 0 .386-.28 11.951 11.951 0 0 0 1.098-.983.228.228 0 0 1 .078-.051c.057-.17.109-.336.155-.499l.112-.304c.047-.132.101-.261.162-.389.06-.127.13-.238.205-.331.076-.093.158-.14.246-.14.136 0 .234.03.294.092.061.062.092.153.092.272a.981.981 0 0 1-.01.113 3.956 3.956 0 0 1-.059.33.75.75 0 0 1-.033.113c.125-.136.26-.27.406-.404a4.17 4.17 0 0 1 .451-.361c.156-.108.315-.195.477-.263a1.185 1.185 0 0 1 .819-.054c.11.032.208.08.294.14.087.063.157.14.21.234a.638.638 0 0 1 .082.325c0 .164-.041.338-.124.523a3.78 3.78 0 0 1-.312.558c-.125.187-.26.37-.406.547-.145.177-.281.338-.408.483l-.32.37c-.086.102-.13.171-.134.207 0 .048.015.087.046.116.03.03.08.045.152.045.057 0 .142-.032.253-.095.112-.064.268-.174.47-.332.2-.157.456-.368.765-.633.212-.181.46-.398.74-.644l1.342-12.351c-.216.119-.44.193-.573.237-.555.182-1.339.344-2.33.481zM10.5 10C4.701 10 0 10.645 0 11.44c0 .795 4.701 1.44 10.5 1.44S21 12.235 21 11.44c0-.795-4.701-1.44-10.5-1.44zm4.193 1.86c0 .187-.56.339-1.248.339-.69 0-1.248-.152-1.248-.338 0-.187.558-.338 1.248-.338.689 0 1.248.151 1.248.338z"/><path d="M12.01 11.755a.053.053 0 0 0-.01.03c0 .119.472.215 1.055.215.582 0 1.054-.096 1.054-.215l1.378-5.205 5.478-5.39a.107.107 0 0 0 .005-.005c.116-.122-.119-.5-.51-.825-.39-.324-.811-.434-.942-.31a.103.103 0 0 0-.003.002L13.67 5.784l-1.66 5.971z"/></g></svg><svg viewBox="0 0 140 203" id="ipad"><title>iPad</title><path d="M0 5.993A5.996 5.996 0 0 1 5.993 0h128.014A5.99 5.99 0 0 1 140 5.993v191.014a5.996 5.996 0 0 1-5.993 5.993H5.993A5.99 5.99 0 0 1 0 197.007V5.993zm2 .005A4 4 0 0 1 5.997 2h128.006A3.992 3.992 0 0 1 138 5.998v191.004a4 4 0 0 1-3.997 3.998H5.997A3.992 3.992 0 0 1 2 197.002V5.998zm2 9.008C4 14.45 4.452 14 5.005 14h129.99A1 1 0 0 1 136 15.006v172.988c0 .556-.452 1.006-1.005 1.006H5.005A1 1 0 0 1 4 187.994V15.006zM5 15h130v173H5V15zm65-6a1 1 0 1 0 0-2 1 1 0 0 0 0 2zm0 190a4 4 0 1 0 0-8 4 4 0 0 0 0 8zm0-1a3 3 0 1 0 0-6 3 3 0 0 0 0 6z" fill="#FFF" fill-rule="evenodd"/></svg><svg viewBox="0 0 60 120" id="iphone"><title>iPhone</title><path d="M0 5.992C0 2.682 2.695 0 6 0h48a6 6 0 0 1 6 5.992v108.016c0 3.31-2.695 5.992-6 5.992H6a6 6 0 0 1-6-5.992V5.992zm2 1.011A4.995 4.995 0 0 1 6.994 2h46.012A4.998 4.998 0 0 1 58 7.003v105.994A4.995 4.995 0 0 1 53.006 118H6.994A4.998 4.998 0 0 1 2 112.997V7.003zm2 7.999A1 1 0 0 1 4.992 14h50.016A1 1 0 0 1 56 15.002v89.996a1 1 0 0 1-.992 1.002H4.992A1 1 0 0 1 4 104.998V15.002zM5 15h50v90H5V15zm25 101a4 4 0 1 0 0-8 4 4 0 0 0 0 8zm0-1a3 3 0 1 0 0-6 3 3 0 0 0 0 6zM22 11a1 1 0 1 0 0-2 1 1 0 0 0 0 2zm8-4a1 1 0 1 0 0-2 1 1 0 0 0 0 2zm-5 3c0-.552.456-1 .995-1h8.01c.55 0 .995.444.995 1 0 .552-.456 1-.995 1h-8.01A.995.995 0 0 1 25 10z" fill="#FFF" fill-rule="evenodd"/></svg><svg viewBox="0 0 60 60" id="js"><title>js</title><path d="M0 0h60v60H0V0zm2 2h56v56H2V2zm38.514 44.65c1.1 1.862 2.531 3.23 5.063 3.23 2.126 0 3.485-1.101 3.485-2.623 0-1.823-1.396-2.47-3.737-3.53l-1.283-.57c-3.703-1.636-6.163-3.684-6.163-8.014 0-3.988 2.932-7.024 7.516-7.024 3.263 0 5.609 1.176 7.3 4.258l-3.997 2.659c-.88-1.635-1.83-2.28-3.303-2.28-1.503 0-2.456.989-2.456 2.28 0 1.595.953 2.24 3.155 3.229l1.283.57c4.361 1.937 6.823 3.913 6.823 8.354 0 4.788-3.63 7.411-8.504 7.411-4.767 0-7.846-2.354-9.353-5.438l4.171-2.511zm-18.522.382c.82 1.5 1.565 2.768 3.359 2.768 1.715 0 2.797-.692 2.797-3.382v-18.3h5.22v18.373c0 5.573-3.17 8.109-7.795 8.109-4.18 0-6.6-2.23-7.83-4.916l4.249-2.652z" fill="#FFF" fill-rule="evenodd"/></svg><svg viewBox="0 0 60 60" id="linkedin"><title>linkedin</title><path d="M55.615 0H4.385C1.846 0 0 1.846 0 4.385v51.23C0 57.923 2.077 60 4.385 60h51.23C58.154 60 60 58.154 60 55.615V4.385C60 1.846 57.923 0 55.615 0zM18.462 50.77H9.23V23.076h9.23v27.692zm-4.616-31.385c-3 0-5.538-2.539-5.538-5.539 0-3 2.538-5.538 5.538-5.538 3 0 5.539 2.538 5.539 5.538 0 3-2.539 5.539-5.539 5.539zM50.77 50.769h-9.23V36.923c0-3.692-.924-7.385-4.616-7.385-3.692 0-4.615 3.693-4.615 7.385V50.77h-9.231V23.077h9.23v3.23h.462c1.154-2.307 4.154-4.153 7.616-4.153 8.538 0 10.384 5.538 10.384 12.461V50.77z" fill="#FFF" fill-rule="evenodd"/></svg><svg viewBox="0 0 220 115" id="macbook"><title>Macbook</title><path d="M27 5.994A3.999 3.999 0 0 1 31 2h158c2.209 0 4 1.785 4 3.994V100H27V5.994zM193.47 109a5.988 5.988 0 0 0 1.53-4.007V6.007A6.003 6.003 0 0 0 189 0H31c-3.313 0-6 2.69-6 6.007v98.986c0 1.54.579 2.944 1.53 4.007h166.94zM27 105c0 2.21 1.794 4 4 4h158c2.209 0 4-1.795 4-4v-4H27v4zm4-98.005c0-.55.453-.995 1.009-.995h155.982a1 1 0 0 1 1.009.995v88.01c0 .55-.453.995-1.009.995H32.009A1 1 0 0 1 31 95.005V6.995zM32 7h156v88H32V7zm78-2a1 1 0 1 0 0-2 1 1 0 0 0 0 2zM45.995 115h128s13 0 24.69-1.26L220 109.944V109H0v.945l21.315 3.794C33.995 115 45.995 115 45.995 115zm4.519-2h120.962s11.286 0 22.333-.42l10.263-1.265L206 111H14l1.928.315 10.263 1.265c11.983.42 24.323.42 24.323.42z" fill="#FFF" fill-rule="evenodd"/></svg><svg viewBox="0 0 60 59" id="photoshop"><title>photoshop</title><g fill="#FFF" fill-rule="evenodd"><path d="M0 0h60v59H0V0zm2 2h56v55H2V2z"/><path d="M14.5 16.629s3.793-.1 6.916-.1c3.156 0 5.406.742 6.916 2.047 1.444 1.233 2.418 3.334 2.418 5.727 0 2.392-.74 4.35-2.082 5.726-1.746 1.777-3.78 2.828-7.252 2.973-.959.04-1.847.05-1.847.05v7.777H14.5v-24.2zm5.07 12.114c.55.054.895.028 1.712.018 2.72-.032 4.397-1.686 4.397-4.187 0-2.247-1.383-4.092-3.994-4.187-1.04-.038-2.116 0-2.116 0v8.356zM32.684 35.411c1.022.627 3.433 1.566 5.077 1.566 1.68 0 2.373-.592 2.373-1.514 0-.924-.548-1.895-2.63-2.596-3.687-1.256-5.111-2.76-5.074-4.863 0-3.398 2.847-5.946 7.265-5.946 2.082 0 3.744.68 4.839 1.234v4.078c-.804-.444-3.123-1.434-4.656-1.434-1.352 0-2.118.554-2.118 1.476 0 .85.694 1.293 2.885 2.07 3.395 1.18 4.819 2.916 4.855 5.575 0 3.361-2.59 6.034-7.74 5.871-1.767-.055-3.725-.754-5.076-1.491V35.41z"/></g></svg><svg viewBox="0 0 60 60" id="react"><title>react</title><g fill="#FFF" fill-rule="evenodd"><path d="M0 0h60v60H0V0zm2 2h56v56H2V2z"/><path d="M43.18 24.384c4.102 1.447 6.624 3.64 6.624 5.627 0 2.07-2.673 4.4-7.078 5.896-3.33 1.131-7.714 1.721-12.328 1.721-4.731 0-9.211-.554-12.579-1.733-4.26-1.493-6.828-3.853-6.828-5.884 0-1.97 2.409-4.147 6.453-5.592 3.418-1.22 8.045-1.95 12.954-1.95 4.861 0 9.377.714 12.782 1.915zm-1.236 1.06c3.706 1.185 5.985 2.983 5.985 4.61 0 1.697-2.415 3.607-6.395 4.833-3.009.926-6.968 1.41-11.136 1.41-4.274 0-8.32-.454-11.363-1.42-3.85-1.224-6.168-3.158-6.168-4.822 0-1.615 2.176-3.399 5.83-4.583 3.087-1 7.267-1.599 11.7-1.599 4.392 0 8.471.586 11.547 1.57z"/><path d="M41.578 38.179c.798 4.276.16 7.557-1.561 8.55-1.793 1.035-5.148-.115-8.646-3.182-2.644-2.319-5.347-5.82-7.654-9.816-2.365-4.097-4.126-8.254-4.788-11.76-.838-4.436-.077-7.84 1.681-8.855 1.707-.985 4.796.012 8.07 2.793 2.766 2.35 5.712 5.991 8.166 10.242 2.43 4.21 4.07 8.478 4.732 12.028zm-1.535-.54c.826 3.802.409 6.674-1.001 7.488-1.47.848-4.33-.289-7.382-3.122-2.307-2.142-4.705-5.33-6.79-8.94-2.136-3.7-3.767-7.432-4.45-10.55-.866-3.945-.35-6.92 1.091-7.753 1.398-.807 4.03.185 6.883 2.758 2.41 2.173 5.019 5.494 7.236 9.334 2.195 3.803 3.728 7.628 4.413 10.784z"/><path d="M28.743 43.813c-3.305 2.83-6.466 3.917-8.186 2.924-1.793-1.035-2.474-4.515-1.567-9.078.686-3.45 2.366-7.541 4.674-11.537 2.365-4.097 5.085-7.7 7.79-10.027 3.423-2.944 6.751-3.986 8.51-2.971 1.706.985 2.387 4.159 1.616 8.384-.652 3.57-2.333 7.943-4.787 12.194-2.43 4.21-5.308 7.763-8.05 10.111zm-.3-1.6c-2.88 2.617-5.576 3.692-6.985 2.878-1.47-.849-1.916-3.895-.988-7.954.702-3.07 2.263-6.74 4.347-10.35 2.137-3.7 4.554-6.979 6.912-9.13 2.984-2.722 5.818-3.763 7.26-2.93 1.398.807 1.855 3.583 1.053 7.339-.677 3.174-2.249 7.093-4.466 10.933-2.195 3.803-4.742 7.043-7.133 9.215z"/><ellipse cx="30" cy="30" rx="3" ry="3"/></g></svg><svg viewBox="0 0 60 60" id="sass"><title>sass</title><path d="M30 0C46.57 0 60 13.432 60 30c0 16.569-13.431 30-30 30C13.432 60 0 46.569 0 30 0 13.432 13.432 0 30 0m28 30c0 15.464-12.536 28-28 28S2 45.464 2 30 14.536 2 30 2s28 12.536 28 28zM26.722 37.28c.308 1.167.274 2.255-.044 3.24a5.42 5.42 0 0 1-.254.642 6.062 6.062 0 0 1-.979 1.46c-1.231 1.374-2.951 1.894-3.69 1.456-.796-.473-.397-2.41 1.03-3.954 1.537-1.662 3.746-2.73 3.746-2.73l-.003-.006.194-.108zm17.504-19.625c-.96-3.85-7.2-5.117-13.107-2.97-3.515 1.278-7.32 3.283-10.056 5.902-3.253 3.113-3.772 5.823-3.558 6.955.754 3.995 6.104 6.607 8.304 8.544v.012c-.649.327-5.395 2.785-6.506 5.297-1.172 2.651.186 4.554 1.086 4.81 2.787.793 5.647-.634 7.184-2.98 1.483-2.263 1.36-5.187.715-6.64.89-.24 1.926-.348 3.243-.19 3.718.444 4.447 2.819 4.308 3.812-.14.994-.92 1.54-1.18 1.706-.261.165-.34.222-.319.345.032.178.153.171.375.133.306-.053 1.952-.809 2.022-2.643.09-2.33-2.092-4.935-5.955-4.867-1.59.028-2.591.183-3.314.458a7.528 7.528 0 0 0-.164-.186c-2.388-2.607-6.803-4.451-6.616-7.956.069-1.274.501-4.63 8.484-8.699 6.539-3.334 11.773-2.416 12.678-.383 1.292 2.905-2.798 8.303-9.588 9.082-2.588.297-3.95-.73-4.289-1.111-.357-.402-.41-.42-.543-.345-.217.123-.08.478 0 .69.203.54 1.035 1.497 2.453 1.973 1.248.42 4.286.65 7.96-.804 4.114-1.629 7.326-6.159 6.383-9.945z" fill="#FFF" fill-rule="evenodd"/></svg><svg viewBox="0 0 60 54" id="sketch"><title>sketch</title><path d="M51.49 4.466L41.01 0H18.98L8.5 4.466 0 14.113l29.996 39.844L59.99 14.113l-8.5-9.647zm4.893 10.05l-7.918 6.075-6.301-9.108 8.866-4.194 5.353 7.227zm-11.749 7.878H15.355l6-10.57h17.28l6 10.57zM38.611 1.975l8.1 3.464-8.133 3.802H21.412L13.278 5.44l8.01-3.466 17.323.002zM8.86 7.29l8.866 4.194-6.302 9.108-7.918-6.075 5.354-7.227zM6.729 20.49l5.073 3.949 12.124 19.607L6.729 20.49zm9.33 5.124h27.87L29.997 50.252 16.06 25.614zm19.905 18.432l12.124-19.607 5.074-3.949-17.198 23.556z" fill="#FFF" fill-rule="evenodd"/></svg><svg viewBox="0 0 68 50" id="twitter"><title>twitter</title><path d="M59.991 7.906c2.88-1.562 5.091-4.036 6.133-6.983a29.733 29.733 0 0 1-8.86 3.063C54.721 1.533 51.094 0 47.082 0c-7.705 0-13.95 5.651-13.95 12.622 0 .99.122 1.954.361 2.877C21.898 14.973 11.62 9.946 4.738 2.31 3.537 4.174 2.849 6.342 2.849 8.655c0 4.38 2.462 8.243 6.206 10.508a15.004 15.004 0 0 1-6.319-1.58c-.002.054-.002.106-.002.16 0 6.116 4.81 11.217 11.19 12.377-1.169.288-2.4.441-3.673.441-.9 0-1.773-.077-2.626-.225 1.776 5.015 6.928 8.664 13.033 8.767-4.778 3.386-10.792 5.403-17.33 5.403-1.124 0-2.236-.06-3.328-.176C6.176 47.91 13.509 50 21.388 50c25.66 0 39.69-19.233 39.69-35.915 0-.547-.014-1.09-.039-1.632 2.725-1.78 5.09-4.003 6.961-6.535a30.175 30.175 0 0 1-8.009 1.988z" fill="#FFF" fill-rule="evenodd"/></svg></defs></svg>