<?xml version="1.0" encoding="UTF-8" standalone="no"?>
<svg width="60px" height="120px" viewBox="0 0 60 120" version="1.1" xmlns="http://www.w3.org/2000/svg" xmlns:xlink="http://www.w3.org/1999/xlink">
    <!-- Generator: Sketch 3.6.1 (26313) - http://www.bohemiancoding.com/sketch -->
    <title>iPhone</title>
    <desc>Created with Sketch.</desc>
    <defs></defs>
    <g id="Main" stroke="none" stroke-width="1" fill="none" fill-rule="evenodd">
        <g id="Desktop-HD" transform="translate(-250.000000, -2619.000000)" fill="#FFFFFF">
            <g id="section-3" transform="translate(0.000000, 2160.000000)">
                <g id="images" transform="translate(250.000000, 359.000000)">
                    <g id="iPhone" transform="translate(0.000000, 100.000000)">
                        <path d="M0,5.99187487 C0,2.68265376 2.69463714,0 6.0000383,0 L53.9999617,0 C57.3136914,0 60,2.6888701 60,5.99187487 L60,114.008125 C60,117.317346 57.3053629,120 53.9999617,120 L6.0000383,120 C2.68630865,120 0,117.31113 0,114.008125 L0,5.99187487 Z M2,7.00297576 C2,4.23990854 4.22982375,2 6.99424261,2 L53.0057574,2 C55.7640014,2 58,4.23933245 58,7.00297576 L58,112.997024 C58,115.760091 55.7701762,118 53.0057574,118 L6.99424261,118 C4.23599858,118 2,115.760668 2,112.997024 L2,7.00297576 Z M4,15.0018479 C4,14.4485426 4.449543,14 4.9923358,14 L55.0076642,14 C55.5557161,14 56,14.4516137 56,15.0018479 L56,104.998152 C56,105.551457 55.550457,106 55.0076642,106 L4.9923358,106 C4.44428387,106 4,105.548386 4,104.998152 L4,15.0018479 Z M5,15 L55,15 L55,105 L5,105 L5,15 Z M30,116 C32.209139,116 34,114.209139 34,112 C34,109.790861 32.209139,108 30,108 C27.790861,108 26,109.790861 26,112 C26,114.209139 27.790861,116 30,116 Z M30,115 C31.6568542,115 33,113.656854 33,112 C33,110.343146 31.6568542,109 30,109 C28.3431458,109 27,110.343146 27,112 C27,113.656854 28.3431458,115 30,115 Z M22,11 C22.5522847,11 23,10.5522847 23,10 C23,9.44771525 22.5522847,9 22,9 C21.4477153,9 21,9.44771525 21,10 C21,10.5522847 21.4477153,11 22,11 Z M30,7 C30.5522847,7 31,6.55228475 31,6 C31,5.44771525 30.5522847,5 30,5 C29.4477153,5 29,5.44771525 29,6 C29,6.55228475 29.4477153,7 30,7 Z M25,10 C25,9.44771525 25.4556644,9 25.9953976,9 L34.0046024,9 C34.5543453,9 35,9.44386482 35,10 C35,10.5522847 34.5443356,11 34.0046024,11 L25.9953976,11 C25.4456547,11 25,10.5561352 25,10 Z"></path>
                    </g>
                </g>
            </g>
        </g>
    </g>
</svg>