<?xml version="1.0" encoding="UTF-8" standalone="no"?>
<svg width="220px" height="115px" viewBox="0 0 220 115" version="1.1" xmlns="http://www.w3.org/2000/svg" xmlns:xlink="http://www.w3.org/1999/xlink">
    <!-- Generator: Sketch 3.6.1 (26313) - http://www.bohemiancoding.com/sketch -->
    <title>Macbook</title>
    <desc>Created with Sketch.</desc>
    <defs></defs>
    <g id="Main" stroke="none" stroke-width="1" fill="none" fill-rule="evenodd">
        <g id="Desktop-HD" transform="translate(-250.000000, -2759.000000)" fill="#FFFFFF">
            <g id="section-3" transform="translate(0.000000, 2160.000000)">
                <g id="images" transform="translate(250.000000, 359.000000)">
                    <g id="Macbook" transform="translate(0.000000, 240.000000)">
                        <path d="M27,5.9937032 C27,3.78804183 28.7936683,2 31.0006999,2 L188.9993,2 C191.208826,2 193,3.78463051 193,5.9937032 L193,100 L27,100 L27,5.9937032 Z M193.469627,109 C194.421177,107.936927 195,106.532512 195,104.992801 L195,6.00719887 C195,2.68883589 192.313504,0 188.999544,0 L31.000456,0 C27.6874304,0 25,2.68951454 25,6.00719887 L25,104.992801 C25,106.532696 25.5785228,107.937025 26.5298067,109 L193.469627,109 Z M27,105 C27,107.209139 28.7936683,109 31.0006999,109 L188.9993,109 C191.208826,109 193,107.204644 193,105 L193,101 L27,101 L27,105 Z M31,6.99534901 C31,6.44563293 31.4532471,6 32.0089569,6 L187.991043,6 C188.548275,6 189,6.44179603 189,6.99534901 L189,95.004651 C189,95.5543671 188.546753,96 187.991043,96 L32.0089569,96 C31.4517254,96 31,95.558204 31,95.004651 L31,6.99534901 Z M32,7 L188,7 L188,95 L32,95 L32,7 Z M110,5 C110.552285,5 111,4.55228475 111,4 C111,3.44771525 110.552285,3 110,3 C109.447715,3 109,3.44771525 109,4 C109,4.55228475 109.447715,5 110,5 Z M45.9948082,115 L173.994812,115 C173.994812,115 186.994812,115 198.685341,113.739167 L219.999994,109.945019 L220,109 L6.47066767e-15,109 L1.35982846e-09,109.945019 L21.3146588,113.739167 C33.9948082,115 45.9948082,115 45.9948082,115 Z M50.5138409,113 L171.47635,113 C171.47635,113 182.761604,113 193.809383,112.579722 L204.071765,111.315006 L206,111 L14,111 L15.9282297,111.315006 L26.1906167,112.579722 C38.173606,113 50.5138409,113 50.5138409,113 Z"></path>
                    </g>
                </g>
            </g>
        </g>
    </g>
</svg>