<?xml version="1.0" encoding="UTF-8" standalone="no"?>
<svg width="60px" height="60px" viewBox="0 0 60 60" version="1.1" xmlns="http://www.w3.org/2000/svg" xmlns:xlink="http://www.w3.org/1999/xlink">
    <!-- Generator: Sketch 3.6.1 (26313) - http://www.bohemiancoding.com/sketch -->
    <title>react</title>
    <desc>Created with Sketch.</desc>
    <defs></defs>
    <g id="Main" stroke="none" stroke-width="1" fill="none" fill-rule="evenodd">
        <g id="Desktop-HD" transform="translate(-570.000000, -2759.000000)" fill="#FFFFFF">
            <g id="section-3" transform="translate(0.000000, 2160.000000)">
                <g id="images" transform="translate(250.000000, 359.000000)">
                    <g id="react" transform="translate(320.000000, 240.000000)">
                        <path d="M0,0 L60,0 L60,60 L0,60 L0,0 Z M2,2 L58,2 L58,58 L2,58 L2,2 Z" id="Rectangle-path-Copy-2"></path>
                        <path d="M43.1797004,24.3839688 C47.2821246,25.8311351 49.8044617,28.0248466 49.8044617,30.0111967 C49.8044617,32.0811866 47.1312174,34.4115614 42.725824,35.9072401 C39.3951122,37.0380399 35.0123801,37.6282506 30.3979106,37.6282506 C25.6668867,37.6282506 21.1868697,37.0742024 17.8194234,35.8947423 C13.5580811,34.4022434 10.9913595,32.0416223 10.9913595,30.0111967 C10.9913595,28.0409681 13.3996682,25.8642655 17.4444287,24.4192439 C20.8620331,23.1983706 25.4893489,22.4680949 30.3979106,22.4680949 C35.2589846,22.4680949 39.7747979,23.1828407 43.1797004,24.3839688 Z M41.9442857,25.4432645 C45.6501932,26.6292349 47.9287356,28.4270083 47.9287356,30.0548464 C47.9287356,31.7512284 45.5138718,33.6609989 41.5342785,34.8867259 C38.5254942,35.8134301 34.5663719,36.297115 30.3979106,36.297115 C26.1241604,36.297115 22.0771562,35.8430657 19.035188,34.8764837 C15.1857226,33.6533627 12.8670856,31.7188049 12.8670856,30.0548464 C12.8670856,28.4402201 15.042621,26.6563858 18.6964381,25.4721729 C21.7837164,24.4716524 25.9637823,23.8731825 30.3979106,23.8731825 C34.789141,23.8731825 38.8684817,24.4589254 41.9442857,25.4432645 Z" id="Shape-Copy-2"></path>
                        <path d="M41.5778634,38.1785331 C42.3757928,42.4549199 41.7371514,45.7361836 40.0169217,46.7293587 C38.2242579,47.7643536 34.869472,46.6144436 31.3714795,43.5471003 C28.7268223,41.2280192 26.0243188,37.7275672 23.717084,33.7313194 C21.3515721,29.6341325 19.5913834,25.4772998 18.9291027,21.9712757 C18.0909734,17.5345956 18.8519705,14.131439 20.6103706,13.1162262 C22.3166386,12.1311119 25.4058727,13.1284171 28.6796784,15.9087717 C31.4457879,18.2580672 34.3918831,21.9003023 36.846164,26.1512415 C39.276701,30.3610551 40.9156196,34.6292371 41.5778634,38.1785331 Z M40.0433196,37.6382805 C40.8691929,41.4406757 40.4515467,44.312838 39.0417975,45.1267571 C37.5726876,45.974948 34.7113459,44.8384999 31.6600385,42.0049345 C29.3530971,39.862603 26.9546525,36.675745 24.8704218,33.0657516 C22.7335468,29.3645753 21.1032628,25.6327422 20.4193633,22.5150295 C19.5538844,18.5697342 20.0699422,15.5944568 21.5109725,14.7624775 C22.90928,13.9551643 25.5418934,14.9473161 28.3943605,17.5195081 C30.8044758,19.6929093 33.4127989,23.0137176 35.629863,26.8537853 C37.8254782,30.6567024 39.3578803,34.4823865 40.0433196,37.6382805 Z" id="Shape-Copy-4"></path>
                        <path d="M28.7426269,43.8132512 C25.438132,46.6424717 22.2771536,47.7300239 20.5569239,46.7368489 C18.7642601,45.7018539 18.0827184,42.2215691 18.9901193,37.6585471 C19.676174,34.2086662 21.3564025,30.1180035 23.6636373,26.1217557 C26.0291492,22.0245688 28.7489776,18.4217844 31.4541431,16.0952204 C34.8773562,13.1510391 38.2050748,12.1085036 39.963475,13.1237164 C41.669743,14.1088307 42.3506684,17.2828384 41.5797136,21.5082147 C40.9282186,25.0783835 39.2469981,29.4508944 36.7927173,33.7018336 C34.3621803,37.9116471 31.4852855,41.4650832 28.7426269,43.8132512 Z M28.4434978,42.2137029 C25.5634636,44.8301277 22.867275,45.9045166 21.4575257,45.0905975 C19.9884159,44.2424066 19.541938,41.1961879 20.4702239,37.1368955 C21.1720667,34.0678598 22.7327444,30.3973169 24.8169751,26.7873235 C26.9538502,23.0861473 29.3705705,19.8083634 31.7286392,17.6572326 C34.7126257,14.9350583 37.5473204,13.8943387 38.9883507,14.726318 C40.3866582,15.5336312 40.8437363,18.3096172 40.0423862,22.0660221 C39.3652232,25.2399438 37.7934804,29.159222 35.5764163,32.9992898 C33.3808011,36.8022068 30.8338625,40.042148 28.4434978,42.2137029 Z" id="Shape-Copy-5"></path>
                        <ellipse id="Oval-Copy-5" cx="30" cy="30" rx="3" ry="3"></ellipse>
                    </g>
                </g>
            </g>
        </g>
    </g>
</svg>