<?xml version="1.0" encoding="UTF-8" standalone="no"?>
<svg width="60px" height="60px" viewBox="0 0 60 60" version="1.1" xmlns="http://www.w3.org/2000/svg" xmlns:xlink="http://www.w3.org/1999/xlink">
    <!-- Generator: Sketch 3.6.1 (26313) - http://www.bohemiancoding.com/sketch -->
    <title>sass</title>
    <desc>Created with Sketch.</desc>
    <defs></defs>
    <g id="Main" stroke="none" stroke-width="1" fill="none" fill-rule="evenodd">
        <g id="Desktop-HD" transform="translate(-570.000000, -2679.000000)" fill="#FFFFFF">
            <g id="section-3" transform="translate(0.000000, 2160.000000)">
                <g id="images" transform="translate(250.000000, 359.000000)">
                    <g id="sass" transform="translate(320.000000, 160.000000)">
                        <path d="M30.000073,0 C46.568631,0 60,13.431515 60,30.000073 C60,46.568631 46.568631,60 30.000073,60 C13.431515,60 0,46.568631 0,30.000073 C0,13.431515 13.431515,0 30.000073,0 M58,30.0000681 C58,45.4640556 45.4640556,58 30.0000681,58 C14.5360807,58 2,45.4640556 2,30.0000681 C2,14.5360807 14.5360807,2 30.0000681,2 C45.4640556,2 58,14.5360807 58,30.0000681 Z M26.7216841,37.2786227 C27.0300107,38.4455195 26.9961762,39.5336803 26.6777406,40.5191466 C26.6423588,40.6285959 26.6033667,40.7368843 26.5610737,40.8439061 C26.5187806,40.9507169 26.4729804,41.0563666 26.4238792,41.1606443 C26.1782701,41.6820327 25.8486938,42.1700691 25.4450532,42.6205318 C24.2138099,43.9949285 22.4935147,44.5146281 21.7558621,44.0767252 C20.9593088,43.6043093 21.3583076,41.6665177 22.7858524,40.122617 C24.3216056,38.4614567 26.5312622,37.3934548 26.5312622,37.3934548 L26.5278582,37.3867 C26.591504,37.3516593 26.6561814,37.3155632 26.7216841,37.2786227 Z M44.2258453,17.6539436 C43.2662059,13.8030576 37.0256098,12.5371604 31.1192319,14.6840351 C27.6042676,15.9618589 23.7990286,17.9671988 21.0629783,20.5856451 C17.8098183,23.6989882 17.291058,26.4087302 17.5048957,27.5410085 C18.259156,31.536279 23.609432,34.1477593 25.8088765,36.0853399 L25.8088765,36.0970553 C25.1603488,36.4237146 20.4135223,38.8816282 19.3026595,41.3944247 C18.1305233,44.0453786 19.4892646,45.9477074 20.3887654,46.2037577 C23.1758768,46.9971335 26.0359179,45.5700702 27.5729089,43.2243502 C29.0561568,40.960638 28.9326817,38.0374856 28.2880739,36.583403 C29.1772593,36.3433955 30.2138514,36.235846 31.5312281,36.3933179 C35.24858,36.8375535 35.9779803,39.2125093 35.8385164,40.206208 C35.6991557,41.2002234 34.9194164,41.7467313 34.6587469,41.9116969 C34.3979742,42.076768 34.3184426,42.1338674 34.3404144,42.2565098 C34.3719794,42.4348795 34.4926693,42.4282302 34.7149657,42.3897066 C35.0209197,42.3369345 36.6669442,41.581238 36.7372951,39.746563 C36.8269357,37.4172023 34.6452337,34.8115269 30.7822286,34.8796029 C29.1912882,34.9076776 28.190903,35.062511 27.468311,35.3376647 C27.4148773,35.2753937 27.3605153,35.2134392 27.3042965,35.152118 C24.9160807,32.5450705 20.501203,30.7008966 20.688427,27.19609 C20.7565085,25.9219603 21.1893417,22.5668155 29.171689,18.4971363 C35.7106057,15.1633114 40.9452464,16.0807017 41.8499048,18.1139053 C43.142112,21.0185875 39.0522717,26.4173848 32.2615567,27.19609 C29.6743572,27.4928803 28.3121087,26.4668851 27.9732486,26.084815 C27.6164398,25.6825861 27.5633156,25.6644325 27.4301441,25.7398966 C27.2131086,25.8628556 27.3506125,26.2180118 27.4301441,26.4297335 C27.6328412,26.9695921 28.4648794,27.9269837 29.8833468,28.4031991 C31.1310946,28.8222096 34.1687665,29.0524016 37.8423813,27.5985301 C41.956669,25.9700885 45.1694959,21.4403421 44.2258453,17.6539436 Z" id="Fill-1"></path>
                    </g>
                </g>
            </g>
        </g>
    </g>
</svg>