<?xml version="1.0" encoding="utf-8"?>
<!-- Generator: Adobe Illustrator 17.1.0, SVG Export Plug-In . SVG Version: 6.00 Build 0)  -->
<!DOCTYPE svg PUBLIC "-//W3C//DTD SVG 1.1//EN" "http://www.w3.org/Graphics/SVG/1.1/DTD/svg11.dtd">
<svg version="1.1" id="Layer_1" xmlns="http://www.w3.org/2000/svg" xmlns:xlink="http://www.w3.org/1999/xlink" x="0px" y="0px"
	 width="32px" height="32px" viewBox="0 0 32 32" enable-background="new 0 0 32 32" xml:space="preserve">
<g id="pause_1_">
	<path id="pause" fill="#666666" d="M12.7,29.8c0,0.5-0.4,0.9-0.9,0.9H5.8c-0.5,0-0.9-0.4-0.9-0.9V2.2c0-0.5,0.4-0.9,0.9-0.9h6
		c0.6,0,1,0.4,1,0.9L12.7,29.8L12.7,29.8z"/>
</g>
<g id="pause_2_">
	<path id="pause_3_" fill="#666666" d="M27.1,29.8c0,0.5-0.4,0.9-0.9,0.9h-6.1c-0.5,0-0.9-0.4-0.9-0.9V2.2c0-0.5,0.4-0.9,0.9-0.9h6
		c0.6,0,1,0.4,1,0.9L27.1,29.8L27.1,29.8z"/>
</g>
</svg>
