<?xml version="1.0" encoding="utf-8"?>
<!-- Generator: Adobe Illustrator 17.1.0, SVG Export Plug-In . SVG Version: 6.00 Build 0)  -->
<!DOCTYPE svg PUBLIC "-//W3C//DTD SVG 1.1//EN" "http://www.w3.org/Graphics/SVG/1.1/DTD/svg11.dtd">
<svg version="1.1" id="Layer_1" xmlns="http://www.w3.org/2000/svg" xmlns:xlink="http://www.w3.org/1999/xlink" x="0px" y="0px"
	 width="32px" height="32px" viewBox="0 0 32 32" enable-background="new 0 0 32 32" xml:space="preserve">
<path fill="#666666" d="M14.2,8.6c0-0.3-0.2-0.3-0.4-0.2l-4.7,4.4C9,13,8.6,13.1,8.3,13.1H5.1c-0.3,0-0.5,0.2-0.5,0.5v3.8
	c0,0.3,0.2,0.5,0.5,0.5h3.4c0.3,0,0.7,0.2,0.9,0.3l4.6,4.4c0.2,0.2,0.4,0.1,0.4-0.2L14.2,8.6L14.2,8.6z"/>
<path fill="#666666" d="M26.3,19c0.2,0.2,0.2,0.5,0,0.7l-1.1,1.1c-0.2,0.2-0.5,0.2-0.7,0l-2.9-2.9l-2.9,2.9c-0.2,0.2-0.5,0.2-0.7,0
	l-1.1-1.1c-0.2-0.2-0.2-0.5,0-0.7l2.9-2.9l-2.9-2.9c-0.2-0.2-0.2-0.5,0-0.7l1.1-1.1c0.2-0.2,0.5-0.2,0.7,0l2.9,2.9l2.9-2.9
	c0.2-0.2,0.5-0.2,0.7,0l1.1,1.1c0.2,0.2,0.2,0.5,0,0.7l-2.9,2.9L26.3,19z"/>
</svg>
