<?xml version="1.0" encoding="utf-8"?>
<!-- Generator: Adobe Illustrator 17.0.0, SVG Export Plug-In . SVG Version: 6.00 Build 0)  -->
<!DOCTYPE svg PUBLIC "-//W3C//DTD SVG 1.1//EN" "http://www.w3.org/Graphics/SVG/1.1/DTD/svg11.dtd">
<svg version="1.1" id="Layer_1" xmlns="http://www.w3.org/2000/svg" xmlns:xlink="http://www.w3.org/1999/xlink" x="0px" y="0px"
	 width="32px" height="32px" viewBox="0 0 32 32" enable-background="new 0 0 32 32" xml:space="preserve">
<g id="random_1_">
	<path id="random" fill="#666666" d="M30.782,21.65c0.239,0.179,0.239,0.472,0,0.651l-5.749,4.237
		c-0.239,0.179-0.534,0.081-0.534-0.217V23.5h-3.695l-4.679-4.236l2.412-2.107l3.535,3.343H24.5v-2.87
		c0-0.299,0.294-0.397,0.534-0.217L30.782,21.65z M24.5,11.5v2.87c0,0.299,0.294,0.397,0.534,0.217l5.699-4.237
		c0.239-0.179,0.264-0.472,0.025-0.651l-5.736-4.237C24.782,5.282,24.5,5.381,24.5,5.679V8.5h-3.695l-13.037,12H4.057h-1.63H1.884
		c-0.299,0-0.384,0.09-0.384,0.389v2.173c0,0.299,0.085,0.438,0.384,0.438h0.543h1.63h4.98l13.037-12H24.5z M1.884,11.5h0.543h1.63
		h3.712l3.534,3.317l2.412-2.119L9.036,8.5h-4.98h-1.63H1.884C1.585,8.5,1.5,8.64,1.5,8.938v2.173C1.5,11.41,1.585,11.5,1.884,11.5z
		"/>
</g>
</svg>
