<?xml version="1.0" encoding="utf-8"?>
<!-- Generator: Adobe Illustrator 17.1.0, SVG Export Plug-In . SVG Version: 6.00 Build 0)  -->
<!DOCTYPE svg PUBLIC "-//W3C//DTD SVG 1.1//EN" "http://www.w3.org/Graphics/SVG/1.1/DTD/svg11.dtd">
<svg version="1.1" id="Layer_1" xmlns="http://www.w3.org/2000/svg" xmlns:xlink="http://www.w3.org/1999/xlink" x="0px" y="0px"
	 width="32px" height="32px" viewBox="0 0 32 32" enable-background="new 0 0 32 32" xml:space="preserve">
<g id="volume_x5F_up_1_">
	<path fill="#666666" d="M27.4,16c0,4.4-1.5,8.3-4.1,11.5l-1.4-1.2c2.3-2.9,3.6-6.4,3.6-10.4s-1.3-7.5-3.6-10.4l1.4-1.1
		C25.9,7.7,27.4,11.7,27.4,16z M20.3,6.8l-1.5,1.2c1.8,2.2,2.9,5,2.9,8.1c0,3-1.1,5.8-2.8,7.9l1.4,1.2c2-2.5,3.2-5.7,3.2-9.1
		C23.6,12.5,22.3,9.3,20.3,6.8z M17.2,9.2l-1.5,1.2c1.2,1.5,2,3.6,2,5.7s-0.7,3.9-1.9,5.5l1.5,1.2c1.4-1.8,2.3-4.1,2.3-6.7
		C19.7,13.4,18.8,11,17.2,9.2z M14.2,8.6c0-0.3-0.2-0.3-0.4-0.2l-4.7,4.4C9,13,8.6,13.1,8.3,13.1H5.1c-0.3,0-0.5,0.2-0.5,0.5v3.8
		c0,0.3,0.2,0.5,0.5,0.5h3.4c0.3,0,0.7,0.2,0.9,0.3l4.6,4.4c0.2,0.2,0.4,0.1,0.4-0.2L14.2,8.6L14.2,8.6z"/>
</g>
</svg>
